<svg width="19" height="17" viewBox="0 0 19 17" fill="none" xmlns="http://www.w3.org/2000/svg">
<path d="M1 7.3137C1 5.63055 2.36447 4.26608 4.04762 4.26608H11.6699C13.3531 4.26608 14.7176 5.63055 14.7176 7.3137V11.1668C14.7176 12.85 13.3531 14.2145 11.6699 14.2145H9.56151C8.50334 14.2145 7.5209 14.7633 6.96619 15.6645L6.79292 15.946C6.49539 16.4293 5.79279 16.4293 5.49526 15.946L5.07377 15.2613C4.67332 14.6107 3.96407 14.2145 3.20015 14.2145V14.2145C1.98504 14.2145 1 13.2294 1 12.0143V7.3137Z" stroke="white" stroke-width="1.06667"/>
<path d="M4.26562 7.90427H11.451" stroke="white" stroke-width="1.06667" stroke-linecap="round"/>
<path d="M4.26562 10.3298H8.83815" stroke="white" stroke-width="1.06667" stroke-linecap="round"/>
<path d="M14.7171 10.7983H14.9356C16.6187 10.7983 17.9832 9.43379 17.9832 7.75064V4.04762C17.9832 2.36447 16.6187 1 14.9356 1H7.31324C5.63009 1 4.26562 2.36446 4.26562 4.04762V4.26609" stroke="white" stroke-width="1.14286"/>
</svg>
