<svg width="17" height="15" viewBox="0 0 17 15" fill="none" xmlns="http://www.w3.org/2000/svg">
<path d="M4.47429 0.85791C2.33503 0.85791 0.60083 2.59212 0.60083 4.73137V9.7065C0.60083 11.3223 1.91071 12.6322 3.52652 12.6322C4.14175 12.6322 4.71294 12.9513 5.03545 13.4752L5.47624 14.1913C6.02336 15.0801 7.31534 15.0801 7.86245 14.1913L8.02567 13.9262C8.52068 13.122 9.3974 12.6322 10.3417 12.6322H12.5255C14.6647 12.6322 16.3989 10.898 16.3989 8.75873V4.73137C16.3989 2.59212 14.6647 0.85791 12.5255 0.85791H4.47429Z" fill="#162741"/>
<path fill-rule="evenodd" clip-rule="evenodd" d="M4.08374 5.31901C4.08374 5.0004 4.34203 4.74211 4.66064 4.74211H12.3315C12.6501 4.74211 12.9084 5.0004 12.9084 5.31901C12.9084 5.63762 12.6501 5.89591 12.3315 5.89591H4.66064C4.34203 5.89591 4.08374 5.63762 4.08374 5.31901Z" fill="white"/>
<path fill-rule="evenodd" clip-rule="evenodd" d="M4.08374 7.90836C4.08374 7.58975 4.34203 7.33147 4.66064 7.33147H9.54208C9.86069 7.33147 10.119 7.58975 10.119 7.90836C10.119 8.22698 9.86069 8.48526 9.54208 8.48526H4.66064C4.34203 8.48526 4.08374 8.22698 4.08374 7.90836Z" fill="white"/>
</svg>
