<svg width="13" height="13" viewBox="0 0 13 13" fill="none" xmlns="http://www.w3.org/2000/svg">
<path d="M10.7539 2.24609L12.5117 0.488281V5.76172H7.23828L9.66406 3.33594C8.77344 2.44531 7.71875 2 6.5 2C5.25781 2 4.19141 2.44531 3.30078 3.33594C2.43359 4.20312 2 5.25781 2 6.5C2 7.74219 2.43359 8.80859 3.30078 9.69922C4.19141 10.5664 5.25781 11 6.5 11C7.48438 11 8.36328 10.7305 9.13672 10.1914C9.91016 9.62891 10.4492 8.90234 10.7539 8.01172H12.3008C11.9727 9.32422 11.2695 10.4023 10.1914 11.2461C9.11328 12.0898 7.88281 12.5117 6.5 12.5117C4.85938 12.5117 3.45312 11.9258 2.28125 10.7539C1.10938 9.58203 0.523438 8.16406 0.523438 6.5C0.523438 4.83594 1.10938 3.41797 2.28125 2.24609C3.45312 1.07422 4.85938 0.488281 6.5 0.488281C8.16406 0.488281 9.58203 1.07422 10.7539 2.24609Z" fill="#162741"/>
</svg>
