<svg width="20" height="18" viewBox="0 0 20 18" fill="none" xmlns="http://www.w3.org/2000/svg">
<circle cx="9.76189" cy="6.71429" r="5.71429" stroke="#162741" stroke-width="1.14286"/>
<path d="M16.2381 9.38095V13.9524C16.2381 15.2147 15.2148 16.2381 13.9524 16.2381H12.4286" stroke="#162741" stroke-width="1.14286"/>
<rect x="7.09521" y="14.7143" width="5.33333" height="2.28571" rx="1.14286" stroke="#162741" stroke-width="1.14286"/>
<path d="M3.66667 9.38095C2.19391 9.38095 1 8.18704 1 6.71428V6.71428C1 5.24153 2.19391 4.04762 3.66667 4.04762L4.04762 4.04762L4.04762 9.38095L3.66667 9.38095Z" stroke="#162741" stroke-width="1.14286"/>
<path d="M15.8571 4.04762C17.3299 4.04762 18.5238 5.24153 18.5238 6.71429V6.71429C18.5238 8.18705 17.3299 9.38096 15.8571 9.38096L15.4762 9.38096L15.4762 4.04762L15.8571 4.04762Z" stroke="#162741" stroke-width="1.14286"/>
</svg>
