<svg width="21" height="22" viewBox="0 0 21 22" fill="none" xmlns="http://www.w3.org/2000/svg">
<path fill-rule="evenodd" clip-rule="evenodd" d="M4.65717 1.00054C5.77417 1.01554 6.57017 1.85254 7.57717 2.91154C7.82617 3.17254 8.09517 3.45754 8.39617 3.75754C9.85517 5.21754 9.44017 6.40854 9.10517 7.36454C8.74117 8.40754 8.42617 9.30754 10.3122 11.1935C12.1982 13.0795 13.0972 12.7645 14.1392 12.3975C15.0962 12.0635 16.2842 11.6455 17.7462 13.1055C18.0432 13.4025 18.3232 13.6685 18.5832 13.9155C19.6462 14.9275 20.4862 15.7265 20.5003 16.8465C20.5112 17.8005 19.9312 18.7745 18.4992 20.2065L17.8652 19.7765L18.4022 20.2995C18.0852 20.6245 17.2422 21.4905 15.5912 21.5005H15.5612C13.0692 21.5005 9.82017 19.5165 5.90417 15.6015C1.97217 11.6705 -0.0148324 8.41154 8.33525e-05 5.91454C0.00916765 4.26454 0.874168 3.41954 1.19917 3.10254L1.22691 3.07224L1.29417 3.00454C2.72917 1.56954 3.71517 0.97954 4.65717 1.00054ZM4.63817 2.50054H4.63017C4.18111 2.50054 3.49913 2.95054 2.548 3.87444L2.357 4.062L2.35917 4.06154C2.35917 4.06154 2.34285 4.08026 2.31503 4.10863L2.24817 4.17554C2.00617 4.41054 1.50517 4.89954 1.50012 5.92254C1.49217 7.35354 2.43317 10.0105 6.96417 14.5405C11.4732 19.0485 14.1262 20.0005 15.5612 20.0005H15.5822C16.6052 19.9945 17.0932 19.4935 17.3282 19.2525C17.3992 19.1795 17.4572 19.1245 17.4982 19.0915C18.4952 18.0885 19.0052 17.3435 19.0002 16.8645C18.9942 16.3765 18.3872 15.8005 17.5482 15.0015C17.2812 14.7485 16.9912 14.4715 16.6852 14.1655C15.8912 13.3745 15.5002 13.5095 14.6352 13.8135C13.4402 14.2325 11.8032 14.8065 9.25217 12.2535C6.70017 9.70254 7.27217 8.06554 7.68917 6.86954C7.99117 6.00554 8.12917 5.61254 7.33617 4.81854C7.02617 4.50854 6.74717 4.21454 6.49017 3.94454C5.69617 3.11054 5.12317 2.50754 4.63817 2.50054Z" fill="#616B7B"/>
<path d="M13 5L16 8L19 5" stroke="#616B7B" stroke-width="1.4" stroke-linecap="round" stroke-linejoin="round"/>
<path d="M16 1V7" stroke="#616B7B" stroke-width="1.4" stroke-linecap="round" stroke-linejoin="round"/>
</svg>
