<svg width="23" height="21" viewBox="0 0 23 21" fill="none" xmlns="http://www.w3.org/2000/svg">
<path d="M1 5C1 2.79086 2.79086 1 5 1H18C20.2091 1 22 2.79086 22 5V12.2298C22 14.4389 20.2091 16.2298 18 16.2298H13.7348C12.346 16.2298 11.0565 16.9502 10.3285 18.133L9.72659 19.1107C9.33608 19.7451 8.41392 19.7451 8.02341 19.1107L7.23647 17.8323C6.62342 16.8364 5.53765 16.2298 4.36818 16.2298V16.2298C2.50798 16.2298 1 14.7218 1 12.8616V5Z" fill="#162741" stroke="#162741" stroke-width="1.4"/>
<path d="M6 6.56976H17" stroke="white" stroke-width="1.4" stroke-linecap="round"/>
<path d="M6 10.2829H13" stroke="white" stroke-width="1.4" stroke-linecap="round"/>
</svg>
