<svg width="21" height="22" viewBox="0 0 21 22" fill="none" xmlns="http://www.w3.org/2000/svg">
<path fill-rule="evenodd" clip-rule="evenodd" d="M8.147 4.20344C8.58 4.54344 8.829 5.05044 8.829 5.59444C8.829 9.97944 8.977 11.1594 9.582 11.6084C9.979 11.9014 10.523 11.8984 12.356 11.8474C13.208 11.8224 14.299 11.7904 15.728 11.7904C16.298 11.7904 16.835 12.0344 17.199 12.4594C17.537 12.8544 17.685 13.3704 17.607 13.8784C16.939 18.2034 13.259 21.3444 8.857 21.3444C3.973 21.3444 0 17.3714 0 12.4884C0 8.61644 2.928 4.74444 6.527 3.85844C7.089 3.72144 7.693 3.84944 8.147 4.20344ZM6.982 5.30344C6.95 5.30344 6.918 5.30744 6.886 5.31544C3.916 6.04644 1.5 9.26444 1.5 12.4884C1.5 16.5444 4.8 19.8444 8.857 19.8444C12.514 19.8444 15.57 17.2394 16.124 13.6494C16.128 13.6194 16.142 13.5324 16.06 13.4354C15.982 13.3444 15.858 13.2904 15.728 13.2904C14.317 13.2904 13.24 13.3224 12.399 13.3464C10.363 13.4074 9.521 13.4304 8.689 12.8134C7.49931 11.9321 7.34289 10.4504 7.32998 6.29248L7.329 5.59444C7.329 5.51044 7.293 5.44044 7.221 5.38444C7.154 5.33144 7.069 5.30344 6.982 5.30344ZM18.0504 2.73374C19.8084 4.49074 20.9244 6.79974 20.8924 8.61674C20.8804 9.32574 20.3654 9.91774 19.6694 10.0227C18.3114 10.2277 16.7214 10.2897 15.3144 10.2897C14.0044 10.2897 12.8514 10.2367 12.1884 10.1987C11.3544 10.1497 10.6904 9.48474 10.6424 8.65074C10.5644 7.32874 10.3954 3.96974 10.5154 1.37174C10.5484 0.616742 11.1584 0.0157416 11.9044 0.00274156C14.0414 -0.0592584 16.2464 0.932742 18.0504 2.73374ZM12.0324 1.50174H12.0104C11.9004 4.02074 12.0634 7.27474 12.1394 8.56374C12.1434 8.64074 12.1994 8.69674 12.2754 8.70074C13.3034 8.75974 16.8454 8.92374 19.3924 8.54874C19.3984 7.14474 18.4374 5.24074 16.9904 3.79474C15.5064 2.31274 13.7504 1.50174 12.0324 1.50174Z" fill="#162741"/>
</svg>
