<svg width="21" height="22" viewBox="0 0 21 22" fill="none" xmlns="http://www.w3.org/2000/svg">
<path fill-rule="evenodd" clip-rule="evenodd" d="M8.14724 4.20344C8.58024 4.54344 8.82924 5.05044 8.82924 5.59444C8.82924 9.97944 8.97725 11.1594 9.58224 11.6084C9.97925 11.9014 10.5232 11.8984 12.3562 11.8474C13.2082 11.8224 14.2992 11.7904 15.7282 11.7904C16.2982 11.7904 16.8352 12.0344 17.1992 12.4594C17.5372 12.8544 17.6852 13.3704 17.6072 13.8784C16.9392 18.2034 13.2592 21.3444 8.85724 21.3444C3.97324 21.3444 0.000244141 17.3714 0.000244141 12.4884C0.000244141 8.61644 2.92824 4.74444 6.52724 3.85844C7.08924 3.72144 7.69324 3.84944 8.14724 4.20344ZM6.98224 5.30344C6.95024 5.30344 6.91824 5.30744 6.88624 5.31544C3.91624 6.04644 1.50024 9.26444 1.50024 12.4884C1.50024 16.5444 4.80024 19.8444 8.85724 19.8444C12.5142 19.8444 15.5702 17.2394 16.1242 13.6494C16.1282 13.6194 16.1422 13.5324 16.0602 13.4354C15.9822 13.3444 15.8582 13.2904 15.7282 13.2904C14.3172 13.2904 13.2402 13.3224 12.3992 13.3464C10.3632 13.4074 9.52124 13.4304 8.68924 12.8134C7.49955 11.9321 7.34313 10.4504 7.33022 6.29248L7.32924 5.59444C7.32924 5.51044 7.29324 5.44044 7.22124 5.38444C7.15424 5.33144 7.06924 5.30344 6.98224 5.30344ZM18.0506 2.73374C19.8086 4.49074 20.9246 6.79974 20.8926 8.61674C20.8806 9.32574 20.3656 9.91774 19.6696 10.0227C18.3116 10.2277 16.7216 10.2897 15.3146 10.2897C14.0046 10.2897 12.8516 10.2367 12.1886 10.1987C11.3546 10.1497 10.6906 9.48474 10.6426 8.65074C10.5646 7.32874 10.3956 3.96974 10.5156 1.37174C10.5486 0.616742 11.1586 0.0157416 11.9046 0.00274156C14.0416 -0.0592584 16.2466 0.932742 18.0506 2.73374ZM12.0326 1.50174H12.0106C11.9006 4.02074 12.0636 7.27474 12.1396 8.56374C12.1436 8.64074 12.1996 8.69674 12.2756 8.70074C13.3036 8.75974 16.8456 8.92374 19.3927 8.54874C19.3986 7.14474 18.4376 5.24074 16.9906 3.79474C15.5066 2.31274 13.7506 1.50174 12.0326 1.50174Z" fill="#616B7B"/>
</svg>
