<svg width="67" height="48" viewBox="0 0 67 48" fill="none" xmlns="http://www.w3.org/2000/svg">
<path fill-rule="evenodd" clip-rule="evenodd" d="M19.7568 0C8.84539 0 0 8.86004 0 19.7895C0 27.8431 4.80296 34.7731 11.6963 37.8624L12.3966 47.8167L24.5751 39.5789H46.6596C57.5709 39.5789 66.4163 30.7189 66.4163 19.7895C66.4163 8.86004 57.5709 0 46.6596 0H19.7568Z" fill="url(#paint0_linear_4285_10783)"/>
<path d="M27.0078 11.3684V26.1052H24.2125L16.8773 17.1579V26.1052H13.5144V11.3684H16.3308L23.645 20.3158V11.3684H27.0078ZM41.3339 20.4842C41.3339 20.5263 41.3129 20.821 41.2709 21.3684H32.7166C32.8708 22.0701 33.2351 22.6246 33.8095 23.0316C34.3841 23.4386 35.0987 23.6421 35.9534 23.6421C36.5419 23.6421 37.0603 23.5579 37.5087 23.3895C37.9711 23.207 38.3985 22.9263 38.7908 22.5474L40.5353 24.4421C39.4704 25.6631 37.9151 26.2737 35.8693 26.2737C34.5943 26.2737 33.4663 26.028 32.4854 25.5368C31.5046 25.0316 30.748 24.3368 30.2155 23.4526C29.6831 22.5684 29.4168 21.5649 29.4168 20.4421C29.4168 19.3333 29.6761 18.3368 30.1945 17.4526C30.727 16.5543 31.4486 15.8596 32.3593 15.3684C33.2841 14.8631 34.314 14.6105 35.4489 14.6105C36.5559 14.6105 37.5578 14.8491 38.4545 15.3263C39.3513 15.8035 40.0518 16.4912 40.5563 17.3895C41.0747 18.2737 41.3339 19.3053 41.3339 20.4842ZM35.47 17.0947C34.7274 17.0947 34.1038 17.3052 33.5994 17.7263C33.0949 18.1474 32.7867 18.7228 32.6746 19.4526H38.2443C38.1322 18.7368 37.824 18.1684 37.3195 17.7474C36.8151 17.3122 36.1986 17.0947 35.47 17.0947ZM48.8974 26.2737C47.7064 26.2737 46.6345 26.028 45.6817 25.5368C44.7428 25.0316 44.0072 24.3368 43.4748 23.4526C42.9424 22.5684 42.6761 21.5649 42.6761 20.4421C42.6761 19.3193 42.9424 18.3158 43.4748 17.4316C44.0072 16.5474 44.7428 15.8596 45.6817 15.3684C46.6345 14.8631 47.7064 14.6105 48.8974 14.6105C50.0884 14.6105 51.1533 14.8631 52.0921 15.3684C53.0309 15.8596 53.7666 16.5474 54.299 17.4316C54.8314 18.3158 55.0977 19.3193 55.0977 20.4421C55.0977 21.5649 54.8314 22.5684 54.299 23.4526C53.7666 24.3368 53.0309 25.0316 52.0921 25.5368C51.1533 26.028 50.0884 26.2737 48.8974 26.2737ZM48.8974 23.5789C49.7381 23.5789 50.4247 23.2983 50.9571 22.7368C51.5036 22.1614 51.7768 21.3964 51.7768 20.4421C51.7768 19.4877 51.5036 18.7298 50.9571 18.1684C50.4247 17.593 49.7381 17.3052 48.8974 17.3052C48.0567 17.3052 47.3631 17.593 46.8166 18.1684C46.2702 18.7298 45.9969 19.4877 45.9969 20.4421C45.9969 21.3964 46.2702 22.1614 46.8166 22.7368C47.3631 23.2983 48.0567 23.5789 48.8974 23.5789Z" fill="white"/>
<defs>
<linearGradient id="paint0_linear_4285_10783" x1="33.2082" y1="2.00462" x2="33.2082" y2="47.6006" gradientUnits="userSpaceOnUse">
<stop stop-color="#1C54DB"/>
<stop offset="1" stop-color="#44C5F5"/>
</linearGradient>
</defs>
</svg>
