<svg width="164" height="48" viewBox="0 0 164 48" fill="none" xmlns="http://www.w3.org/2000/svg">
<path d="M72.975 14.2963L76.9731 26.4819H80.2412L82.501 18.2597L84.6913 26.4819H87.9768L91.9923 14.2963H88.7242L86.4296 23.1096L84.1177 14.2963H81.0061L78.7115 23.1096L76.3995 14.2963H72.975ZM96.3118 16.9733C93.2175 16.9733 91.1837 18.8854 91.1837 21.7711C91.1837 24.6741 93.2175 26.5862 96.3118 26.5862C99.406 26.5862 101.457 24.6741 101.457 21.7711C101.457 18.8854 99.406 16.9733 96.3118 16.9733ZM96.3118 19.4765C97.5286 19.4765 98.3456 20.4152 98.3456 21.8058C98.3456 23.2139 97.5286 24.1526 96.3118 24.1526C95.1123 24.1526 94.2953 23.2139 94.2953 21.8058C94.2953 20.4152 95.1123 19.4765 96.3118 19.4765ZM106.128 18.6421V17.0776H103.034V26.4819H106.128V21.6842C106.284 20.3804 107.432 19.6155 109.153 19.7894V16.9559C107.832 16.9559 106.771 17.5643 106.128 18.6421ZM116.622 26.4819H120.273L116.761 20.7107L120.203 17.0776H116.692L113.684 20.2587V13.5836H110.59V26.4819H113.684V23.9266L114.64 22.9357L116.622 26.4819ZM127.408 13.5836V18.3118C126.748 17.46 125.774 16.9733 124.557 16.9733C121.967 16.9733 120.246 18.8681 120.246 21.7363C120.246 24.6567 121.985 26.6036 124.627 26.6036C125.809 26.6036 126.765 26.1343 127.408 25.2651V26.4819H130.502V13.5836H127.408ZM125.392 24.17C124.175 24.17 123.358 23.2139 123.358 21.8232C123.358 20.4326 124.175 19.4765 125.392 19.4765C126.591 19.4765 127.408 20.4152 127.408 21.8232C127.408 23.2139 126.591 24.17 125.392 24.17ZM137.082 16.9733C134.145 16.9733 132.18 18.9028 132.18 21.8232C132.18 24.6915 134.075 26.5862 137.152 26.5862C138.89 26.5862 140.298 25.9952 141.254 24.9174L139.638 23.3008C139.012 23.9266 138.23 24.2569 137.43 24.2569C136.37 24.2569 135.587 23.6658 135.292 22.6055H141.828C142.037 19.181 140.368 16.9733 137.082 16.9733ZM135.222 20.9541C135.431 19.8763 136.092 19.1462 137.1 19.1462C138.143 19.1462 138.838 19.8763 138.838 20.9541H135.222ZM149.695 20.0501L150.738 18.0337C149.556 17.321 148.182 16.9385 146.826 16.9385C144.619 16.9385 142.967 18.0163 142.967 19.9806C142.967 23.2313 147.817 22.5881 147.817 23.8744C147.817 24.2569 147.4 24.4481 146.826 24.4481C145.783 24.4481 144.567 24.0309 143.489 23.2834L142.515 25.2825C143.663 26.169 145.175 26.621 146.757 26.621C149.051 26.621 150.738 25.5259 150.738 23.5963C150.755 20.3283 145.818 20.9193 145.818 19.6851C145.818 19.2853 146.183 19.094 146.705 19.094C147.47 19.094 148.53 19.4417 149.695 20.0501ZM158.518 26.4819H162.169L158.658 20.7107L162.099 17.0776H158.588L155.581 20.2587V13.5836H152.486V26.4819H155.581V23.9266L156.537 22.9357L158.518 26.4819Z" fill="#1E58DD"/>
<path fill-rule="evenodd" clip-rule="evenodd" d="M19.7568 0C8.84539 0 0 8.86004 0 19.7895C0 27.8431 4.80296 34.7731 11.6963 37.8624L12.3966 47.8167L24.5751 39.5789H46.6596C57.5709 39.5789 66.4163 30.7189 66.4163 19.7895C66.4163 8.86004 57.5709 0 46.6596 0H19.7568Z" fill="url(#paint0_linear_4285_10791)"/>
<path d="M27.0078 11.3684V26.1052H24.2125L16.8773 17.1579V26.1052H13.5144V11.3684H16.3308L23.645 20.3158V11.3684H27.0078ZM41.3339 20.4842C41.3339 20.5263 41.3129 20.821 41.2709 21.3684H32.7166C32.8708 22.0701 33.2351 22.6246 33.8095 23.0316C34.3841 23.4386 35.0987 23.6421 35.9534 23.6421C36.5419 23.6421 37.0603 23.5579 37.5087 23.3895C37.9711 23.207 38.3985 22.9263 38.7908 22.5474L40.5353 24.4421C39.4704 25.6631 37.9151 26.2737 35.8693 26.2737C34.5943 26.2737 33.4663 26.028 32.4854 25.5368C31.5046 25.0316 30.748 24.3368 30.2155 23.4526C29.6831 22.5684 29.4168 21.5649 29.4168 20.4421C29.4168 19.3333 29.6761 18.3368 30.1945 17.4526C30.727 16.5543 31.4486 15.8596 32.3593 15.3684C33.2841 14.8631 34.314 14.6105 35.4489 14.6105C36.5559 14.6105 37.5578 14.8491 38.4545 15.3263C39.3513 15.8035 40.0518 16.4912 40.5563 17.3895C41.0747 18.2737 41.3339 19.3053 41.3339 20.4842ZM35.47 17.0947C34.7274 17.0947 34.1038 17.3052 33.5994 17.7263C33.0949 18.1474 32.7867 18.7228 32.6746 19.4526H38.2443C38.1322 18.7368 37.824 18.1684 37.3195 17.7474C36.8151 17.3122 36.1986 17.0947 35.47 17.0947ZM48.8974 26.2737C47.7064 26.2737 46.6345 26.028 45.6817 25.5368C44.7428 25.0316 44.0072 24.3368 43.4748 23.4526C42.9424 22.5684 42.6761 21.5649 42.6761 20.4421C42.6761 19.3193 42.9424 18.3158 43.4748 17.4316C44.0072 16.5474 44.7428 15.8596 45.6817 15.3684C46.6345 14.8631 47.7064 14.6105 48.8974 14.6105C50.0884 14.6105 51.1533 14.8631 52.0921 15.3684C53.0309 15.8596 53.7666 16.5474 54.299 17.4316C54.8314 18.3158 55.0977 19.3193 55.0977 20.4421C55.0977 21.5649 54.8314 22.5684 54.299 23.4526C53.7666 24.3368 53.0309 25.0316 52.0921 25.5368C51.1533 26.028 50.0884 26.2737 48.8974 26.2737ZM48.8974 23.5789C49.7381 23.5789 50.4247 23.2983 50.9571 22.7368C51.5036 22.1614 51.7768 21.3964 51.7768 20.4421C51.7768 19.4877 51.5036 18.7298 50.9571 18.1684C50.4247 17.593 49.7381 17.3052 48.8974 17.3052C48.0567 17.3052 47.3631 17.593 46.8166 18.1684C46.2702 18.7298 45.9969 19.4877 45.9969 20.4421C45.9969 21.3964 46.2702 22.1614 46.8166 22.7368C47.3631 23.2983 48.0567 23.5789 48.8974 23.5789Z" fill="white"/>
<defs>
<linearGradient id="paint0_linear_4285_10791" x1="33.2082" y1="2.00462" x2="33.2082" y2="47.6006" gradientUnits="userSpaceOnUse">
<stop stop-color="#1C54DB"/>
<stop offset="1" stop-color="#44C5F5"/>
</linearGradient>
</defs>
</svg>
