<svg width="23" height="23" viewBox="0 0 23 23" fill="none" xmlns="http://www.w3.org/2000/svg">
<path d="M12.1769 14.4273C11.7561 14.4091 11.3317 14.4358 10.9108 14.4208C9.27042 14.3622 7.98809 12.985 8.04664 11.3446C8.10519 9.70419 9.48244 8.42186 11.1228 8.48041C11.2215 8.48393 11.3189 8.49223 11.4148 8.50507C11.7758 8.55341 12.1484 8.55575 12.5124 8.56874C14.7638 8.6491 16.6541 6.88913 16.7344 4.63774C16.8148 2.38635 15.0548 0.496089 12.8034 0.415732C10.552 0.335375 8.66178 2.09535 8.58142 4.34674C8.57074 4.64614 8.5926 4.93915 8.64383 5.22237C8.81143 6.14889 8.58348 7.23879 7.74732 7.67167C7.17593 7.96747 6.49234 7.85217 5.91817 7.5618C5.40751 7.30354 4.83408 7.14917 4.22465 7.12742C1.97326 7.04706 0.0830029 8.80703 0.00264578 11.0584C-0.0777114 13.3098 1.68226 15.2001 3.93365 15.2804C4.51361 15.3011 5.0696 15.1997 5.57687 14.9992C6.17541 14.7627 6.86442 14.7033 7.41341 15.0392C8.2228 15.5344 8.38076 16.6412 8.16241 17.5646C8.10164 17.8216 8.06506 18.0883 8.05528 18.3623C7.97493 20.6136 9.7349 22.5039 11.9863 22.5843C14.2377 22.6646 16.1279 20.9046 16.2083 18.6533C16.2887 16.4019 14.5287 14.5116 12.2773 14.4312C12.2439 14.4301 12.2104 14.4287 12.1769 14.4273Z" fill="white"/>
<path d="M17.9572 7.6435C20.0871 7.07281 22.2763 8.33676 22.847 10.4666C23.4177 12.5965 22.1537 14.7857 20.0239 15.3564C17.894 15.9271 15.7048 14.6631 15.1341 12.5333C14.5634 10.4034 15.8274 8.21419 17.9572 7.6435Z" fill="white"/>
</svg>
