<svg width="122" height="23" viewBox="0 0 122 23" fill="none" xmlns="http://www.w3.org/2000/svg">
<path d="M12.1769 14.4273C11.7561 14.4091 11.3317 14.4358 10.9108 14.4208C9.27042 14.3622 7.98809 12.985 8.04664 11.3446C8.10519 9.70419 9.48244 8.42186 11.1228 8.48041C11.2215 8.48393 11.3189 8.49223 11.4148 8.50507C11.7758 8.55341 12.1484 8.55575 12.5124 8.56874C14.7638 8.6491 16.6541 6.88913 16.7344 4.63774C16.8148 2.38635 15.0548 0.496089 12.8034 0.415732C10.552 0.335375 8.66178 2.09535 8.58142 4.34674C8.57074 4.64614 8.5926 4.93915 8.64383 5.22237C8.81143 6.14889 8.58348 7.23879 7.74732 7.67167C7.17593 7.96747 6.49234 7.85217 5.91817 7.5618C5.40751 7.30354 4.83408 7.14917 4.22465 7.12742C1.97326 7.04706 0.0830029 8.80703 0.00264578 11.0584C-0.0777114 13.3098 1.68226 15.2001 3.93365 15.2804C4.51361 15.3011 5.0696 15.1997 5.57687 14.9992C6.17541 14.7627 6.86442 14.7033 7.41341 15.0392C8.2228 15.5344 8.38076 16.6412 8.16241 17.5646C8.10164 17.8216 8.06506 18.0883 8.05528 18.3623C7.97493 20.6136 9.7349 22.5039 11.9863 22.5843C14.2377 22.6646 16.1279 20.9046 16.2083 18.6533C16.2887 16.4019 14.5287 14.5116 12.2773 14.4312C12.2439 14.4301 12.2104 14.4287 12.1769 14.4273Z" fill="white"/>
<path d="M17.9572 7.6435C20.0871 7.07281 22.2763 8.33676 22.847 10.4666C23.4177 12.5965 22.1537 14.7857 20.0239 15.3564C17.894 15.9271 15.7048 14.6631 15.1341 12.5333C14.5634 10.4034 15.8274 8.21419 17.9572 7.6435Z" fill="white"/>
<path d="M41.0305 18.5L37.3359 5.40909H39.8864L42.245 15.0291H42.3665L44.8849 5.40909H47.2053L49.7301 15.0355H49.8452L52.2038 5.40909H54.7543L51.0597 18.5H48.7202L46.0994 9.31463H45.9972L43.37 18.5H41.0305ZM59.2171 18.6918C58.2583 18.6918 57.4273 18.4808 56.7242 18.0589C56.021 17.6371 55.4756 17.0469 55.0878 16.2884C54.7043 15.5298 54.5125 14.6435 54.5125 13.6293C54.5125 12.6151 54.7043 11.7266 55.0878 10.9638C55.4756 10.201 56.021 9.60866 56.7242 9.18679C57.4273 8.76491 58.2583 8.55398 59.2171 8.55398C60.1759 8.55398 61.0068 8.76491 61.71 9.18679C62.4131 9.60866 62.9564 10.201 63.3399 10.9638C63.7277 11.7266 63.9216 12.6151 63.9216 13.6293C63.9216 14.6435 63.7277 15.5298 63.3399 16.2884C62.9564 17.0469 62.4131 17.6371 61.71 18.0589C61.0068 18.4808 60.1759 18.6918 59.2171 18.6918ZM59.2298 16.8381C59.7497 16.8381 60.1844 16.6953 60.5338 16.4098C60.8833 16.12 61.1432 15.7322 61.3137 15.2464C61.4884 14.7607 61.5757 14.2195 61.5757 13.6229C61.5757 13.022 61.4884 12.4787 61.3137 11.9929C61.1432 11.5028 60.8833 11.1129 60.5338 10.8232C60.1844 10.5334 59.7497 10.3885 59.2298 10.3885C58.6972 10.3885 58.254 10.5334 57.9003 10.8232C57.5509 11.1129 57.2888 11.5028 57.1141 11.9929C56.9436 12.4787 56.8584 13.022 56.8584 13.6229C56.8584 14.2195 56.9436 14.7607 57.1141 15.2464C57.2888 15.7322 57.5509 16.12 57.9003 16.4098C58.254 16.6953 58.6972 16.8381 59.2298 16.8381ZM65.5256 18.5V8.68182H67.7692V10.3182H67.8714C68.0504 9.75142 68.3572 9.31463 68.7919 9.00781C69.2308 8.69673 69.7315 8.54119 70.294 8.54119C70.4219 8.54119 70.5646 8.54758 70.7223 8.56037C70.8842 8.56889 71.0185 8.58381 71.125 8.60511V10.7337C71.027 10.6996 70.8714 10.6697 70.6584 10.6442C70.4496 10.6143 70.2472 10.5994 70.0511 10.5994C69.6293 10.5994 69.25 10.6911 68.9133 10.8743C68.581 11.0533 68.3189 11.3026 68.1271 11.6222C67.9354 11.9418 67.8395 12.3104 67.8395 12.728V18.5H65.5256ZM74.4117 15.419L74.4053 12.6257H74.776L78.3044 8.68182H81.0082L76.668 13.5142H76.1886L74.4117 15.419ZM72.3023 18.5V5.40909H74.6162V18.5H72.3023ZM78.4642 18.5L75.2682 14.032L76.8278 12.402L81.232 18.5H78.4642ZM85.4295 18.6726C84.6582 18.6726 83.9678 18.4744 83.3585 18.0781C82.7491 17.6818 82.2676 17.1065 81.9139 16.3523C81.5602 15.598 81.3833 14.6818 81.3833 13.6037C81.3833 12.5128 81.5623 11.5923 81.9203 10.8423C82.2825 10.0881 82.7704 9.51918 83.384 9.13565C83.9977 8.74787 84.6816 8.55398 85.4359 8.55398C86.0112 8.55398 86.4842 8.65199 86.8549 8.84801C87.2257 9.03977 87.5197 9.27202 87.737 9.54474C87.9544 9.81321 88.1227 10.0668 88.242 10.3054H88.3379V5.40909H90.6582V18.5H88.3826V16.9531H88.242C88.1227 17.1918 87.9501 17.4453 87.7242 17.7138C87.4984 17.978 87.2001 18.2038 86.8294 18.3913C86.4586 18.5788 85.992 18.6726 85.4295 18.6726ZM86.0751 16.7741C86.5652 16.7741 86.9828 16.642 87.3279 16.3778C87.6731 16.1094 87.9352 15.7365 88.1142 15.2592C88.2931 14.782 88.3826 14.2259 88.3826 13.5909C88.3826 12.956 88.2931 12.4041 88.1142 11.9354C87.9394 11.4666 87.6795 11.1023 87.3343 10.8423C86.9934 10.5824 86.5737 10.4524 86.0751 10.4524C85.5595 10.4524 85.1291 10.5866 84.7839 10.8551C84.4387 11.1236 84.1788 11.4943 84.0041 11.9673C83.8294 12.4403 83.742 12.9815 83.742 13.5909C83.742 14.2045 83.8294 14.7521 84.0041 15.2337C84.183 15.7109 84.4451 16.0881 84.7903 16.3651C85.1397 16.6378 85.568 16.7741 86.0751 16.7741ZM97.1105 18.6918C96.1261 18.6918 95.276 18.4872 94.5601 18.0781C93.8484 17.6648 93.3009 17.081 92.9173 16.3267C92.5338 15.5682 92.342 14.6754 92.342 13.6484C92.342 12.6385 92.5338 11.7521 92.9173 10.9893C93.3051 10.2223 93.8463 9.62571 94.5409 9.19957C95.2355 8.76918 96.0516 8.55398 96.9891 8.55398C97.5942 8.55398 98.1652 8.65199 98.7021 8.84801C99.2433 9.03977 99.7206 9.33807 100.134 9.7429C100.552 10.1477 100.88 10.6634 101.118 11.2898C101.357 11.9119 101.476 12.6534 101.476 13.5142V14.2237H93.4287V12.6641H99.2582C99.254 12.2209 99.1581 11.8267 98.9706 11.4815C98.7831 11.1321 98.521 10.8572 98.1844 10.657C97.852 10.4567 97.4642 10.3565 97.021 10.3565C96.548 10.3565 96.1325 10.4716 95.7746 10.7017C95.4166 10.9276 95.1375 11.2259 94.9372 11.5966C94.7412 11.9631 94.6411 12.3658 94.6368 12.8047V14.1662C94.6368 14.7372 94.7412 15.2273 94.95 15.6364C95.1588 16.0412 95.4507 16.3523 95.8257 16.5696C96.2007 16.7827 96.6396 16.8892 97.1425 16.8892C97.4791 16.8892 97.7838 16.8423 98.0565 16.7486C98.3293 16.6506 98.5658 16.5078 98.7661 16.3203C98.9663 16.1328 99.1176 15.9006 99.2199 15.6236L101.38 15.8665C101.244 16.4375 100.984 16.9361 100.601 17.3622C100.221 17.7841 99.7355 18.1122 99.1432 18.3466C98.5509 18.5767 97.8733 18.6918 97.1105 18.6918ZM110.834 11.277L108.724 11.5071C108.665 11.294 108.56 11.0938 108.411 10.9062C108.266 10.7188 108.07 10.5675 107.823 10.4524C107.576 10.3374 107.273 10.2798 106.915 10.2798C106.434 10.2798 106.029 10.3842 105.701 10.593C105.377 10.8018 105.217 11.0724 105.222 11.4048C105.217 11.6903 105.322 11.9226 105.535 12.1016C105.752 12.2805 106.11 12.4276 106.609 12.5426L108.283 12.9006C109.212 13.1009 109.903 13.4183 110.354 13.853C110.81 14.2876 111.04 14.8565 111.045 15.5597C111.04 16.1776 110.859 16.723 110.501 17.196C110.148 17.6648 109.656 18.0312 109.025 18.2955C108.394 18.5597 107.67 18.6918 106.852 18.6918C105.65 18.6918 104.683 18.4403 103.95 17.9375C103.217 17.4304 102.78 16.7251 102.639 15.8217L104.896 15.6044C104.998 16.0476 105.215 16.3821 105.548 16.608C105.88 16.8338 106.312 16.9467 106.845 16.9467C107.395 16.9467 107.836 16.8338 108.168 16.608C108.505 16.3821 108.673 16.103 108.673 15.7706C108.673 15.4893 108.565 15.2571 108.347 15.0739C108.134 14.8906 107.802 14.75 107.35 14.652L105.675 14.3004C104.734 14.1044 104.037 13.7741 103.585 13.3097C103.133 12.8409 102.91 12.2486 102.914 11.5327C102.91 10.9276 103.074 10.4034 103.406 9.96023C103.743 9.51278 104.209 9.16761 104.806 8.92472C105.407 8.67756 106.099 8.55398 106.883 8.55398C108.034 8.55398 108.94 8.79901 109.6 9.28906C110.265 9.77912 110.676 10.4418 110.834 11.277ZM114.702 15.419L114.696 12.6257H115.066L118.595 8.68182H121.299L116.959 13.5142H116.479L114.702 15.419ZM112.593 18.5V5.40909H114.907V18.5H112.593ZM118.755 18.5L115.559 14.032L117.118 12.402L121.522 18.5H118.755Z" fill="white"/>
</svg>
