<svg width="18" height="18" viewBox="0 0 18 18" fill="none" xmlns="http://www.w3.org/2000/svg">
<circle cx="9" cy="8.99994" r="8.5" fill="#EDEDF6" stroke="#E1E1EA"/>
<path d="M12.2585 12.724V4.0248H5.74141V12.724H12.2585ZM10.251 14.5861V13.9751H7.74892V14.5861H10.251ZM11.473 2.16277C11.9773 2.16277 12.4137 2.34703 12.7822 2.71556C13.1508 3.08409 13.335 3.5205 13.335 4.0248V13.9751C13.335 14.4794 13.1508 14.9158 12.7822 15.2843C12.4137 15.6529 11.9773 15.8371 11.473 15.8371H6.52696C6.02265 15.8371 5.58624 15.6529 5.21771 15.2843C4.84918 14.9158 4.66492 14.4794 4.66492 13.9751V4.0248C4.66492 3.5205 4.84918 3.08409 5.21771 2.71556C5.58624 2.34703 6.02265 2.16277 6.52696 2.16277H11.473Z" fill="#162741"/>
</svg>
