<?xml version="1.0" encoding="utf-8"?>
<!-- Generator: Adobe Illustrator 25.2.0, SVG Export Plug-In . SVG Version: 6.00 Build 0)  -->
<svg version="1.1" id="Layer_1" xmlns="http://www.w3.org/2000/svg" xmlns:xlink="http://www.w3.org/1999/xlink" x="0px" y="0px"
	 viewBox="0 0 31.2 32" style="enable-background:new 0 0 31.2 32;" xml:space="preserve">
<style type="text/css">
	.st0{fill:#292F58;}
</style>
<g transform="translate(-306.127 -291.501)">
	<path class="st0" d="M318,313.7c-2.6-1.1-5.3-1.7-8.1-1.7c-1.1,0-2.3,0.1-3.4,0.3c0.1,0.4,0.2,0.8,0.4,1.2c1-0.1,2-0.2,3-0.2
		c4.7,0,9.2,1.7,12.7,4.7c0.4-0.2,0.8-0.4,1.1-0.7C322.1,315.8,320.1,314.6,318,313.7z"/>
	<path class="st0" d="M336.1,306.7c-5.6-5.6-12.8-9.3-20.6-10.5c-0.9,0.6-1.8,1.2-2.6,1.9c8.5,0.7,16.4,4.5,22.2,10.7
		c0.5-0.7,0.8-1.3,1.1-2.1L336.1,306.7z"/>
	<path class="st0" d="M307.9,315.9c0.2,0.3,0.3,0.7,0.5,1c0.5-0.1,1-0.1,1.6-0.1c3.4,0,6.8,1.1,9.6,3.1c0.3-0.2,0.6-0.4,0.9-0.5
		c-3-2.4-6.7-3.6-10.5-3.6C309.3,315.8,308.6,315.8,307.9,315.9z"/>
	<path class="st0" d="M310,308.3c-1.3,0-2.6,0.1-3.8,0.3c0,0.5,0,1,0.1,1.5c1.3-0.2,2.5-0.3,3.8-0.3c5.9,0,11.7,2.3,16,6.4l1.4-0.8
		c-2.2-2.2-4.8-4-7.7-5.2C316.5,309,313.3,308.3,310,308.3z"/>
	<path class="st0" d="M313.2,323.5l0.8-0.5c-0.6-0.2-1.2-0.4-1.8-0.6C312.6,322.8,312.9,323.2,313.2,323.5z"/>
	<path class="st0" d="M309.8,319.2c0.2,0.3,0.4,0.6,0.6,0.9c2.1,0.1,4.1,0.6,5.9,1.7l0.9-0.5c-2.2-1.3-4.7-2-7.2-2L309.8,319.2z"/>
	<path class="st0" d="M336.9,298.1c-0.5-1.9-1.5-3.6-2.9-4.9c-1.7-1.5-4.6-2.2-8.3-1.5C329.7,293.4,333.4,295.5,336.9,298.1z"/>
	<path class="st0" d="M334,310.5c-0.3-0.3-0.5-0.5-0.8-0.8c-3-3-6.6-5.4-10.5-7c-3.7-1.6-7.8-2.5-11.9-2.6c-0.6,0.5-1.1,1-1.7,1.6
		c-0.2,0.1-0.3,0.3-0.4,0.5h1.1c8.6,0,16.7,3.5,22.6,9.8L334,310.5z"/>
	<path class="st0" d="M322,292.9c-1.2,0.5-2.3,1-3.4,1.6c6.9,1.5,13.3,5,18.5,9.9c0.2-1,0.3-2,0.3-3c-3.3-2.9-7.1-5.3-11.2-7.1
		C324.8,293.8,323.4,293.3,322,292.9z"/>
	<path class="st0" d="M330.3,312.6c-5.3-5.4-12.7-8.5-20.3-8.4c-0.9,0-1.9,0.1-2.8,0.2c-0.3,0.6-0.5,1.2-0.7,1.8
		c1.2-0.1,2.3-0.2,3.5-0.2c7.3,0,14.4,3,19.4,8.3c0.5-0.3,1-0.7,1.5-1C330.6,313,330.5,312.8,330.3,312.6z"/>
</g>
</svg>
