<?xml version="1.0" encoding="utf-8"?>
<!-- Generator: Adobe Illustrator 25.2.0, SVG Export Plug-In . SVG Version: 6.00 Build 0)  -->
<svg version="1.1" id="Layer_1" xmlns="http://www.w3.org/2000/svg" xmlns:xlink="http://www.w3.org/1999/xlink" x="0px" y="0px"
	 viewBox="0 0 23.9 30" style="enable-background:new 0 0 23.9 30;" xml:space="preserve">
<style type="text/css">
	.st0{fill:#292F58;}
</style>
<g>
	<path class="st0" d="M23.9,2.1c0-0.5-0.2-1-0.5-1.4C23,0.2,22.4,0,21.9,0L8.1,0C7.9,0,7.7,0,7.5,0.2L0.3,7.4L0.2,7.5
		C0.1,7.7,0,8,0,8.2V28c0,1.1,0.9,2,2,2h19.9c1.1,0,2-0.9,2-2L23.9,2.1z M2.4,27.6V9.5h4.9c1.2,0,2.2-0.9,2.2-2.1c0,0,0,0,0-0.1
		l0-4.8h12v25.1H2.4z"/>
	<path class="st0" d="M17.6,14.4H6.3c-0.7,0-1.2,0.5-1.2,1.2c0,0.7,0.5,1.2,1.2,1.2h11.4c0.7,0,1.2-0.5,1.2-1.2S18.3,14.4,17.6,14.4
		z"/>
	<path class="st0" d="M17.7,19.9C17.7,19.9,17.6,19.9,17.7,19.9H9.1c-0.7,0-1.2,0.5-1.2,1.2s0.5,1.2,1.2,1.2h8.5
		c0.7,0,1.2-0.5,1.2-1.2C18.8,20.4,18.3,19.9,17.7,19.9z"/>
</g>
</svg>
