<svg width="22" height="20" viewBox="0 0 22 20" fill="none" xmlns="http://www.w3.org/2000/svg">
<rect x="1" y="1" width="7" height="6" rx="1" stroke="#162741" stroke-width="1.4" stroke-linecap="round"/>
<rect x="14" y="12.9443" width="7" height="6" rx="1" stroke="#162741" stroke-width="1.4" stroke-linecap="round"/>
<path d="M11 17C7.13401 17 4 13.866 4 10C4 8.98315 4.21682 8.01694 4.60674 7.14508M11 3C14.866 3 18 6.13401 18 10C18 11.0211 17.7814 11.991 17.3884 12.8657" stroke="#162741" stroke-width="1.4" stroke-linecap="round"/>
<path d="M12.25 1L10.7637 2.41135C10.3485 2.80563 10.3485 3.46738 10.7637 3.86166L12.25 5.27301" stroke="#162741" stroke-width="1.4" stroke-linecap="round"/>
<path d="M10 19.2734L11.4863 17.8621C11.9015 17.4678 11.9015 16.8061 11.4863 16.4118L10 15.0004" stroke="#162741" stroke-width="1.4" stroke-linecap="round"/>
</svg>
