<svg width="16" height="16" viewBox="0 0 16 16" fill="none" xmlns="http://www.w3.org/2000/svg">
<circle cx="8" cy="8" r="7.5" fill="#EDEDF6" stroke="#E1E1EA"/>
<path d="M7.89605 7.97852C7.89605 8.39648 7.82379 8.76367 7.67926 9.08008C7.53473 9.39453 7.3277 9.63672 7.05816 9.80664C6.79059 9.97461 6.48199 10.0586 6.13238 10.0586C5.78668 10.0586 5.47809 9.97461 5.2066 9.80664C4.93707 9.63672 4.72809 9.39551 4.57965 9.08301C4.43316 8.77051 4.35895 8.41016 4.35699 8.00195V7.76172C4.35699 7.3457 4.43023 6.97852 4.57672 6.66016C4.72516 6.3418 4.93316 6.09863 5.20074 5.93066C5.47027 5.76074 5.77887 5.67578 6.12652 5.67578C6.47418 5.67578 6.7818 5.75977 7.04938 5.92773C7.31891 6.09375 7.52691 6.33398 7.6734 6.64844C7.81988 6.96094 7.8941 7.3252 7.89605 7.74121V7.97852ZM7.15484 7.75586C7.15484 7.2832 7.065 6.9209 6.88531 6.66895C6.70758 6.41699 6.45465 6.29102 6.12652 6.29102C5.80621 6.29102 5.55523 6.41699 5.37359 6.66895C5.19391 6.91895 5.10211 7.27344 5.0982 7.73242V7.97852C5.0982 8.44727 5.18902 8.80957 5.37066 9.06543C5.55426 9.32129 5.80816 9.44922 6.13238 9.44922C6.46051 9.44922 6.71246 9.32422 6.88824 9.07422C7.06598 8.82422 7.15484 8.45898 7.15484 7.97852V7.75586ZM10.9838 8.90137C10.9838 8.71387 10.9174 8.56934 10.7846 8.46777C10.6537 8.36621 10.4164 8.26367 10.0727 8.16016C9.72894 8.05664 9.45551 7.94141 9.25238 7.81445C8.86371 7.57031 8.66937 7.25195 8.66937 6.85938C8.66937 6.51562 8.80902 6.23242 9.08832 6.00977C9.36957 5.78711 9.73383 5.67578 10.1811 5.67578C10.478 5.67578 10.7426 5.73047 10.975 5.83984C11.2075 5.94922 11.3901 6.10547 11.5229 6.30859C11.6557 6.50977 11.7221 6.7334 11.7221 6.97949H10.9838C10.9838 6.75684 10.9135 6.58301 10.7729 6.45801C10.6342 6.33105 10.435 6.26758 10.1752 6.26758C9.93305 6.26758 9.74457 6.31934 9.6098 6.42285C9.47699 6.52637 9.41059 6.6709 9.41059 6.85645C9.41059 7.0127 9.48285 7.14355 9.62738 7.24902C9.77191 7.35254 10.0102 7.4541 10.3422 7.55371C10.6743 7.65137 10.9409 7.76367 11.142 7.89062C11.3432 8.01562 11.4907 8.16016 11.5844 8.32422C11.6782 8.48633 11.725 8.67676 11.725 8.89551C11.725 9.25098 11.5883 9.53418 11.3149 9.74512C11.0434 9.9541 10.6743 10.0586 10.2075 10.0586C9.89887 10.0586 9.61469 10.002 9.35492 9.88867C9.09711 9.77344 8.89594 9.61523 8.75141 9.41406C8.60883 9.21289 8.53754 8.97852 8.53754 8.71094H9.27875C9.27875 8.95312 9.35883 9.14062 9.51898 9.27344C9.67914 9.40625 9.90863 9.47266 10.2075 9.47266C10.4653 9.47266 10.6586 9.4209 10.7875 9.31738C10.9184 9.21191 10.9838 9.07324 10.9838 8.90137Z" fill="#979EAE"/>
</svg>
