<svg width="18" height="18" viewBox="0 0 18 18" fill="none" xmlns="http://www.w3.org/2000/svg">
<circle cx="9" cy="8.99994" r="8.5" fill="#EDEDF6" stroke="#E1E1EA"/>
<circle cx="9" cy="9" r="6.55455" stroke="#162741" stroke-width="0.890909"/>
<path d="M12.5545 9C12.5545 10.8698 12.1205 12.5408 11.4417 13.7287C10.7556 14.9293 9.87573 15.5545 9 15.5545C8.12427 15.5545 7.24438 14.9293 6.55834 13.7287C5.87949 12.5408 5.44545 10.8698 5.44545 9C5.44545 7.13016 5.87949 5.45924 6.55834 4.27126C7.24438 3.07067 8.12427 2.44545 9 2.44545C9.87573 2.44545 10.7556 3.07067 11.4417 4.27126C12.1205 5.45924 12.5545 7.13016 12.5545 9Z" stroke="#162741" stroke-width="0.890909"/>
<path d="M14.409 5.29249C13.1252 6.00204 11.1788 6.45454 8.99991 6.45454C6.82102 6.45454 4.87465 6.00204 3.59082 5.29249" stroke="#162741" stroke-width="0.890909"/>
<path d="M3.591 12.7075C4.87483 11.998 6.8212 11.5455 9.00009 11.5455C11.179 11.5455 13.1254 11.998 14.4092 12.7075" stroke="#162741" stroke-width="0.890909"/>
<path d="M2.5 9H15.5" stroke="#162741" stroke-width="0.890909"/>
<path d="M9 2.5L9 15.5" stroke="#162741" stroke-width="0.890909"/>
</svg>
