<svg width="23" height="21" viewBox="0 0 23 21" fill="none" xmlns="http://www.w3.org/2000/svg">
<path fill-rule="evenodd" clip-rule="evenodd" d="M4.78748 7.39563C4.78748 3.68861 7.79261 0.683472 11.4996 0.683472C15.2067 0.683472 18.2118 3.68861 18.2118 7.39563C18.2118 11.1026 15.2067 14.1078 11.4996 14.1078C7.79261 14.1078 4.78748 11.1026 4.78748 7.39563ZM4.11814 10.9195C2.33877 10.9195 0.896301 9.47699 0.896301 7.69762C0.896301 5.91825 2.33877 4.47579 4.11814 4.47579L4.11814 10.9195ZM18.8833 4.17385C20.6627 4.17385 22.1051 5.61631 22.1051 7.39568C22.1051 8.58799 21.4575 9.62903 20.4948 10.1862V14.9132C20.4948 17.1375 18.6917 18.9405 16.4675 18.9405H15.2921C14.9033 19.7543 14.0726 20.3165 13.1106 20.3165H9.88875C8.55422 20.3165 7.47237 19.2347 7.47237 17.9001C7.47237 16.5656 8.55422 15.4838 9.88875 15.4838H13.1106C14.2486 15.4838 15.2028 16.2704 15.4592 17.3296H16.4675C17.802 17.3296 18.8839 16.2478 18.8839 14.9132V10.6175H18.8833V4.17385Z" fill="white"/>
</svg>
