<svg id="Layer_1" enable-background="new 0 0 512.039 512.039" height="512" viewBox="0 0 512.039 512.039" width="512" xmlns="http://www.w3.org/2000/svg" xmlns:xlink="http://www.w3.org/1999/xlink"><linearGradient id="SVGID_1_" gradientUnits="userSpaceOnUse" x1="0" x2="512.039" y1="256.019" y2="256.019"><stop offset="0" stop-color="#87f1fc"/><stop offset=".2557" stop-color="#7fd4fb"/><stop offset=".5295" stop-color="#78bcfb"/><stop offset=".7844" stop-color="#74aefa"/><stop offset="1" stop-color="#73a9fa"/></linearGradient><path d="m256.02.008c-141.396 0-256.02 114.624-256.02 256.019 0 68.38 26.629 132.667 74.98 181.02 46.872 46.872 121.302 74.979 180.214 74.979 6.337 0 23.791-.765 35.072-2.275 10.774-1.442 18.767-11.151 17.625-21.96-1.19-11.265-11.43-19.248-22.579-17.733-3.414.463-6.855.844-10.312 1.145v-427.046c35.341 14.605 66.706 66.724 80.065 136.625 2.073 10.849 12.548 17.96 23.399 15.89 10.849-2.073 17.963-12.55 15.89-23.399-8.246-43.146-22.672-81.052-41.975-110.527 70.718 35.407 119.426 108.5 119.62 192.777 1.013 26.952 38.728 27.308 40.001.505v-.039c0-141.375-114.606-255.981-255.98-255.981zm-99.396 64.267c-30.264 48.503-44.822 105.36-48.195 171.753h-67.511c6.897-74.782 52.077-138.643 115.706-171.753zm-115.706 211.752h67.511c3.378 66.411 17.925 123.232 48.195 171.753-63.629-33.11-108.809-96.971-115.706-171.753zm194.082 191.82c-59.767-28.979-82.755-120.423-86.534-191.819h86.534zm0-231.819h-86.534c3.758-71.313 26.779-162.878 86.534-191.82zm273.922 146.769c-6.11 14.959-19.855 24.621-35.872 25.217-.248.009-.495.014-.743.014h-18.5l36.218 75.334c4.786 9.955.596 21.905-9.359 26.691-9.733 4.743-21.89.697-26.691-9.359l-50-104c-2.979-6.197-2.566-13.491 1.094-19.312 3.661-5.821 10.055-9.354 16.931-9.354h49.685c.168-.184.327-.613.318-.855l-105.406-95.097c-.049-.034-.082-.052-.094-.057-.111-.022-.371.108-.495.219-.004.035-.008.089-.008.163v149.276c0 .541.834 1.215 1.28 1.353 26.341 1.396 26.062 38.975-.277 39.998h-.134c-22.153-.146-40.869-19.082-40.869-41.351v-149.276c0-15.846 8.938-29.851 23.327-36.55 14.432-6.722 30.963-4.533 43.141 5.708.178.149 108.097 97.536 108.458 97.917 11.071 11.693 14.135 28.293 7.996 43.321z" fill="url(#SVGID_1_)"/></svg>