<svg width="20" height="19" viewBox="0 0 20 19" fill="none" xmlns="http://www.w3.org/2000/svg">
<path d="M19 1L13.4615 7L11 4.33333" stroke="#76CB09" stroke-width="1.4" stroke-linecap="round"/>
<path fill-rule="evenodd" clip-rule="evenodd" d="M0.14954 6.17658C-0.207865 5.28307 0.091596 4.261 0.874687 3.70165L2.5677 2.49236C3.61909 1.74137 5.05932 1.86056 5.97294 2.77418L7.265 4.06624C8.0224 4.82365 8.16713 5.99933 7.61604 6.91782C7.15041 7.69388 7.2727 8.68725 7.91265 9.32721L9.67279 11.0873C10.3127 11.7273 11.3061 11.8496 12.0822 11.384C13.0007 10.8329 14.1764 10.9776 14.9338 11.735L16.2258 13.0271C17.1394 13.9407 17.2586 15.3809 16.5076 16.4323L15.2983 18.1253C14.739 18.9084 13.7169 19.2079 12.8234 18.8505L11.9191 18.4887C9.34419 17.4588 7.00536 15.9166 5.0444 13.9556C3.08345 11.9946 1.54123 9.65581 0.511289 7.08095L0.14954 6.17658Z" fill="#76CB09"/>
</svg>
