<svg width="25" height="27" viewBox="0 0 25 27" fill="none" xmlns="http://www.w3.org/2000/svg">
<path d="M14.0001 1.41421L16.8285 1.41421L16.8285 4.24264" stroke="#FF155A" stroke-width="1.4" stroke-linecap="round"/>
<path d="M8 2L12 6L16 2" stroke="#FF155A" stroke-width="1.4" stroke-linecap="round"/>
<path fill-rule="evenodd" clip-rule="evenodd" d="M20.9827 11.173C21.8673 11.552 22.3782 12.4865 22.22 13.4358L21.878 15.488C21.6655 16.7625 20.5629 17.6966 19.2708 17.6966L17.4436 17.6966C16.3724 17.6966 15.4388 16.9676 15.179 15.9284C14.9595 15.0504 14.1706 14.4345 13.2655 14.4345L10.7763 14.4345C9.87129 14.4345 9.0824 15.0504 8.86289 15.9284C8.60311 16.9676 7.66943 17.6966 6.5983 17.6966L4.77106 17.6966C3.479 17.6966 2.37632 16.7625 2.16391 15.488L1.82186 13.4358C1.66366 12.4865 2.17461 11.552 3.05914 11.173L3.95443 10.7893C6.50341 9.69685 9.24772 9.13356 12.0209 9.13356C14.7941 9.13356 17.5385 9.69685 20.0874 10.7893L20.9827 11.173Z" fill="#FF155A"/>
</svg>
