<svg width="17" height="17" viewBox="0 0 17 17" fill="none" xmlns="http://www.w3.org/2000/svg">
<circle cx="8.5" cy="8.5" r="8.5" fill="#1C54DB"/>
<path fill-rule="evenodd" clip-rule="evenodd" d="M4.00435 6.17184C3.8119 5.69072 3.97315 5.14038 4.39481 4.83919L5.30644 4.18803C5.87257 3.78365 6.64808 3.84783 7.14003 4.33978L7.83575 5.0355C8.24358 5.44334 8.32152 6.0764 8.02477 6.57097C7.77405 6.98885 7.8399 7.52374 8.18449 7.86833L9.13225 8.8161C9.47685 9.16069 10.0117 9.22654 10.4296 8.97581C10.9242 8.67907 11.5573 8.75701 11.9651 9.16484L12.6608 9.86056C13.1528 10.3525 13.2169 11.128 12.8126 11.6942L12.1614 12.6058C11.8602 13.0274 11.3099 13.1887 10.8287 12.9962L10.3418 12.8014C8.95532 12.2469 7.69595 11.4164 6.64005 10.3605C5.58415 9.30464 4.75372 8.04527 4.19914 6.65881L4.00435 6.17184Z" fill="white"/>
</svg>
