<svg width="35" height="35" viewBox="0 0 35 35" fill="none" xmlns="http://www.w3.org/2000/svg">
<circle cx="17.5" cy="17.5" r="17.5" fill="white" fill-opacity="0.1"/>
<path d="M25.195 7.20503C25.4683 7.47839 25.4683 7.92161 25.195 8.19497L22.5127 10.8773C22.5127 10.8773 22.5127 10.8772 22.5127 10.8773L21.5204 11.8697C21.5204 11.8697 21.5204 11.8698 21.5204 11.8697L10.8696 22.5203C10.8697 22.5204 10.8696 22.5203 10.8696 22.5203L9.87736 23.5128C9.87733 23.5128 9.8774 23.5128 9.87736 23.5128L8.19497 25.195C7.92161 25.4683 7.47839 25.4683 7.20503 25.195C6.93166 24.9216 6.93166 24.4784 7.20503 24.205L24.205 7.20503C24.4784 6.93166 24.9216 6.93166 25.195 7.20503Z" fill="white"/>
<path fill-rule="evenodd" clip-rule="evenodd" d="M26.49 11.8474C27.6204 11.2823 28.9503 12.1042 28.9503 13.368V20.6319C28.9503 21.8956 27.6204 22.7176 26.49 22.1524L23.7928 20.8038C23.7424 20.7786 23.693 20.7519 23.6446 20.7239C23.2965 22.976 21.3496 24.7 19 24.7H13C12.3158 24.7 11.6656 24.5538 11.0792 24.2909L12.1742 23.1959C12.4381 23.2639 12.7149 23.3 13 23.3H19C20.8226 23.3 22.3 21.8226 22.3 20V14C22.3 13.7149 22.2639 13.4381 22.1959 13.1742L23.2909 12.0792C23.4592 12.4546 23.5797 12.8561 23.6446 13.276C23.693 13.2479 23.7424 13.2213 23.7928 13.196L26.49 11.8474ZM27.5503 13.368C27.5503 13.145 27.3156 12.9999 27.1161 13.0996L24.4189 14.4482C23.9785 14.6685 23.7003 15.1186 23.7003 15.611V18.3889C23.7003 18.8813 23.9785 19.3314 24.4189 19.5516L27.1161 20.9002C27.3156 21 27.5503 20.8549 27.5503 20.6319V13.368Z" fill="white"/>
<path d="M9.70005 19.7303L8.4109 21.0194C8.33832 20.6912 8.30005 20.3501 8.30005 20V14C8.30005 11.4043 10.4043 9.30005 13 9.30005H19C19.3501 9.30005 19.6912 9.33832 20.0194 9.4109L18.7303 10.7H13C11.1775 10.7 9.70005 12.1775 9.70005 14V19.7303Z" fill="white"/>
</svg>