<svg width="22" height="19" viewBox="0 0 22 19" fill="none" xmlns="http://www.w3.org/2000/svg">
<path d="M18.195 0.205025C18.4683 0.478392 18.4683 0.921608 18.195 1.19497L15.5127 3.87726C15.5127 3.87729 15.5127 3.87722 15.5127 3.87726L14.5204 4.86973C14.5204 4.8697 14.5204 4.86977 14.5204 4.86973L3.86963 15.5203C3.86966 15.5204 3.86959 15.5203 3.86963 15.5203L2.87736 16.5128C2.87733 16.5128 2.8774 16.5128 2.87736 16.5128L1.19497 18.195C0.921608 18.4683 0.478392 18.4683 0.205025 18.195C-0.0683417 17.9216 -0.0683417 17.4784 0.205025 17.205L17.205 0.205025C17.4784 -0.0683417 17.9216 -0.0683417 18.195 0.205025Z" fill="white"/>
<path fill-rule="evenodd" clip-rule="evenodd" d="M19.49 4.84744C20.6204 4.28227 21.9503 5.10421 21.9503 6.36796V13.6319C21.9503 14.8956 20.6204 15.7176 19.49 15.1524L16.7928 13.8038C16.7424 13.7786 16.693 13.7519 16.6446 13.7239C16.2965 15.976 14.3496 17.7 12 17.7H6.00005C5.31575 17.7 4.66561 17.5538 4.07917 17.2909L5.17418 16.1959C5.43813 16.2639 5.71486 16.3 6.00005 16.3H12C13.8226 16.3 15.3 14.8226 15.3 13V7.00005C15.3 6.71486 15.2639 6.43813 15.1959 6.17418L16.2909 5.07917C16.4592 5.45459 16.5797 5.85611 16.6446 6.27599C16.693 6.24793 16.7424 6.22126 16.7928 6.19605L19.49 4.84744ZM20.5503 6.36796C20.5503 6.14495 20.3156 5.9999 20.1161 6.09964L17.4189 7.44824C16.9785 7.66845 16.7003 8.1186 16.7003 8.611V11.3889C16.7003 11.8813 16.9785 12.3314 17.4189 12.5516L20.1161 13.9002C20.3156 14 20.5503 13.8549 20.5503 13.6319V6.36796Z" fill="white"/>
<path d="M2.70005 12.7303L1.4109 14.0194C1.33832 13.6912 1.30005 13.3501 1.30005 13V7.00005C1.30005 4.40431 3.40431 2.30005 6.00005 2.30005H12C12.3501 2.30005 12.6912 2.33832 13.0194 2.4109L11.7303 3.70005H6.00005C4.17751 3.70005 2.70005 5.17751 2.70005 7.00005V12.7303Z" fill="white"/>
</svg>
