<svg width="17" height="17" viewBox="0 0 17 17" fill="none" xmlns="http://www.w3.org/2000/svg">
<circle cx="8.5" cy="8.5" r="8.5" fill="#1C54DB"/>
<path d="M6.24161 3.92291C4.84288 3.92291 3.70898 5.05681 3.70898 6.45554V9.70848C3.70898 10.765 4.56543 11.6214 5.62192 11.6214C6.02418 11.6214 6.39765 11.8301 6.60852 12.1726L6.89673 12.6408C7.25445 13.222 8.0992 13.222 8.45693 12.6408L8.56365 12.4675C8.88731 11.9417 9.46054 11.6214 10.078 11.6214H11.5058C12.9045 11.6214 14.0384 10.4875 14.0384 9.08879V6.45554C14.0384 5.05681 12.9045 3.92291 11.5058 3.92291H6.24161Z" fill="white"/>
<path fill-rule="evenodd" clip-rule="evenodd" d="M5.9873 6.83978C5.9873 6.63146 6.15618 6.46259 6.3645 6.46259H11.38C11.5883 6.46259 11.7572 6.63146 11.7572 6.83978C11.7572 7.04811 11.5883 7.21698 11.38 7.21698H6.3645C6.15618 7.21698 5.9873 7.04811 5.9873 6.83978Z" fill="#1C54DB"/>
<path fill-rule="evenodd" clip-rule="evenodd" d="M5.9873 8.53278C5.9873 8.32446 6.15618 8.15558 6.3645 8.15558H9.55619C9.76451 8.15558 9.93339 8.32446 9.93339 8.53278C9.93339 8.7411 9.76451 8.90998 9.55619 8.90998H6.3645C6.15618 8.90998 5.9873 8.7411 5.9873 8.53278Z" fill="#1C54DB"/>
</svg>
