<svg width="21" height="19" viewBox="0 0 21 19" fill="none" xmlns="http://www.w3.org/2000/svg">
<path d="M4.41449 3.22589C4.86576 1.46409 6.46408 0.161743 8.36658 0.161743H16.8459C19.0989 0.161743 20.9254 1.98817 20.9254 4.24117V8.4827C20.9254 10.4379 19.5498 12.0719 17.7136 12.4697C17.7138 12.4514 17.7139 12.4331 17.7139 12.4148V8.17329C17.7139 5.44092 15.4989 3.22589 12.7665 3.22589H4.41449Z" fill="white"/>
<path fill-rule="evenodd" clip-rule="evenodd" d="M4.15408 4.09387C1.90107 4.09387 0.074646 5.9203 0.074646 8.1733V13.413C0.074646 15.1147 1.45418 16.4943 3.15591 16.4943C3.80385 16.4943 4.40542 16.8304 4.74508 17.3821L5.20931 18.1363C5.78552 19.0724 7.14621 19.0724 7.72242 18.1363L7.89431 17.8571C8.41565 17.0101 9.33898 16.4943 10.3335 16.4943H12.6334C14.8864 16.4943 16.7129 14.6678 16.7129 12.4148V8.1733C16.7129 5.9203 14.8864 4.09387 12.6334 4.09387H4.15408ZM3.74673 8.79207C3.74673 8.45652 4.01875 8.1845 4.35431 8.1845H12.4331C12.7686 8.1845 13.0406 8.45652 13.0406 8.79207C13.0406 9.12763 12.7686 9.39965 12.4331 9.39965H4.35431C4.01875 9.39965 3.74673 9.12763 3.74673 8.79207ZM4.35431 10.9113C4.01875 10.9113 3.74673 11.1833 3.74673 11.5189C3.74673 11.8544 4.01875 12.1264 4.35431 12.1264H9.49533C9.83088 12.1264 10.1029 11.8544 10.1029 11.5189C10.1029 11.1833 9.83088 10.9113 9.49533 10.9113H4.35431Z" fill="white"/>
</svg>
