<svg width="25" height="22" viewBox="0 0 25 22" fill="none" xmlns="http://www.w3.org/2000/svg">
<path d="M5 3.53027C5.51991 1.50046 7.36137 0 9.55328 0H19.3225C21.9183 0 24.0225 2.10426 24.0225 4.7V9.58675C24.0225 11.8394 22.4377 13.722 20.3222 14.1802C20.3224 14.1592 20.3226 14.1381 20.3226 14.117V9.23027C20.3226 6.08225 17.7706 3.53027 14.6226 3.53027H5Z" fill="#715DFF"/>
<path fill-rule="evenodd" clip-rule="evenodd" d="M0 9.23027C0 6.63454 2.10426 4.53027 4.7 4.53027H14.4692C17.065 4.53027 19.1692 6.63454 19.1692 9.23027V14.117C19.1692 16.7128 17.065 18.817 14.4692 18.817H11.8194C10.6736 18.817 9.60985 19.4114 9.0092 20.3871L8.81116 20.7088C8.1473 21.7873 6.57962 21.7873 5.91576 20.7089L5.3809 19.84C4.98958 19.2043 4.2965 18.817 3.54999 18.817C1.58939 18.817 0 17.2276 0 15.267V9.23027ZM8.30005 7.9998L8.30005 14.3099L6.49502 12.5049C6.22166 12.2316 5.77844 12.2316 5.50507 12.5049C5.23171 12.7783 5.23171 13.2215 5.50507 13.4949L9.00005 16.9898L12.495 13.4949C12.7684 13.2215 12.7684 12.7783 12.495 12.5049C12.2217 12.2316 11.7784 12.2316 11.5051 12.5049L9.70005 14.3099L9.70005 7.9998C9.70005 7.6132 9.38665 7.2998 9.00005 7.2998C8.61345 7.2998 8.30005 7.6132 8.30005 7.9998Z" fill="#715DFF"/>
</svg>
