<svg width="24" height="24" viewBox="0 0 24 24" fill="none" xmlns="http://www.w3.org/2000/svg">
<path fill-rule="evenodd" clip-rule="evenodd" d="M10.1472 5.20356C10.5802 5.54356 10.8292 6.05056 10.8292 6.59456C10.8292 10.9796 10.9772 12.1596 11.5822 12.6086C11.9792 12.9016 12.5232 12.8986 14.3562 12.8476C15.2082 12.8226 16.2992 12.7906 17.7282 12.7906C18.2982 12.7906 18.8352 13.0346 19.1992 13.4596C19.5372 13.8546 19.6852 14.3706 19.6072 14.8786C18.9392 19.2036 15.2592 22.3446 10.8572 22.3446C5.97324 22.3446 2.00024 18.3716 2.00024 13.4886C2.00024 9.61656 4.92824 5.74456 8.52724 4.85856C9.08924 4.72156 9.69324 4.84956 10.1472 5.20356ZM8.98224 6.30356C8.95024 6.30356 8.91824 6.30756 8.88624 6.31556C5.91624 7.04656 3.50024 10.2646 3.50024 13.4886C3.50024 17.5446 6.80024 20.8446 10.8572 20.8446C14.5142 20.8446 17.5702 18.2396 18.1242 14.6496C18.1282 14.6196 18.1422 14.5326 18.0602 14.4356C17.9822 14.3446 17.8582 14.2906 17.7282 14.2906C16.3172 14.2906 15.2402 14.3226 14.3992 14.3466C12.3632 14.4076 11.5212 14.4306 10.6892 13.8136C9.49955 12.9322 9.34313 11.4505 9.33022 7.2926L9.32924 6.59456C9.32924 6.51056 9.29324 6.44056 9.22124 6.38456C9.15424 6.33156 9.06924 6.30356 8.98224 6.30356ZM20.0506 3.73386C21.8086 5.49086 22.9246 7.79986 22.8926 9.61686C22.8806 10.3259 22.3656 10.9179 21.6696 11.0229C20.3116 11.2279 18.7216 11.2899 17.3146 11.2899C16.0046 11.2899 14.8516 11.2369 14.1886 11.1989C13.3546 11.1499 12.6906 10.4849 12.6426 9.65086C12.5646 8.32886 12.3956 4.96986 12.5156 2.37186C12.5486 1.61686 13.1586 1.01586 13.9046 1.00286C16.0416 0.940864 18.2466 1.93286 20.0506 3.73386ZM14.0326 2.50186H14.0106C13.9006 5.02086 14.0636 8.27486 14.1396 9.56386C14.1436 9.64086 14.1996 9.69686 14.2756 9.70086C15.3036 9.75986 18.8456 9.92386 21.3927 9.54886C21.3986 8.14486 20.4376 6.24086 18.9906 4.79486C17.5066 3.31286 15.7506 2.50186 14.0326 2.50186Z" fill="#616B7B"/>
</svg>
