<svg width="20" height="20" viewBox="0 0 20 20" fill="none" xmlns="http://www.w3.org/2000/svg">
<path fill-rule="evenodd" clip-rule="evenodd" d="M3.2 9C1.43269 9 0 10.4327 0 12.2V15.7C0 17.7435 1.65655 19.4 3.7 19.4H15.7C17.7435 19.4 19.4 17.7435 19.4 15.7V12.2C19.4 10.4327 17.9673 9 16.2 9H15.95C14.3208 9 13 10.3208 13 11.95C13 12.806 12.306 13.5 11.45 13.5H7.95C7.09396 13.5 6.4 12.806 6.4 11.95C6.4 10.3208 5.07924 9 3.45 9H3.2Z" fill="#76CB09"/>
<path d="M6.7 0H10V3.9C10 5.28071 11.1193 6.4 12.5 6.4H16.4V8.00468C16.3337 8.00157 16.267 8 16.2 8H15.95C13.7685 8 12 9.76848 12 11.95C12 12.2538 11.7538 12.5 11.45 12.5H7.95C7.64624 12.5 7.4 12.2538 7.4 11.95C7.4 9.76848 5.63152 8 3.45 8H3.2C3.13295 8 3.06628 8.00157 3 8.00468V3.7C3 1.65655 4.65655 0 6.7 0Z" fill="#76CB09"/>
<path d="M11.4 0.41005L15.9899 5H12.5C11.8925 5 11.4 4.50751 11.4 3.9V0.41005Z" fill="#76CB09"/>
</svg>
