<svg width="20" height="20" viewBox="0 0 20 20" fill="none" xmlns="http://www.w3.org/2000/svg">
<g clip-path="url(#clip0)">
<path d="M19.8646 10.4123C20.0523 10.1552 20.0442 9.80409 19.8442 9.55508C16.8193 5.83622 13.5535 3.95026 10.1327 3.95026C4.33189 3.95026 0.302788 9.35505 0.135419 9.58366C-0.0523606 9.84083 -0.0441963 10.1919 0.15583 10.4409C3.17664 14.1639 6.44238 16.0498 9.86324 16.0498C15.664 16.0498 19.6931 10.645 19.8646 10.4123ZM9.86324 14.6496C7.01388 14.6496 4.238 13.0821 1.60092 9.99596C2.63371 8.77539 5.91578 5.35044 10.1327 5.35044C12.982 5.35044 15.7579 6.918 18.395 10.0041C17.3622 11.2247 14.0801 14.6496 9.86324 14.6496Z" fill="#292F58"/>
<path d="M9.99796 6.44452C8.03852 6.44452 6.44238 8.04065 6.44238 10.0001C6.44238 11.9595 8.03852 13.5557 9.99796 13.5557C11.9574 13.5557 13.5535 11.9595 13.5535 10.0001C13.5535 8.04065 11.9574 6.44452 9.99796 6.44452ZM9.99796 12.1555C8.81005 12.1555 7.84257 11.188 7.84257 10.0001C7.84257 8.81218 8.81005 7.8447 9.99796 7.8447C11.1859 7.8447 12.1534 8.81218 12.1534 10.0001C12.1534 11.188 11.1859 12.1555 9.99796 12.1555Z" fill="#292F58"/>
</g>
<defs>
<clipPath id="clip0">
<rect width="20" height="20" fill="white"/>
</clipPath>
</defs>
</svg>
