<svg width="24" height="18" viewBox="0 0 24 18" fill="none" xmlns="http://www.w3.org/2000/svg">
<path d="M0.830828 9.00541C0.829652 9.0036 0.828481 9.0018 0.827314 9C0.828481 8.9982 0.829652 8.9964 0.830828 8.99459C0.985368 8.75667 1.21484 8.41441 1.51118 8.00264C2.10477 7.17786 2.96208 6.08058 4.01839 4.98612C6.16311 2.76394 8.98738 0.7 12 0.7C15.0126 0.7 17.8369 2.76394 19.9816 4.98612C21.0379 6.08058 21.8952 7.17786 22.4888 8.00264C22.7852 8.41441 23.0146 8.75667 23.1692 8.99459C23.1703 8.9964 23.1715 8.9982 23.1727 9C23.1715 9.0018 23.1703 9.0036 23.1692 9.00541C23.0146 9.24333 22.7852 9.58559 22.4888 9.99736C21.8952 10.8221 21.0379 11.9194 19.9816 13.0139C17.8369 15.2361 15.0126 17.3 12 17.3C8.98738 17.3 6.16311 15.2361 4.01839 13.0139C2.96208 11.9194 2.10477 10.8221 1.51118 9.99736C1.21484 9.58559 0.985368 9.24333 0.830828 9.00541ZM23.3991 8.64098C23.3991 8.641 23.3991 8.64094 23.3991 8.64097L23.3991 8.64098Z" fill="#715DFF" stroke="#715DFF" stroke-width="1.4"/>
<circle cx="12" cy="9" r="4" fill="#EDEDF6" stroke="#EDEDF6" stroke-width="1.4"/>
<circle cx="12" cy="9" r="2.3" fill="#715DFF" stroke="#715DFF" stroke-width="1.4"/>
</svg>
