<svg width="12" height="10" viewBox="0 0 12 10" fill="none" xmlns="http://www.w3.org/2000/svg">
<path d="M5.92969 3.5H6C6.40625 3.5 6.75781 3.64844 7.05469 3.94531C7.35156 4.24219 7.5 4.59375 7.5 5V5.09375L5.92969 3.5ZM3.77344 3.89844C3.58594 4.27344 3.49219 4.64062 3.49219 5C3.49219 5.6875 3.73438 6.28125 4.21875 6.78125C4.71875 7.26562 5.3125 7.50781 6 7.50781C6.35938 7.50781 6.72656 7.41406 7.10156 7.22656L6.32812 6.45312C6.20312 6.48438 6.09375 6.5 6 6.5C5.59375 6.5 5.24219 6.35156 4.94531 6.05469C4.64844 5.75781 4.5 5.40625 4.5 5C4.5 4.90625 4.51562 4.79688 4.54688 4.67188L3.77344 3.89844ZM1.00781 1.13281L1.64062 0.5L10.5 9.35938L9.86719 9.99219C9.78906 9.91406 9.53906 9.67188 9.11719 9.26562C8.71094 8.85938 8.39844 8.54688 8.17969 8.32812C7.50781 8.60938 6.78125 8.75 6 8.75C4.76562 8.75 3.64844 8.40625 2.64844 7.71875C1.64844 7.03125 0.929688 6.125 0.492188 5C0.882812 4.03125 1.50781 3.20312 2.36719 2.51562C2.17969 2.32812 1.91406 2.0625 1.57031 1.71875C1.24219 1.375 1.05469 1.17969 1.00781 1.13281ZM6 2.49219C5.6875 2.49219 5.38281 2.55469 5.08594 2.67969L4.00781 1.60156C4.61719 1.36719 5.28125 1.25 6 1.25C7.23438 1.25 8.34375 1.59375 9.32812 2.28125C10.3281 2.96875 11.0469 3.875 11.4844 5C11.1094 5.92188 10.5391 6.71094 9.77344 7.36719L8.32031 5.91406C8.44531 5.61719 8.50781 5.3125 8.50781 5C8.50781 4.3125 8.25781 3.72656 7.75781 3.24219C7.27344 2.74219 6.6875 2.49219 6 2.49219Z" fill="#7D8696"/>
</svg>
