<svg width="35" height="35" viewBox="0 0 35 35" fill="none" xmlns="http://www.w3.org/2000/svg">
<circle cx="17.5" cy="17.5" r="17.5" fill="white" fill-opacity="0.1"/>
<path d="M26.195 8.49478C26.4683 8.22141 26.4683 7.7782 26.195 7.50483C25.9216 7.23146 25.4784 7.23146 25.205 7.50483L8.20503 24.5048C7.93166 24.7782 7.93166 25.2214 8.20503 25.4948C8.47839 25.7681 8.92161 25.7681 9.19497 25.4948L12.1954 22.4944C12.1953 22.4944 12.1954 22.4944 12.1954 22.4944L13.1927 21.4972C13.1928 21.4972 13.1927 21.4972 13.1927 21.4972L26.195 8.49478Z" fill="white"/>
<path d="M20.7921 15.8777L22.1922 14.4776V15.8487C22.1922 18.436 20.0949 20.5333 17.5076 20.5333C17.0883 20.5333 16.6818 20.4782 16.295 20.3749L17.5366 19.1332C19.3277 19.1177 20.7766 17.6688 20.7921 15.8777Z" fill="white"/>
<path d="M13.1524 17.5777L14.2783 16.4519C14.242 16.2564 14.223 16.0548 14.223 15.8487V11.6846C14.223 9.87057 15.6936 8.4 17.5076 8.4C18.8118 8.4 19.9384 9.16008 20.4687 10.2614L21.4991 9.23106C20.6745 7.8924 19.1953 7 17.5076 7C14.9204 7 12.823 9.09738 12.823 11.6846V15.8487C12.823 16.4594 12.9398 17.0428 13.1524 17.5777Z" fill="white"/>
<path d="M17.5175 22.9564C17.5142 22.9563 17.5109 22.9563 17.5076 22.9563C17.5043 22.9563 17.501 22.9563 17.4977 22.9564C16.3942 22.9549 15.3496 22.7019 14.4182 22.2516L13.3801 23.2898C14.4101 23.8624 15.5715 24.2273 16.8076 24.328V27.2999C16.8076 27.6865 17.121 27.9999 17.5076 27.9999C17.8942 27.9999 18.2076 27.6865 18.2076 27.2999V24.328C22.5789 23.972 26.0154 20.3117 26.0154 15.8487C26.0154 15.4621 25.702 15.1487 25.3154 15.1487C24.9288 15.1487 24.6154 15.4621 24.6154 15.8487C24.6154 19.7709 21.4385 22.9511 17.5175 22.9564Z" fill="white"/>
<path d="M11.3424 19.3878L10.323 20.4071C9.48525 19.0895 9 17.5258 9 15.8487C9 15.4621 9.3134 15.1487 9.7 15.1487C10.0866 15.1487 10.4 15.4621 10.4 15.8487C10.4 17.1372 10.7429 18.3457 11.3424 19.3878Z" fill="white"/>
</svg>