<svg width="19" height="21" viewBox="0 0 19 21" fill="none" xmlns="http://www.w3.org/2000/svg">
<path d="M18.4948 1.49478C18.7681 1.22141 18.7681 0.778197 18.4948 0.50483C18.2214 0.231463 17.7782 0.231463 17.5048 0.50483L0.50483 17.5048C0.231463 17.7782 0.231463 18.2214 0.50483 18.4948C0.778197 18.7681 1.22141 18.7681 1.49478 18.4948L4.49517 15.4944C4.49514 15.4944 4.49521 15.4944 4.49517 15.4944L5.49255 14.4972C5.49259 14.4972 5.49252 14.4972 5.49255 14.4972L18.4948 1.49478Z" fill="white"/>
<path d="M13.0919 8.87775L14.492 7.47762V8.84872C14.492 11.436 12.3947 13.5333 9.80742 13.5333C9.38806 13.5333 8.98156 13.4782 8.59479 13.3749L9.83644 12.1332C11.6275 12.1177 13.0764 10.6688 13.0919 8.87775Z" fill="white"/>
<path d="M5.45221 10.5777L6.57806 9.45189C6.54177 9.25637 6.5228 9.05476 6.5228 8.84872V4.68462C6.5228 2.87057 7.99338 1.4 9.80742 1.4C11.1116 1.4 12.2382 2.16008 12.7685 3.26142L13.7989 2.23106C12.9743 0.892405 11.4951 0 9.80742 0C7.22018 0 5.1228 2.09738 5.1228 4.68462V8.84872C5.1228 9.4594 5.23965 10.0428 5.45221 10.5777Z" fill="white"/>
<path d="M9.81733 15.9564C9.81403 15.9563 9.81073 15.9563 9.80742 15.9563C9.80412 15.9563 9.80082 15.9563 9.79753 15.9564C8.69401 15.9549 7.64944 15.7019 6.71803 15.2516L5.67987 16.2898C6.70992 16.8624 7.87129 17.2273 9.10742 17.328V20.2999C9.10742 20.6865 9.42082 20.9999 9.80742 20.9999C10.194 20.9999 10.5074 20.6865 10.5074 20.2999V17.328C14.8787 16.972 18.3152 13.3117 18.3152 8.84868C18.3152 8.46208 18.0018 8.14868 17.6152 8.14868C17.2286 8.14868 16.9152 8.46208 16.9152 8.84868C16.9152 12.7709 13.7383 15.9511 9.81733 15.9564Z" fill="white"/>
<path d="M3.64218 12.3878L2.62282 13.4071C1.78506 12.0895 1.2998 10.5258 1.2998 8.84868C1.2998 8.46208 1.61321 8.14868 1.9998 8.14868C2.3864 8.14868 2.6998 8.46208 2.6998 8.84868C2.6998 10.1372 3.04268 11.3457 3.64218 12.3878Z" fill="white"/>
</svg>
