<svg width="30" height="30" viewBox="0 0 30 31" fill="none" xmlns="http://www.w3.org/2000/svg">
<path d="M15.4943 17.057C15.5109 17.0573 15.5275 17.0574 15.5442 17.0574C16.9886 17.0574 18.1596 15.8865 18.1596 14.442V14.3918L19.5596 12.9918V14.442C19.5596 16.6597 17.7618 18.4574 15.5442 18.4574C15.1072 18.4574 14.6865 18.3876 14.2926 18.2585L15.4943 17.057Z" fill="white"/>
<path d="M12.9288 14.442C12.9288 14.5616 12.9368 14.6794 12.9524 14.7947L11.8145 15.9325C11.6302 15.4717 11.5288 14.9687 11.5288 14.442V10.8728C11.5288 8.65517 13.3266 6.85742 15.5442 6.85742C16.9939 6.85742 18.2642 7.62569 18.9701 8.7773L17.9355 9.81189C17.5285 8.89608 16.6109 8.25742 15.5442 8.25742C14.0998 8.25742 12.9288 9.42837 12.9288 10.8728V14.442Z" fill="white"/>
<path d="M22.7316 7.41792C23.005 7.69129 23.005 8.1345 22.7316 8.40787L9.34707 21.7922C9.0737 22.0655 8.63049 22.0655 8.35712 21.7922C8.08376 21.5188 8.08376 21.0756 8.35713 20.8022L21.7417 7.41791C22.015 7.14455 22.4582 7.14455 22.7316 7.41792Z" fill="white"/>
<path d="M14.8442 21.8037C13.7237 21.6984 12.6758 21.343 11.7571 20.7939L12.7859 19.7652C13.6022 20.1892 14.5283 20.4309 15.5103 20.4364C15.5216 20.4358 15.5329 20.4355 15.5442 20.4355C15.5556 20.4355 15.5669 20.4358 15.5782 20.4364C18.8721 20.4182 21.5367 17.7423 21.5367 14.4441C21.5367 14.0575 21.8501 13.7441 22.2367 13.7441C22.6233 13.7441 22.9367 14.0575 22.9367 14.4441C22.9367 18.2908 19.9987 21.4512 16.2442 21.8038V24.2586C16.2442 24.6452 15.9308 24.9586 15.5442 24.9586C15.1576 24.9586 14.8442 24.6452 14.8442 24.2586V21.8037Z" fill="white"/>
<path d="M10.3366 17.4104C9.83736 16.5358 9.5521 15.5233 9.5521 14.4441C9.5521 14.0575 9.2387 13.7441 8.8521 13.7441C8.4655 13.7441 8.1521 14.0575 8.1521 14.4441C8.1521 15.9118 8.57981 17.2796 9.31738 18.4296L10.3366 17.4104Z" fill="white"/>
</svg>