<svg width="20" height="20" viewBox="0 0 20 20" fill="none" xmlns="http://www.w3.org/2000/svg">
<path d="M19.8634 9.58006C18.6495 7.98959 17.1915 6.60122 15.5435 5.46652L18.362 2.64798C18.6458 2.37393 18.6537 1.92176 18.3796 1.638C18.1056 1.35424 17.6534 1.34637 17.3696 1.62042C17.3637 1.62615 17.3578 1.63201 17.352 1.638L14.2728 4.71439C12.9621 3.99303 11.4958 3.60083 9.99999 3.57153C4.57147 3.57153 0.315095 9.33434 0.136512 9.58002C-0.0455038 9.83042 -0.0455038 10.1696 0.136512 10.42C1.35048 12.0105 2.80848 13.3988 4.45646 14.5335L1.63792 17.3521C1.35416 17.6261 1.34629 18.0783 1.62034 18.3621C1.89439 18.6458 2.34656 18.6537 2.63032 18.3796C2.63626 18.3739 2.64212 18.368 2.6479 18.3621L5.72713 15.2857C7.03782 16.007 8.50415 16.3992 9.99995 16.4285C15.4285 16.4285 19.6849 10.6657 19.8634 10.42C20.0455 10.1696 20.0455 9.83046 19.8634 9.58006ZM5.49502 13.4971C4.03994 12.528 2.73566 11.3497 1.62436 10C2.67577 8.72648 6.08572 5.00008 9.99999 5.00008C11.1136 5.02259 12.2085 5.29091 13.2064 5.78577L11.9664 7.02577C10.3258 5.93656 8.11279 6.38355 7.02359 8.02416C6.23015 9.21925 6.23015 10.7735 7.02359 11.9686L5.49502 13.4971ZM11.9285 9.08218C12.0683 9.36803 12.1416 9.68184 12.1428 10C12.1428 11.1835 11.1834 12.1429 9.99999 12.1429C9.68179 12.1417 9.36798 12.0684 9.08213 11.9286L11.9285 9.08218ZM8.07144 10.9179C7.93166 10.632 7.85837 10.3182 7.85716 10C7.85716 8.81655 8.81654 7.85717 9.99999 7.85717C10.3182 7.85838 10.632 7.93166 10.9179 8.07145L8.07144 10.9179ZM9.99999 15C8.88635 14.9775 7.79149 14.7091 6.79361 14.2143L8.03361 12.9743C9.67422 14.0635 11.8872 13.6165 12.9764 11.9759C13.7698 10.7808 13.7698 9.22657 12.9764 8.03148L14.505 6.50291C15.96 7.47204 17.2643 8.65043 18.3756 10C17.3242 11.2736 13.9142 15 9.99999 15Z" fill="#292F58"/>
</svg>
