<svg width="16" height="13" viewBox="0 0 16 13" fill="none" xmlns="http://www.w3.org/2000/svg">
<path fill-rule="evenodd" clip-rule="evenodd" d="M12.9291 11.035C12.9291 11.313 12.7038 11.5383 12.4259 11.5383H0.717136C0.439189 11.5383 0.213867 11.313 0.213867 11.035C0.213867 10.7571 0.439189 10.5318 0.717136 10.5318H12.4259C12.7038 10.5318 12.9291 10.7571 12.9291 11.035Z" fill="white"/>
<path fill-rule="evenodd" clip-rule="evenodd" d="M0.831054 3.49531C0.831054 1.62908 2.34393 0.116211 4.21015 0.116211L8.93472 0.116211C10.8009 0.116211 12.3138 1.62908 12.3138 3.49531V5.96045C12.3138 7.82667 10.8009 9.33955 8.93472 9.33955H4.21015C2.34393 9.33955 0.831054 7.82667 0.831054 5.96045V3.49531ZM4.21015 1.12275C2.89982 1.12275 1.83759 2.18498 1.83759 3.49531V5.96045C1.83759 7.27078 2.89982 8.33301 4.21015 8.33301H8.93472C10.245 8.33301 11.3073 7.27078 11.3073 5.96045V3.49531C11.3073 2.18498 10.245 1.12275 8.93472 1.12275H4.21015Z" fill="white"/>
<circle cx="12.0011" cy="9.09732" r="3.28336" fill="#76CB09"/>
</svg>
