<svg width="13" height="14" viewBox="0 0 13 14" fill="none" xmlns="http://www.w3.org/2000/svg">
<path d="M9.18503 3.43582C9.18503 1.94143 7.53182 1.03885 6.27476 1.84696L3.87916 3.38699C3.73247 3.48129 3.56176 3.53143 3.38737 3.53143H2.39915C1.35597 3.53143 0.510298 4.3771 0.510298 5.42029V8.91816C0.510298 9.96134 1.35596 10.807 2.39915 10.807H3.38737C3.56176 10.807 3.73247 10.8572 3.87916 10.9515L6.27476 12.4915C7.53182 13.2996 9.18503 12.397 9.18503 10.9026V3.43582Z" fill="white" stroke="white" stroke-width="0.979405"/>
<path d="M11.4941 4.37109C11.9703 5.19428 12.2429 6.15001 12.2429 7.16939C12.2429 8.18878 11.9703 9.14451 11.4941 9.96769" stroke="white" stroke-width="0.979405" stroke-linecap="round"/>
</svg>
