<svg width="27" height="22" viewBox="0 0 27 22" fill="none" xmlns="http://www.w3.org/2000/svg">
<path d="M16.7042 9.22686C15.7924 9.99915 14.6127 10.4649 13.3242 10.4649C10.4344 10.4649 8.0918 8.12222 8.0918 5.23243C8.0918 2.34264 10.4344 0 13.3242 0C15.2149 0 16.8714 1.00278 17.7908 2.5055C17.7936 2.51007 17.7964 2.51464 17.7991 2.51923C18.2798 3.31035 18.5567 4.23907 18.5567 5.23243C18.5567 6.83375 17.8373 8.26707 16.7042 9.22686Z" fill="#F0AD00"/>
<path d="M20.227 19.9026C21.1245 19.1434 21.6486 18.2282 21.6486 17.2431C21.6486 15.2047 19.4049 13.4658 16.2518 12.7888C15.3411 12.5933 14.3546 12.4863 13.3243 12.4863C8.72693 12.4863 5 14.616 5 17.2431C5 19.8702 8.72693 21.9998 13.3243 21.9998C16.1266 21.9998 18.6054 21.2086 20.114 19.9958C20.1523 19.965 20.1899 19.934 20.227 19.9026Z" fill="#F0AD00"/>
<path d="M19.5567 5.23243C19.5567 7.0765 17.4829 9.8746 17.4829 9.8746C17.4829 9.8746 18.9523 10.5621 19.8106 10.5621C22.175 10.5621 24.0917 8.64545 24.0917 6.28107C24.0917 3.9167 22.175 2 19.8106 2C19.4389 2 19.0783 2.04736 18.7345 2.13638C19.2576 3.04852 19.5567 4.10555 19.5567 5.23243Z" fill="#F0AD00"/>
<path d="M26.6216 16.1077C26.6216 17.8884 24.5288 19.3897 21.6721 19.8525C22.2752 19.1047 22.6486 18.2273 22.6486 17.2431C22.6486 15.4158 21.3616 13.957 19.7066 13.0113C19.2517 12.7514 18.7548 12.5205 18.2236 12.3221C18.7328 12.2526 19.2643 12.2158 19.8108 12.2158C23.5723 12.2158 26.6216 13.9583 26.6216 16.1077Z" fill="#F0AD00"/>
<path d="M7.06487 5.23243C7.06487 7.0765 9.13867 9.8746 9.13867 9.8746C9.13867 9.8746 7.66926 10.5621 6.81091 10.5621C4.44654 10.5621 2.52984 8.64545 2.52984 6.28107C2.52984 3.9167 4.44654 2 6.81091 2C7.18259 2 7.5432 2.04736 7.88704 2.13638C7.36394 3.04852 7.06487 4.10555 7.06487 5.23243Z" fill="#F0AD00"/>
<path d="M-7.15256e-05 16.1077C-7.15256e-05 17.8884 2.09271 19.3897 4.94948 19.8525C4.34629 19.1047 3.97288 18.2273 3.97288 17.2431C3.97288 15.4158 5.25994 13.957 6.91488 13.0113C7.3698 12.7514 7.86674 12.5205 8.39794 12.3221C7.88868 12.2526 7.35722 12.2158 6.81073 12.2158C3.04923 12.2158 -7.15256e-05 13.9583 -7.15256e-05 16.1077Z" fill="#F0AD00"/>
</svg>
