<svg width="22" height="22" viewBox="0 0 22 22" fill="none" xmlns="http://www.w3.org/2000/svg">
<path d="M11.7042 9.22686C10.7924 9.99915 9.6127 10.4649 8.32423 10.4649C5.43444 10.4649 3.0918 8.12222 3.0918 5.23243C3.0918 2.34264 5.43444 0 8.32423 0C10.2149 0 11.8714 1.00278 12.7908 2.5055C12.7936 2.51007 12.7964 2.51464 12.7991 2.51923C13.2798 3.31035 13.5567 4.23907 13.5567 5.23243C13.5567 6.83375 12.8373 8.26707 11.7042 9.22686Z" fill="#715DFF"/>
<path d="M15.227 19.9026C16.1245 19.1434 16.6486 18.2282 16.6486 17.2431C16.6486 15.2047 14.4049 13.4658 11.2518 12.7888C10.3411 12.5933 9.35458 12.4863 8.32432 12.4863C3.72693 12.4863 0 14.616 0 17.2431C0 19.8702 3.72693 21.9998 8.32432 21.9998C11.1266 21.9998 13.6054 21.2086 15.114 19.9958C15.1523 19.965 15.1899 19.934 15.227 19.9026Z" fill="#715DFF"/>
<path d="M14.5567 5.23243C14.5567 7.0765 13.7558 8.73351 12.4829 9.8746C13.1529 10.3095 13.9523 10.5621 14.8106 10.5621C17.175 10.5621 19.0917 8.64545 19.0917 6.28107C19.0917 3.9167 17.175 2 14.8106 2C14.4389 2 14.0783 2.04736 13.7345 2.13638C14.2576 3.04852 14.5567 4.10555 14.5567 5.23243Z" fill="#715DFF"/>
<path d="M21.6216 16.1077C21.6216 17.8884 19.5288 19.3897 16.6721 19.8525C17.2752 19.1047 17.6486 18.2273 17.6486 17.2431C17.6486 15.4158 16.3616 13.957 14.7066 13.0113C14.2517 12.7514 13.7548 12.5205 13.2236 12.3221C13.7328 12.2526 14.2643 12.2158 14.8108 12.2158C18.5723 12.2158 21.6216 13.9583 21.6216 16.1077Z" fill="#715DFF"/>
</svg>
