<svg width="18" height="19" viewBox="0 0 18 19" fill="none" xmlns="http://www.w3.org/2000/svg">
<circle cx="9" cy="9.71432" r="8.5" fill="#EDEDF6" stroke="#E1E1EA"/>
<path d="M4.75838 8.06291C4.75838 7.84133 4.66342 7.65141 4.4735 7.46149C4.28358 7.30323 4.09366 7.20827 3.84043 7.20827C3.58721 7.20827 3.39729 7.30323 3.20737 7.46149C3.01745 7.65141 2.92249 7.84133 2.92249 8.06291V11.7347C2.92249 11.9879 3.01745 12.2095 3.20737 12.3678C3.39729 12.5577 3.61886 12.621 3.87209 12.621C4.12532 12.621 4.31524 12.5577 4.50516 12.3678C4.66342 12.2095 4.75838 11.9879 4.75838 11.7347V8.06291ZM5.07492 13.0325V7.36653H12.925V13.0325C12.925 13.3174 12.83 13.539 12.6401 13.7289C12.4502 13.9188 12.2286 13.9821 11.9754 13.9821H11.3423V15.913C11.3423 16.2928 11.184 16.5777 10.8992 16.7043C10.5826 16.8309 10.2977 16.8309 10.0129 16.7043C9.72797 16.5777 9.60136 16.2928 9.60136 15.913V13.9821H8.39853V15.913C8.39853 16.2928 8.24026 16.546 7.95538 16.6726C7.6705 16.8309 7.38562 16.8309 7.10074 16.7043C6.7842 16.5777 6.65759 16.2928 6.65759 15.913V13.9821H6.02452C5.77129 13.9821 5.54972 13.9188 5.3598 13.7289C5.16988 13.539 5.07492 13.3174 5.07492 13.0325ZM12.925 7.05C12.925 6.41693 12.735 5.81551 12.3869 5.24575C12.007 4.67599 11.5322 4.23284 10.9308 3.91631L11.5322 2.80844C11.5639 2.74513 11.5322 2.68182 11.4689 2.65017C11.4056 2.61852 11.3423 2.61852 11.3423 2.68182L10.7092 3.78969C10.1711 3.56812 9.60136 3.44151 8.99994 3.44151C8.39853 3.44151 7.82877 3.56812 7.29066 3.78969L6.65759 2.68182C6.62594 2.61852 6.56263 2.61852 6.49932 2.65017C6.43602 2.68182 6.40436 2.74513 6.46767 2.80844L7.06909 3.91631C6.43602 4.23284 5.96121 4.67599 5.58137 5.24575C5.20153 5.81551 5.04327 6.41693 5.04327 7.05H12.925ZM7.54389 5.30906C7.54389 5.40402 7.51223 5.46733 7.44893 5.53063C7.38562 5.59394 7.29066 5.62559 7.1957 5.62559C7.10074 5.62559 7.03743 5.59394 6.97412 5.53063C6.91082 5.46733 6.87916 5.40402 6.87916 5.30906C6.87916 5.24575 6.91082 5.15079 6.97412 5.08749C7.03743 5.02418 7.10074 4.96087 7.1957 4.96087C7.29066 4.96087 7.38562 5.02418 7.44893 5.08749C7.51223 5.15079 7.54389 5.24575 7.54389 5.30906ZM11.1207 5.30906C11.1207 5.40402 11.0891 5.46733 11.0258 5.53063C10.9625 5.59394 10.8675 5.62559 10.8042 5.62559C10.7092 5.62559 10.6143 5.59394 10.551 5.53063C10.4877 5.46733 10.456 5.40402 10.456 5.30906C10.456 5.24575 10.4877 5.15079 10.551 5.08749C10.6143 5.02418 10.7092 4.96087 10.8042 4.96087C10.8675 4.96087 10.9625 5.02418 11.0258 5.08749C11.0891 5.15079 11.1207 5.24575 11.1207 5.30906ZM14.1278 7.20827C14.381 7.20827 14.6026 7.30323 14.7925 7.46149C14.9824 7.65141 15.0774 7.84133 15.0774 8.06291V11.7347C15.0774 11.9879 14.9824 12.2095 14.7925 12.3678C14.6026 12.5577 14.381 12.621 14.1278 12.621C13.8746 12.621 13.6847 12.5577 13.4947 12.3678C13.3048 12.2095 13.2415 11.9879 13.2415 11.7347V8.09456C13.2415 7.84133 13.3048 7.65141 13.4947 7.46149C13.6847 7.30323 13.8746 7.20827 14.1278 7.20827Z" fill="#162741"/>
</svg>
