<svg width="24" height="24" viewBox="0 0 24 24" fill="none" xmlns="http://www.w3.org/2000/svg">
<path d="M3 11.5C3 6.25329 7.25329 2 12.5 2C17.7467 2 22 6.25329 22 11.5C22 16.7467 17.7467 21 12.5 21C9.72979 21 7.23651 19.8143 5.5 17.9227" stroke="#616B7B" stroke-width="1.4" stroke-linecap="round"/>
<path d="M12.7 7C12.7 6.6134 12.3866 6.3 12 6.3C11.6134 6.3 11.3 6.6134 11.3 7H12.7ZM12 12.5H11.3V12.888L11.629 13.0936L12 12.5ZM15.629 15.5936C15.9568 15.7985 16.3887 15.6988 16.5936 15.371C16.7985 15.0432 16.6988 14.6113 16.371 14.4064L15.629 15.5936ZM11.3 7V12.5H12.7V7H11.3ZM11.629 13.0936L15.629 15.5936L16.371 14.4064L12.371 11.9064L11.629 13.0936Z" fill="#616B7B"/>
<path d="M1 10L3 13L5 10" stroke="#616B7B" stroke-width="1.4" stroke-linecap="round"/>
</svg>
