<svg width="22" height="22" viewBox="0 0 22 22" fill="none" xmlns="http://www.w3.org/2000/svg">
<circle cx="11" cy="4" r="3.3" stroke="#616B7B" stroke-width="1.4"/>
<circle cx="11" cy="18" r="3.3" stroke="#616B7B" stroke-width="1.4"/>
<path d="M18 14.3C16.1775 14.3 14.7 12.8225 14.7 11C14.7 9.17746 16.1775 7.7 18 7.7C19.8225 7.7 21.3 9.17746 21.3 11C21.3 12.8225 19.8225 14.3 18 14.3Z" stroke="#616B7B" stroke-width="1.4"/>
<path d="M4 14.3C2.17746 14.3 0.7 12.8225 0.7 11C0.7 9.17746 2.17746 7.7 4 7.7C5.82254 7.7 7.3 9.17746 7.3 11C7.3 12.8225 5.82254 14.3 4 14.3Z" stroke="#616B7B" stroke-width="1.4"/>
<path d="M4 7.30743C4.74398 5.89999 5.9 4.74398 7.30743 4M4 14.6926C4.74398 16.1 5.9 17.256 7.30744 18M14.6926 18C16.1 17.256 17.256 16.1 18 14.6926M18 7.30743C17.256 5.89999 16.1 4.74398 14.6926 4" stroke="#616B7B" stroke-width="1.4"/>
</svg>
