<svg width="22" height="22" viewBox="0 0 22 22" fill="none" xmlns="http://www.w3.org/2000/svg">
<path d="M18.4477 5.94571C17.2523 5.94571 16.2833 4.97669 16.2833 3.78135C16.2833 2.58601 17.2523 1.61699 18.4477 1.61699C19.643 1.61699 20.612 2.58601 20.612 3.78135C20.612 4.97669 19.643 5.94571 18.4477 5.94571Z" stroke="#616B7B" stroke-width="1.4"/>
<circle cx="3.78124" cy="18.4481" r="2.16458" transform="rotate(90 3.78124 18.4481)" stroke="#616B7B" stroke-width="1.4"/>
<path d="M15.8 11C15.8 13.651 13.651 15.8 11 15.8C8.34908 15.8 6.20005 13.651 6.20005 11C6.20005 8.34903 8.34908 6.2 11 6.2C13.651 6.2 15.8 8.34903 15.8 11Z" stroke="#616B7B" stroke-width="1.4"/>
<path d="M16.2833 18.4484C16.2833 17.2529 17.2524 16.2838 18.4479 16.2838C19.6434 16.2838 20.6125 17.2529 20.6125 18.4484C20.6125 19.6439 19.6434 20.613 18.4479 20.613C17.2524 20.613 16.2833 19.6439 16.2833 18.4484Z" stroke="#616B7B" stroke-width="1.4"/>
<circle cx="3.78124" cy="3.78158" r="2.16458" transform="rotate(90 3.78124 3.78158)" stroke="#616B7B
" stroke-width="1.4"/>
</svg>
