<svg width="14" height="14" viewBox="0 0 14 14" fill="none" xmlns="http://www.w3.org/2000/svg">
<path fill-rule="evenodd" clip-rule="evenodd" d="M0.123151 3.43954C-0.171183 2.7037 0.0754319 1.862 0.72033 1.40136L2.11458 0.405472C2.98043 -0.212993 4.1665 -0.114831 4.91889 0.637564L5.98294 1.70161C6.60668 2.32535 6.72588 3.29357 6.27204 4.04997C5.88857 4.68908 5.98928 5.50715 6.5163 6.03417L7.96583 7.4837C8.49285 8.01072 9.31092 8.11143 9.95003 7.72796C10.7064 7.27412 11.6746 7.39332 12.2984 8.01706L13.3624 9.08111C14.1148 9.8335 14.213 11.0196 13.5945 11.8854L12.5986 13.2797C12.138 13.9246 11.2963 14.1712 10.5605 13.8768L9.81569 13.5789C7.69521 12.7307 5.76912 11.4607 4.15421 9.84578C2.53931 8.23088 1.26925 6.30479 0.421062 4.18431L0.123151 3.43954Z" fill="#162741"/>
</svg>
