<svg width="16" height="14" viewBox="0 0 16 14" fill="none" xmlns="http://www.w3.org/2000/svg">
<path d="M3.87346 0C1.7342 0 0 1.73421 0 3.87346V8.84859C0 10.4644 1.30988 11.7743 2.92569 11.7743C3.54092 11.7743 4.11211 12.0934 4.43462 12.6173L4.87541 13.3334C5.42253 14.2222 6.71451 14.2222 7.26162 13.3334L7.42484 13.0683C7.91985 12.2641 8.79657 11.7743 9.74087 11.7743H11.9247C14.0639 11.7743 15.7981 10.0401 15.7981 7.90082V3.87346C15.7981 1.73421 14.0639 0 11.9247 0H3.87346Z" fill="#162741"/>
<path fill-rule="evenodd" clip-rule="evenodd" d="M3.48291 4.4611C3.48291 4.14249 3.7412 3.8842 4.05981 3.8842H11.7306C12.0493 3.8842 12.3075 4.14249 12.3075 4.4611C12.3075 4.77971 12.0493 5.038 11.7306 5.038H4.05981C3.7412 5.038 3.48291 4.77971 3.48291 4.4611Z" fill="white"/>
<path fill-rule="evenodd" clip-rule="evenodd" d="M3.48291 7.05045C3.48291 6.73184 3.7412 6.47356 4.05981 6.47356H8.94125C9.25986 6.47356 9.51814 6.73184 9.51814 7.05045C9.51814 7.36907 9.25986 7.62735 8.94125 7.62735H4.05981C3.7412 7.62735 3.48291 7.36907 3.48291 7.05045Z" fill="white"/>
</svg>
