<svg width="19" height="18" viewBox="0 0 19 18" fill="none" xmlns="http://www.w3.org/2000/svg">
<path d="M1 7.81373C1 6.13058 2.36447 4.76611 4.04762 4.76611H11.6699C13.3531 4.76611 14.7176 6.13058 14.7176 7.81373V11.6669C14.7176 13.35 13.3531 14.7145 11.6699 14.7145H9.56151C8.50334 14.7145 7.5209 15.2634 6.96619 16.1645L6.79292 16.446C6.49539 16.9293 5.79279 16.9293 5.49526 16.446L5.07377 15.7613C4.67332 15.1107 3.96407 14.7145 3.20015 14.7145V14.7145C1.98504 14.7145 1 13.7294 1 12.5143V7.81373Z" stroke="#162741" stroke-width="1.06667"/>
<path d="M4.26611 8.4043H11.4515" stroke="#162741" stroke-width="1.06667" stroke-linecap="round"/>
<path d="M4.26611 10.8301H8.83863" stroke="#162741" stroke-width="1.06667" stroke-linecap="round"/>
<path d="M14.7176 11.2983H14.9361C16.6192 11.2983 17.9837 9.93379 17.9837 8.25064V4.54762C17.9837 2.86447 16.6192 1.5 14.9361 1.5H7.31373C5.63058 1.5 4.26611 2.86446 4.26611 4.54762V4.76609" stroke="#162741" stroke-width="1.14286"/>
</svg>
