<svg width="100" height="100" viewBox="0 0 100 100" fill="none" xmlns="http://www.w3.org/2000/svg">
<g clip-path="url(#clip0_441_94210)">
<path d="M-6.25 0H143.75V100H-6.25V0Z" fill="#E30A17"/>
<path d="M63.3334 50L85.9467 42.6533L71.97 61.8883V38.1117L85.9467 57.3467L63.3334 50ZM64.875 63.3683C61.9786 67.9454 57.6741 71.458 52.6091 73.3775C47.5441 75.297 41.9927 75.5196 36.7903 74.0119C31.5878 72.5041 27.0158 69.3474 23.7623 65.017C20.5087 60.6865 18.7495 55.4165 18.7495 50C18.7495 44.5835 20.5087 39.3135 23.7623 34.983C27.0158 30.6526 31.5878 27.4959 36.7903 25.9882C41.9927 24.4804 47.5441 24.703 52.6091 26.6225C57.6741 28.542 61.9786 32.0546 64.875 36.6317C62.1703 33.6219 58.6162 31.5034 54.6822 30.556C50.7482 29.6085 46.6193 29.8766 42.8409 31.325C39.0625 32.7733 35.8122 35.3337 33.5195 38.6679C31.2267 42.0022 29.9993 45.9535 29.9993 50C29.9993 54.0465 31.2267 57.9978 33.5195 61.3321C35.8122 64.6664 39.0625 67.2267 42.8409 68.6751C46.6193 70.1234 50.7482 70.3915 54.6822 69.444C58.6162 68.4966 62.1703 66.3781 64.875 63.3683V63.3683Z" fill="white"/>
</g>
<defs>
<clipPath id="clip0_441_94210">
<rect width="100" height="100" rx="50" fill="white"/>
</clipPath>
</defs>
</svg>
