<svg width="18" height="18" viewBox="0 0 18 18" fill="none" xmlns="http://www.w3.org/2000/svg">
<circle cx="9" cy="8.99994" r="8.5" fill="#EDEDF6" stroke="#E1E1EA"/>
<path d="M12.7392 9.3954C12.7087 9.76161 12.7697 10.1278 12.9528 10.494C13.2275 11.257 13.7768 11.8368 14.6008 12.203C14.3566 12.9965 13.9599 13.7289 13.4716 14.4308C12.8002 15.3463 12.1289 15.8346 11.488 15.8346C11.1828 15.8346 10.8166 15.743 10.3894 15.5599C9.90109 15.3768 9.47385 15.2853 9.13816 15.2853C8.77195 15.2853 8.3447 15.4073 7.82591 15.5904C7.39866 15.7735 7.06297 15.8346 6.84935 15.8346C6.39159 15.8651 5.90331 15.621 5.41503 15.1022C5.0183 14.736 4.62158 14.1866 4.25537 13.5153C3.95019 12.9659 3.70605 12.4777 3.55346 12.0199C3.24829 11.1654 3.12622 10.3414 3.12622 9.54799C3.12622 8.6935 3.27881 7.93056 3.64502 7.2897C3.95019 6.70986 4.37744 6.2521 4.92675 5.94693C5.47606 5.64175 6.02538 5.48917 6.63573 5.45865C6.9409 5.45865 7.4597 5.58072 8.13108 5.82486C8.55833 6.00796 8.83298 6.069 8.95505 6.069C9.07712 6.069 9.32126 6.00796 9.71799 5.85538C10.0842 5.73331 10.3894 5.61124 10.6335 5.5502C10.9997 5.45865 11.3659 5.42813 11.6711 5.42813C12.8308 5.5502 13.6853 6.00796 14.2651 6.80142C13.2275 7.41177 12.7087 8.29677 12.7392 9.3954ZM10.9997 4.36002V4.39054C10.3283 5.15347 9.62644 5.48917 8.89402 5.42813C8.80246 4.63468 9.0466 3.90226 9.65695 3.23088C9.90109 2.95622 10.2063 2.71208 10.603 2.49846C10.9692 2.31535 11.3659 2.19328 11.7321 2.16277C11.7932 2.98674 11.549 3.71916 10.9997 4.36002Z" fill="#162741"/>
</svg>
