<svg width="18" height="19" viewBox="0 0 18 19" fill="none" xmlns="http://www.w3.org/2000/svg">
<circle cx="9" cy="9.5" r="8.5" fill="#EDEDF6" stroke="#E1E1EA"/>
<path d="M8.55908 5.31221C8.55908 5.33962 8.55908 5.33962 8.6139 5.33962C8.64131 5.33962 8.66872 5.33962 8.69613 5.31221L8.75095 5.2848C8.77836 5.2848 8.80577 5.25739 8.80577 5.25739C8.80577 5.25739 8.80577 5.22998 8.77836 5.20257C8.75095 5.20257 8.69613 5.20257 8.64131 5.22998C8.58649 5.25739 8.55908 5.2848 8.55908 5.31221ZM9.24432 5.2848H9.1895L9.13468 5.25739C9.13468 5.25739 9.13468 5.22998 9.16209 5.20257C9.1895 5.20257 9.24432 5.20257 9.32655 5.22998C9.38137 5.25739 9.40878 5.2848 9.40878 5.31221C9.40878 5.33962 9.38137 5.33962 9.35396 5.33962C9.29914 5.33962 9.27173 5.33962 9.27173 5.31221L9.24432 5.2848ZM15.1374 13.7818H15.11C15.11 13.5899 14.9729 13.3158 14.6988 12.9869C14.644 12.9321 14.5618 12.7402 14.507 12.4661V12.4387C14.4248 12.1372 14.3151 11.9454 14.2055 11.8357L14.0958 11.7535L13.9862 11.6987C14.2055 11.0408 14.1781 10.3008 13.904 9.5333C13.6299 8.90288 13.2187 8.21763 12.6157 7.47757L12.5883 7.45016C12.2868 7.06643 12.0675 6.79233 11.9579 6.57305C11.766 6.24414 11.6838 5.88781 11.7112 5.50407V5.36703C11.7112 4.7366 11.6838 4.24323 11.6564 3.8869C11.5467 3.3113 11.3823 2.84534 11.1082 2.51642C10.7519 2.13268 10.2585 1.91341 9.62806 1.91341C8.88799 1.91341 8.3398 2.10527 7.98347 2.48901C7.68197 2.79052 7.51751 3.20166 7.46269 3.74986C7.40787 4.07877 7.40787 4.54474 7.46269 5.09293C7.46269 5.36703 7.4901 5.53148 7.4901 5.61371C7.46269 5.97004 7.40787 6.27155 7.32564 6.51823C7.216 6.81974 7.07896 7.12125 6.85968 7.39534C6.0648 8.32727 5.54401 9.23179 5.26992 10.0541C5.07805 10.6023 5.02323 11.0682 5.10546 11.5068C5.02323 11.5616 4.941 11.6713 4.83136 11.8357L4.6669 12.055C4.58467 12.1372 4.44763 12.192 4.25576 12.2469L4.17353 12.2743C3.92684 12.3839 3.76238 12.521 3.68015 12.6854C3.62534 12.7951 3.59793 12.9047 3.59793 13.0143C3.59793 13.0966 3.59793 13.2062 3.62534 13.3432L3.65274 13.3981C3.68015 13.6722 3.68015 13.8366 3.65274 13.9188C3.5157 14.3026 3.48829 14.6041 3.59793 14.7685C3.68015 14.9604 3.87202 15.0701 4.14612 15.1249C4.25576 15.1523 4.42022 15.1797 4.63949 15.1797C5.16028 15.2619 5.54401 15.3442 5.76329 15.4538C6.31148 15.7827 6.83227 15.8649 7.29823 15.7553C7.62715 15.7005 7.87384 15.5086 8.01088 15.2071C8.12052 15.2071 8.28498 15.1797 8.53167 15.1249C8.86058 15.0701 9.13468 15.0426 9.35396 15.0152C9.4636 15.0152 9.65547 15.0152 9.98438 15.0701C10.3407 15.1249 10.6422 15.1523 10.8615 15.1249C10.8615 15.2071 10.8889 15.2619 10.9163 15.3167C11.0259 15.536 11.163 15.7005 11.3823 15.8101C11.5741 15.9198 11.7934 15.9746 12.0127 15.9472C12.5061 15.9198 12.9446 15.6731 13.3558 15.1797C13.5202 14.9604 13.8491 14.7411 14.3425 14.5219C14.507 14.4122 14.644 14.3574 14.7537 14.3026C14.9729 14.1655 15.11 14.0011 15.1374 13.7818ZM9.24432 4.90106C9.1895 4.70919 9.21691 4.51733 9.32655 4.29805C9.43619 4.02395 9.62806 3.85949 9.90215 3.85949C10.1762 3.85949 10.3681 4.02395 10.5326 4.29805C10.5874 4.48992 10.6148 4.68178 10.6148 4.90106C10.5874 5.12034 10.5052 5.2848 10.3955 5.39444C10.3407 5.36703 10.2311 5.31221 10.0666 5.25739L10.1762 5.14775C10.2311 4.98329 10.2311 4.81883 10.1762 4.65437C10.1214 4.48992 10.0392 4.40769 9.92956 4.40769C9.81992 4.40769 9.71028 4.46251 9.65547 4.59956C9.57324 4.7366 9.54583 4.87365 9.60065 5.03811C9.49101 4.98329 9.38137 4.95588 9.24432 4.90106ZM7.98347 5.42185C7.81902 5.31221 7.73679 5.12034 7.70938 4.90106C7.68197 4.68178 7.70938 4.46251 7.81902 4.27064C7.90125 4.10618 8.01088 3.99654 8.17534 3.99654C8.3398 3.99654 8.47685 4.10618 8.58649 4.27064C8.69613 4.4351 8.72354 4.65437 8.72354 4.90106C8.6139 4.95588 8.50426 4.98329 8.44944 5.03811C8.44944 4.92847 8.44944 4.79142 8.39462 4.68178C8.3398 4.57215 8.25757 4.51733 8.14793 4.51733C8.03829 4.51733 7.98347 4.62696 7.98347 4.81883C7.98347 5.03811 8.03829 5.17516 8.14793 5.25739V5.2848L8.0657 5.33962C8.01088 5.39444 7.98347 5.42185 7.98347 5.42185ZM7.70938 5.99745C7.65456 5.8604 7.70938 5.75076 7.81902 5.64112L8.25757 5.33962C8.47685 5.12034 8.72354 4.98329 8.94281 4.98329C9.16209 4.98329 9.40878 5.06552 9.68288 5.22998C9.73769 5.2848 9.84733 5.31221 9.98438 5.36703L10.3133 5.47667C10.5874 5.5863 10.6696 5.77817 10.5874 5.99745C10.5052 6.21673 10.3133 6.38118 9.98438 6.46341C9.90215 6.51823 9.79251 6.57305 9.65547 6.65528C9.51842 6.73751 9.40878 6.79233 9.35396 6.81974C9.21691 6.87456 9.07986 6.90197 8.94281 6.87456C8.83317 6.87456 8.72354 6.87456 8.64131 6.81974C8.55908 6.79233 8.47685 6.73751 8.36721 6.62787C8.25757 6.51823 8.17534 6.46341 8.12052 6.40859C7.90125 6.29896 7.7642 6.16191 7.70938 5.99745ZM6.80486 12.9321C6.85968 13.0691 6.99673 13.2884 7.27082 13.5899C7.4901 13.8914 7.62715 14.1107 7.73679 14.2204C7.87384 14.467 7.92866 14.6589 7.92866 14.796C7.87384 15.2619 7.62715 15.536 7.18859 15.5908C6.75004 15.6457 6.31148 15.5634 5.84552 15.2893C5.57142 15.1797 5.18769 15.0701 4.63949 15.0152C4.3654 14.9878 4.17353 14.9604 4.0913 14.9056C3.92684 14.8782 3.8172 14.8234 3.76238 14.7137C3.68015 14.5767 3.70756 14.33 3.84461 13.9737C3.87202 13.864 3.87202 13.6722 3.8172 13.3981V13.3158C3.76238 13.0691 3.78979 12.8773 3.84461 12.7676C3.89943 12.658 4.03648 12.5484 4.25576 12.4661L4.3654 12.4113C4.52985 12.3565 4.6669 12.3017 4.77654 12.192C4.83136 12.1372 4.88618 12.055 4.99582 11.9179L5.18769 11.6987C5.29733 11.5342 5.46178 11.4794 5.68106 11.5068C5.87293 11.5616 6.0648 11.6987 6.25666 11.9454L6.80486 12.9321ZM11.0259 13.8914C10.5326 14.2478 10.0118 14.4396 9.51842 14.4945C8.9154 14.5767 8.36721 14.4396 7.87384 14.1107C7.79161 13.9737 7.65456 13.7818 7.4901 13.5625C7.70938 13.5625 7.87384 13.4803 7.92866 13.3158C7.98347 13.1514 7.92866 12.9047 7.73679 12.6306C7.57233 12.4387 7.35305 12.2194 7.07896 12.0002L6.69522 11.7535C6.33889 11.5342 6.11962 11.2601 6.00998 10.9312C5.90034 10.6571 5.90034 10.3282 6.00998 9.97185C6.09221 9.5333 6.33889 8.9851 6.75004 8.32727C6.80486 8.27245 6.75004 8.46432 6.53076 8.90288C6.33889 9.2592 6.22926 9.58812 6.17444 9.91703C6.09221 10.4104 6.17444 10.849 6.44853 11.1779C6.44853 10.6297 6.58558 10.0541 6.83227 9.47848L7.02414 9.03992C7.27082 8.49173 7.46269 8.08059 7.57233 7.75167C7.7642 7.23088 7.87384 6.76492 7.90125 6.38118L8.0657 6.51823C8.12052 6.54564 8.17534 6.60046 8.28498 6.68269L8.42203 6.79233C8.58649 6.92938 8.75095 6.9842 8.97022 6.9842C9.16209 6.9842 9.35396 6.92938 9.57324 6.81974L9.73769 6.7101C9.84733 6.65528 9.95697 6.60046 10.0118 6.57305C10.2859 6.49082 10.4778 6.35377 10.6148 6.16191C10.7244 6.57305 10.8889 7.03902 11.1082 7.5598C11.2726 8.08059 11.4645 8.49173 11.6564 8.79324C11.9853 9.39625 12.1772 9.99926 12.2868 10.5475C12.369 10.5475 12.4787 10.5749 12.5883 10.6023C12.7528 10.1637 12.7253 9.69776 12.5335 9.17697C12.369 8.79324 12.1772 8.49173 11.9579 8.27245C11.8208 8.16281 11.7934 8.08059 11.8756 8.08059C12.0675 8.27245 12.2594 8.49173 12.4238 8.76583C12.6157 9.09474 12.7528 9.39625 12.835 9.72517C12.9172 10.0541 12.9172 10.383 12.8624 10.6845C13.5202 10.9586 13.8217 11.2875 13.7121 11.6438H13.5751C13.6299 11.5068 13.6025 11.3697 13.4928 11.2601C13.3832 11.1505 13.2187 11.0408 12.9446 10.9312C12.2868 10.6571 11.9579 10.7667 11.9031 11.2601C11.6016 11.3697 11.4097 11.6438 11.3275 12.0276C11.2726 12.2469 11.2178 12.6032 11.1904 13.0966C11.1904 13.261 11.1356 13.5077 11.0259 13.864V13.8914ZM14.5618 13.0966V13.124C14.8085 13.3981 14.9455 13.6173 14.9455 13.7818C14.9181 13.8914 14.8359 14.0011 14.7263 14.0833C14.644 14.1381 14.4796 14.2204 14.2603 14.33C14.0136 14.4396 13.8217 14.5493 13.7121 14.6315C13.4928 14.7685 13.3284 14.9056 13.2187 15.0701C12.835 15.5086 12.4513 15.7279 12.0127 15.7553C11.5741 15.8101 11.2726 15.6182 11.0808 15.2345C10.9711 15.0152 10.9985 14.6863 11.1082 14.2478L11.2178 13.8914C11.3275 13.5351 11.3823 13.2884 11.3823 13.124C11.4097 12.6306 11.4371 12.2743 11.4919 12.055C11.5467 11.7809 11.6838 11.589 11.8756 11.4794H11.9031C11.9031 11.6713 11.9579 11.8357 12.0675 12.0002C12.1497 12.1646 12.2594 12.2469 12.4238 12.2743C12.5883 12.3291 12.7528 12.3017 12.972 12.192C13.1913 12.0824 13.3558 11.9728 13.4654 11.8357H13.5202C13.6573 11.8357 13.7669 11.8357 13.8491 11.8357C13.9314 11.8631 14.0136 11.9179 14.0958 11.9728C14.1781 12.055 14.2603 12.2469 14.3151 12.521C14.3699 12.8225 14.4522 13.0143 14.5618 13.0966ZM7.92866 5.99745C7.87384 5.97004 7.84643 5.94263 7.84643 5.88781C7.84643 5.83299 7.84643 5.80558 7.87384 5.80558C7.90125 5.80558 7.92866 5.83299 7.98347 5.88781L8.01088 5.94263L8.23016 6.1345C8.44944 6.32637 8.66872 6.40859 8.88799 6.40859C9.10727 6.40859 9.38137 6.32637 9.71028 6.10709C9.7651 6.10709 9.87474 6.02486 10.0118 5.91522L10.094 5.8604C10.1214 5.8604 10.1488 5.83299 10.1762 5.77817C10.2037 5.72335 10.2311 5.72335 10.2585 5.72335C10.3133 5.72335 10.2859 5.80558 10.1762 5.91522C10.0392 6.02486 9.90215 6.1345 9.7651 6.18932C9.38137 6.38118 9.10727 6.46341 8.9154 6.46341C8.64131 6.46341 8.39462 6.38118 8.14793 6.18932L7.95607 5.99745H7.92866Z" fill="#162741"/>
</svg>
