<svg width="18" height="19" viewBox="0 0 18 19" fill="none" xmlns="http://www.w3.org/2000/svg">
<circle cx="9" cy="9.5" r="8.5" fill="#EDEDF6" stroke="#E1E1EA"/>
<path d="M14.2508 12.7496V5.74856H3.7492V12.7496H14.2508ZM14.2508 4.5726C14.5607 4.5726 14.8342 4.69111 15.0712 4.92812C15.3082 5.16514 15.4267 5.43862 15.4267 5.74856L15.3994 12.7496C15.3994 13.0595 15.2809 13.333 15.0439 13.57C14.8251 13.7888 14.5607 13.8982 14.2508 13.8982H11.3245V15.0742H6.67542V13.8982H3.7492C3.43926 13.8982 3.16578 13.7888 2.92876 13.57C2.69175 13.333 2.57324 13.0595 2.57324 12.7496V5.74856C2.57324 5.43862 2.69175 5.16514 2.92876 4.92812C3.16578 4.69111 3.43926 4.5726 3.7492 4.5726H14.2508Z" fill="#162741"/>
</svg>
