<svg width="18" height="19" viewBox="0 0 18 19" fill="none" xmlns="http://www.w3.org/2000/svg">
<circle cx="9" cy="9.71426" r="8.5" fill="#EDEDF6" stroke="#E1E1EA"/>
<path d="M12.9427 13.3975V4.96823H5.03259V13.3975H12.9427ZM8.41913 15.3009C8.58392 15.4492 8.77344 15.5233 8.98767 15.5233C9.2019 15.5233 9.38318 15.4492 9.53149 15.3009C9.69629 15.1361 9.77869 14.9466 9.77869 14.7323C9.77869 14.5181 9.69629 14.3368 9.53149 14.1885C9.38318 14.0237 9.2019 13.9413 8.98767 13.9413C8.77344 13.9413 8.58392 14.0237 8.41913 14.1885C8.27081 14.3368 8.19666 14.5181 8.19666 14.7323C8.19666 14.9466 8.27081 15.1361 8.41913 15.3009ZM12.6956 3.3862C13.0581 3.3862 13.363 3.51804 13.6102 3.78171C13.8738 4.0289 14.0057 4.33377 14.0057 4.69632V14.7323C14.0057 15.0949 13.8738 15.408 13.6102 15.6717C13.363 15.9189 13.0581 16.0424 12.6956 16.0424H5.3045C4.94196 16.0424 4.62885 15.9189 4.36517 15.6717C4.11798 15.408 3.99438 15.0949 3.99438 14.7323V4.69632C3.99438 4.33377 4.11798 4.0289 4.36517 3.78171C4.62885 3.51804 4.94196 3.3862 5.3045 3.3862H12.6956Z" fill="#162741"/>
</svg>
