<svg width="21" height="20" viewBox="0 0 21 20" fill="none" xmlns="http://www.w3.org/2000/svg">
<path d="M20 1L14.4615 7L12 4.33333" stroke="#76CB09" stroke-width="1.4" stroke-linecap="round"/>
<path fill-rule="evenodd" clip-rule="evenodd" d="M1.14954 6.17658C0.792135 5.28307 1.0916 4.261 1.87469 3.70165L3.5677 2.49236C4.61909 1.74137 6.05932 1.86056 6.97294 2.77418L8.265 4.06624C9.0224 4.82365 9.16713 5.99933 8.61604 6.91782C8.15041 7.69388 8.2727 8.68725 8.91265 9.32721L10.6728 11.0873C11.3127 11.7273 12.3061 11.8496 13.0822 11.384C14.0007 10.8329 15.1764 10.9776 15.9338 11.735L17.2258 13.0271C18.1394 13.9407 18.2586 15.3809 17.5076 16.4323L16.2983 18.1253C15.739 18.9084 14.7169 19.2079 13.8234 18.8505L12.9191 18.4887C10.3442 17.4588 8.00536 15.9166 6.0444 13.9556C4.08345 11.9946 2.54123 9.65581 1.51129 7.08095L1.14954 6.17658Z" stroke="#76CB09" stroke-width="1.4"/>
</svg>
