<svg width="23" height="19" viewBox="0 0 23 19" fill="none" xmlns="http://www.w3.org/2000/svg">
<path d="M13.2069 1.56576L16.0353 1.56576L16.0353 4.39419" stroke="#FF155A" stroke-width="1.4" stroke-linecap="round"/>
<path d="M7.20679 2.15155L11.2068 6.15155L15.2068 2.15155" stroke="#FF155A" stroke-width="1.4" stroke-linecap="round"/>
<path fill-rule="evenodd" clip-rule="evenodd" d="M20.1894 11.3248C21.0739 11.7039 21.5849 12.6383 21.4267 13.5876L21.0847 15.6398C20.8722 16.9143 19.7696 17.8484 18.4775 17.8484H16.6503C15.5791 17.8484 14.6455 17.1194 14.3857 16.0803C14.1662 15.2023 13.3773 14.5863 12.4722 14.5863L9.98303 14.5863C9.07799 14.5863 8.28909 15.2023 8.06959 16.0803C7.8098 17.1194 6.87613 17.8484 5.805 17.8484H3.97775C2.6857 17.8484 1.58302 16.9143 1.3706 15.6398L1.02856 13.5876C0.870354 12.6383 1.38131 11.7039 2.26584 11.3248L3.16113 10.9411C5.71011 9.84869 8.45442 9.2854 11.2276 9.2854C14.0008 9.2854 16.7452 9.84869 19.2941 10.9411L20.1894 11.3248Z" stroke="#FF155A" stroke-width="1.4"/>
</svg>
