<svg width="18" height="21" viewBox="0 0 18 21" fill="none" xmlns="http://www.w3.org/2000/svg">
<path fill-rule="evenodd" clip-rule="evenodd" d="M0.14954 8.17658C-0.207865 7.28307 0.091596 6.261 0.874687 5.70165L2.5677 4.49236C3.61909 3.74137 5.05932 3.86056 5.97294 4.77418L7.265 6.06624C8.0224 6.82365 8.16713 7.99933 7.61604 8.91782C7.15041 9.69388 7.2727 10.6873 7.91265 11.3272L9.67279 13.0873C10.3127 13.7273 11.3061 13.8496 12.0822 13.384C13.0007 12.8329 14.1764 12.9776 14.9338 13.735L16.2258 15.0271C17.1394 15.9407 17.2586 17.3809 16.5076 18.4323L15.2983 20.1253C14.739 20.9084 13.7169 21.2079 12.8234 20.8505L11.9191 20.4887C9.34419 19.4588 7.00536 17.9166 5.0444 15.9556C3.08345 13.9946 1.54123 11.6558 0.511289 9.08095L0.14954 8.17658Z" fill="#715DFF"/>
<path d="M17 6L14 9L11 6" stroke="#715DFF" stroke-width="1.4" stroke-linecap="round"/>
<path d="M14 9L14 1" stroke="#715DFF" stroke-width="1.4" stroke-linecap="round"/>
</svg>
