<svg width="25" height="22" viewBox="0 0 25 22" fill="none" xmlns="http://www.w3.org/2000/svg">
<path d="M9.55328 0C7.36137 0 5.51991 1.50046 5 3.53027H14.6226C17.7706 3.53027 20.3226 6.08225 20.3226 9.23027V14.117L20.3225 14.1518L20.3222 14.1802C22.4377 13.722 24.0225 11.8394 24.0225 9.58675V4.7C24.0225 2.10426 21.9183 0 19.3225 0H9.55328Z" fill="#FF155A"/>
<path fill-rule="evenodd" clip-rule="evenodd" d="M0 9.23027C0 6.63454 2.10426 4.53027 4.7 4.53027H14.4692C17.065 4.53027 19.1692 6.63454 19.1692 9.23027V14.117C19.1692 16.7128 17.065 18.817 14.4692 18.817H11.8194C10.6736 18.817 9.60985 19.4114 9.0092 20.3871L8.81116 20.7088C8.1473 21.7873 6.57962 21.7873 5.91576 20.7089L5.3809 19.84C4.98958 19.2043 4.2965 18.817 3.54999 18.817C1.58939 18.817 0 17.2276 0 15.267V9.23027ZM13.5286 9.71484V13.2433C13.5286 13.6299 13.2152 13.9433 12.8286 13.9433C12.442 13.9433 12.1286 13.6299 12.1286 13.2433V11.8622L8.00005 15.9907L3.50507 11.4957C3.23171 11.2224 3.23171 10.7792 3.50507 10.5058C3.77844 10.2324 4.22166 10.2324 4.49502 10.5058L8.00005 14.0108L10.896 11.1148L10.0001 11.1148C9.61355 11.1148 9.30015 10.8014 9.30015 10.4148C9.30015 10.0282 9.61355 9.71484 10.0001 9.71484H13.5286Z" fill="#FF155A"/>
</svg>
