<svg width="60" height="60" viewBox="0 0 60 60" fill="none" xmlns="http://www.w3.org/2000/svg">
<g clip-path="url(#clip0)">
<path d="M58.6249 22.0969L50.3376 28.2729V15.4614L58.6249 22.0969Z" fill="#A6A8BA"/>
<path d="M33.6627 1.31418L38.5604 5.37881H21.4258L26.3234 1.31418C28.4635 -0.438061 31.5371 -0.438061 33.6627 1.31418Z" fill="#A6A8BA"/>
<path d="M50.3376 16.8976V29.7091L33.4327 42.3195C31.3932 43.842 28.5925 43.842 26.5674 42.3195L9.47583 29.5655L9.51892 29.508V5.1059H50.352V16.8976H50.3376Z" fill="#FF155A"/>
<path d="M9.51887 15.3609V28.0718L9.47578 28.1293L1.37524 22.097L9.50451 15.3609H9.51887Z" fill="#A6A8BA"/>
<path d="M50.3375 28.2729L58.6104 22.0969V54.2549C58.6104 57.4291 56.0395 60 52.8654 60H7.12031C3.94616 60 1.37524 57.4291 1.37524 54.2549V22.0969L9.46142 28.1292L26.553 40.8833C28.5925 42.4057 31.3932 42.4057 33.4183 40.8833L50.3375 28.2729Z" fill="#292F58"/>
<path d="M28.8511 21.2352H21.0952C20.3053 21.2352 19.6589 20.5889 19.6589 19.7989C19.6589 19.009 20.3053 18.3626 21.0952 18.3626H28.8511C29.641 18.3626 30.2873 19.009 30.2873 19.7989C30.2873 20.5889 29.641 21.2352 28.8511 21.2352Z" fill="#A6A8BA"/>
<path d="M38.9049 28.4166H21.0952C20.3053 28.4166 19.6589 27.7702 19.6589 26.9803C19.6589 26.1904 20.3053 25.544 21.0952 25.544H38.9049C39.6948 25.544 40.3411 26.1904 40.3411 26.9803C40.3411 27.7702 39.6948 28.4166 38.9049 28.4166Z" fill="#A6A8BA"/>
</g>
<defs>
<clipPath id="clip0">
<rect width="60" height="60" fill="white"/>
</clipPath>
</defs>
</svg>
