<svg width="12" height="8" viewBox="0 0 12 8" fill="none" xmlns="http://www.w3.org/2000/svg">
<path d="M4.94531 2.94531C5.24219 2.64844 5.59375 2.5 6 2.5C6.40625 2.5 6.75781 2.64844 7.05469 2.94531C7.35156 3.24219 7.5 3.59375 7.5 4C7.5 4.40625 7.35156 4.75781 7.05469 5.05469C6.75781 5.35156 6.40625 5.5 6 5.5C5.59375 5.5 5.24219 5.35156 4.94531 5.05469C4.64844 4.75781 4.5 4.40625 4.5 4C4.5 3.59375 4.64844 3.24219 4.94531 2.94531ZM4.21875 5.78125C4.71875 6.26562 5.3125 6.50781 6 6.50781C6.6875 6.50781 7.27344 6.26562 7.75781 5.78125C8.25781 5.28125 8.50781 4.6875 8.50781 4C8.50781 3.3125 8.25781 2.72656 7.75781 2.24219C7.27344 1.74219 6.6875 1.49219 6 1.49219C5.3125 1.49219 4.71875 1.74219 4.21875 2.24219C3.73438 2.72656 3.49219 3.3125 3.49219 4C3.49219 4.6875 3.73438 5.28125 4.21875 5.78125ZM2.64844 1.28125C3.64844 0.59375 4.76562 0.25 6 0.25C7.23438 0.25 8.35156 0.59375 9.35156 1.28125C10.3516 1.96875 11.0703 2.875 11.5078 4C11.0703 5.125 10.3516 6.03125 9.35156 6.71875C8.35156 7.40625 7.23438 7.75 6 7.75C4.76562 7.75 3.64844 7.40625 2.64844 6.71875C1.64844 6.03125 0.929688 5.125 0.492188 4C0.929688 2.875 1.64844 1.96875 2.64844 1.28125Z" fill="#7D8696"/>
</svg>
