<svg width="44" height="44" viewBox="0 0 44 44" fill="none" xmlns="http://www.w3.org/2000/svg">
<rect width="44" height="44" rx="22" fill="#F9EBEF"/>
<path d="M23.9998 13.4142L26.8283 13.4142L26.8283 16.2426" stroke="#FF155A" stroke-width="1.4" stroke-linecap="round"/>
<path d="M18 14L22 18L26 14" stroke="#FF155A" stroke-width="1.4" stroke-linecap="round"/>
<path fill-rule="evenodd" clip-rule="evenodd" d="M30.9825 23.1732C31.867 23.5523 32.378 24.4867 32.2198 25.436L31.8777 27.4882C31.6653 28.7627 30.5626 29.6968 29.2706 29.6968L27.4433 29.6968C26.3722 29.6968 25.4385 28.9678 25.1787 27.9287C24.9592 27.0507 24.1703 26.4347 23.2653 26.4347L20.7761 26.4347C19.871 26.4347 19.0822 27.0507 18.8627 27.9287C18.6029 28.9678 17.6692 29.6968 16.5981 29.6968L14.7708 29.6968C13.4788 29.6968 12.3761 28.7627 12.1637 27.4882L11.8216 25.436C11.6634 24.4867 12.1744 23.5523 13.0589 23.1732L13.9542 22.7895C16.5032 21.6971 19.2475 21.1338 22.0207 21.1338C24.7939 21.1338 27.5382 21.6971 30.0872 22.7895L30.9825 23.1732Z" fill="#FF155A"/>
</svg>
