<svg width="44" height="44" viewBox="0 0 44 44" fill="none" xmlns="http://www.w3.org/2000/svg">
<rect width="44" height="44" rx="22" fill="#EBF7DD"/>
<path d="M30 13L24.4615 19L22 16.3333" stroke="#76CB09" stroke-width="1.4" stroke-linecap="round"/>
<path fill-rule="evenodd" clip-rule="evenodd" d="M11.1495 18.1766C10.7921 17.2831 11.0916 16.261 11.8747 15.7017L13.5677 14.4924C14.6191 13.7414 16.0593 13.8606 16.9729 14.7742L18.265 16.0662C19.0224 16.8236 19.1671 17.9993 18.616 18.9178C18.1504 19.6939 18.2727 20.6873 18.9127 21.3272L20.6728 23.0873C21.3127 23.7273 22.3061 23.8496 23.0822 23.384C24.0007 22.8329 25.1764 22.9776 25.9338 23.735L27.2258 25.0271C28.1394 25.9407 28.2586 27.3809 27.5076 28.4323L26.2983 30.1253C25.739 30.9084 24.7169 31.2079 23.8234 30.8505L22.9191 30.4887C20.3442 29.4588 18.0054 27.9166 16.0444 25.9556C14.0834 23.9946 12.5412 21.6558 11.5113 19.081L11.1495 18.1766Z" fill="#76CB09"/>
</svg>
