<svg width="75" height="75" viewBox="0 0 75 75" fill="none" xmlns="http://www.w3.org/2000/svg">
<circle cx="37.5" cy="37.5" r="37.5" fill="url(#paint0_linear_28_16)"/>
<path d="M56.5904 27.2263C50.1614 19.9574 45.687 18.6949 41.4468 17.4834C43.8698 16.5142 48.7157 16.8776 50.5329 18.0885C52.3502 18.6942 55.6212 21.8958 56.5904 27.2263Z" fill="white"/>
<path d="M36.6007 19.3516C34.7835 19.3516 32.9662 21.1688 31.7548 22.3803C40.8409 23.5918 47.5041 26.0147 55.3787 36.3124C55.3787 36.3124 56.5902 33.7683 56.5902 30.8607C49.8059 22.6226 42.6581 19.9573 36.6007 19.3516Z" fill="white"/>
<path d="M19.6401 36.3125C18.4286 38.1297 18.4286 39.3412 18.4286 40.5529C32.1261 40.5529 34.7836 44.7931 39.6296 51.4563C40.8411 50.8512 42.0526 50.2454 43.264 49.6397C36.6009 36.9182 23.0726 36.5144 19.6401 36.3125Z" fill="white"/>
<path d="M20.2445 47.8186L20.2457 47.821C23.8802 46.6095 29.9376 49.0324 31.7548 55.0899C33.572 53.8784 34.842 53.6642 36.2293 52.667C30.5433 44.1865 26.5374 42.975 18.6627 43.5809C19.0341 45.3974 19.0341 45.3974 20.2445 47.8186Z" fill="white"/>
<path d="M21.4573 50.8515C21.4573 51.6025 26.6419 57.117 27.1432 58.1182L30.1719 56.3015C26.3032 50.8501 23.7965 50.4886 21.4573 50.8515Z" fill="white"/>
<path d="M28.7263 24.8036C27.6921 25.4093 26.3033 26.0151 25.0918 27.8323C35.3894 29.6495 44.4756 32.0725 51.7445 44.1874C52.956 42.9759 53.5617 42.3701 54.1675 40.5529C47.5043 28.438 35.9952 26.0151 28.7263 24.8036Z" fill="white"/>
<path d="M23.2744 30.2551C22.6687 30.2551 20.8514 33.2838 20.8514 33.8896C28.7261 34.4953 38.418 36.3126 45.6869 48.4274C45.6869 48.4274 48.1099 47.2159 49.3214 46.0044C40.841 33.2838 30.5433 31.4666 23.2744 30.2551Z" fill="white"/>
<defs>
<linearGradient id="paint0_linear_28_16" x1="33.2944" y1="-9.08029" x2="37.5" y2="75" gradientUnits="userSpaceOnUse">
<stop stop-color="#0058DD"/>
<stop offset="1" stop-color="#00D1FF"/>
</linearGradient>
</defs>
</svg>