<?xml version="1.0" encoding="utf-8"?>
<!-- Generator: Adobe Illustrator 25.2.0, SVG Export Plug-In . SVG Version: 6.00 Build 0)  -->
<svg version="1.1" id="Layer_1" xmlns="http://www.w3.org/2000/svg" xmlns:xlink="http://www.w3.org/1999/xlink" x="0px" y="0px"
	 viewBox="0 0 32.8 30.1" style="enable-background:new 0 0 32.8 30.1;" xml:space="preserve">
<style type="text/css">
	.st0{fill:#1BFFE6;}
</style>
<g transform="translate(-3.75 -4.75)">
	<g>
		<path class="st0" d="M10.6,4.8c-0.8,0-1.4,0.6-1.4,1.4l0,0V28c0,0.8,0.6,1.4,1.4,1.4l0,0h24.6c0.8,0,1.4-0.6,1.4-1.4l0,0V11.6
			c0-0.8-0.6-1.4-1.4-1.4l0,0H22.8L20,5.4c-0.2-0.4-0.7-0.7-1.2-0.7L10.6,4.8L10.6,4.8z M12,7.5h6l2.8,4.8C21,12.7,21.5,13,22,13
			h11.9v13.7H12V7.5z"/>
	</g>
	<g>
		<path class="st0" d="M5.1,10.2c-0.8,0-1.4,0.6-1.4,1.4l0,0v21.9c0,0.8,0.6,1.4,1.4,1.4l0,0h24.6c0.8,0,1.4-0.6,1.4-1.4
			s-0.6-1.4-1.4-1.4H6.5V11.6C6.5,10.8,5.9,10.2,5.1,10.2L5.1,10.2z"/>
	</g>
</g>
</svg>
