<?xml version="1.0" encoding="utf-8"?>
<!-- Generator: Adobe Illustrator 25.2.0, SVG Export Plug-In . SVG Version: 6.00 Build 0)  -->
<svg version="1.1" id="Layer_1" xmlns="http://www.w3.org/2000/svg" xmlns:xlink="http://www.w3.org/1999/xlink" x="0px" y="0px"
	 viewBox="0 0 34.7 28.7" style="enable-background:new 0 0 34.7 28.7;" xml:space="preserve">
<style type="text/css">
	.st0{fill:#1BFFE6;}
</style>
<path class="st0" d="M34.7,14.3c0-0.5-0.3-1-0.8-1.1l-5.9-2.3l5.9-2.3c0.6-0.2,0.9-1,0.7-1.6c-0.1-0.3-0.4-0.6-0.7-0.7L17.8,0.1
	c-0.3-0.1-0.6-0.1-0.9,0L0.8,6.4c-0.6,0.2-0.9,1-0.7,1.6c0.1,0.3,0.4,0.6,0.7,0.7l5.9,2.3l-5.9,2.3c-0.6,0.2-0.9,1-0.7,1.6
	c0.1,0.3,0.4,0.6,0.7,0.7l5.9,2.3l-5.9,2.3c-0.6,0.2-0.9,1-0.7,1.6c0.1,0.3,0.4,0.6,0.7,0.7l16.1,6.3c0.1,0.1,0.3,0.1,0.4,0.1
	c0.1,0,0.3,0,0.4-0.1l16.1-6.3c0.6-0.2,0.9-1,0.7-1.6c-0.1-0.3-0.4-0.6-0.7-0.7l-5.9-2.3l5.9-2.3C34.4,15.3,34.7,14.8,34.7,14.3z
	 M17.3,2.5l12.8,5l-12.8,5l-12.8-5L17.3,2.5z M30.1,21.2l-12.8,5l-12.8-5l5.5-2.1l6.9,2.7c0.1,0.1,0.3,0.1,0.4,0.1
	c0.1,0,0.3,0,0.4-0.1l6.9-2.7L30.1,21.2z M17.3,19.3l-12.8-5l5.5-2.2l6.9,2.7c0.1,0.1,0.3,0.1,0.4,0.1c0.1,0,0.3,0,0.4-0.1l6.9-2.7
	l5.5,2.2L17.3,19.3z"/>
</svg>
