<svg width="42" height="42" viewBox="0 0 42 42" fill="none" xmlns="http://www.w3.org/2000/svg">
<circle cx="21" cy="21" r="21" fill="#405D9A" fill-opacity="0.4"/>
<path fill-rule="evenodd" clip-rule="evenodd" d="M11.1834 16.1213C10.7451 15.0257 11.1123 13.7724 12.0725 13.0866L14.1485 11.6037C15.4377 10.6829 17.2037 10.829 18.324 11.9493L19.9084 13.5336C20.8371 14.4624 21.0146 15.904 20.3388 17.0302C19.7678 17.9818 19.9178 19.1999 20.7025 19.9846L22.8608 22.1429C23.6455 22.9276 24.8636 23.0776 25.8152 22.5066C26.9414 21.8309 28.3831 22.0084 29.3118 22.9371L30.8961 24.5214C32.0164 25.6417 32.1626 27.4077 31.2417 28.6969L29.7589 30.7729C29.073 31.7331 27.8197 32.1003 26.7241 31.6621L25.6152 31.2185C22.4579 29.9556 19.59 28.0645 17.1855 25.66C14.7809 23.2554 12.8899 20.3876 11.6269 17.2303L11.1834 16.1213ZM12.9444 14.3072C12.5467 14.5913 12.3945 15.1104 12.5761 15.5642L13.0197 16.6732C14.2071 19.6419 15.9852 22.3384 18.2461 24.5993C20.507 26.8602 23.2036 28.6383 26.1722 29.8258L27.2812 30.2694C27.735 30.4509 28.2542 30.2988 28.5383 29.901L30.0211 27.8251C30.5158 27.1325 30.4373 26.1839 29.8355 25.5821L28.2511 23.9977C27.8091 23.5557 27.123 23.4712 26.5869 23.7929C25.0451 24.718 23.0716 24.475 21.8001 23.2036L19.6419 21.0453C18.3704 19.7739 18.1275 17.8003 19.0526 16.2585C19.3742 15.7225 19.2897 15.0363 18.8477 14.5943L17.2634 13.01C16.6616 12.4082 15.7129 12.3297 15.0204 12.8243L12.9444 14.3072Z" fill="white"/>
</svg>
