<svg width="42" height="42" viewBox="0 0 42 42" fill="none" xmlns="http://www.w3.org/2000/svg">
<circle cx="21" cy="21" r="21" fill="#405D9A" fill-opacity="0.4"/>
<path d="M10 19.2308C10 17.0216 11.7909 15.2308 14 15.2308H23.7692C25.9784 15.2308 27.7692 17.0216 27.7692 19.2308V24.1175C27.7692 26.3267 25.9784 28.1175 23.7692 28.1175H21.1194C19.7306 28.1175 18.4411 28.8379 17.7131 30.0207L17.515 30.3424C17.1245 30.9768 16.2024 30.9768 15.8119 30.3424L15.277 29.4735C14.7583 28.6308 13.8395 28.1175 12.85 28.1175V28.1175C11.276 28.1175 10 26.8415 10 25.2675V19.2308Z" stroke="white" stroke-width="1.4"/>
<path d="M14.2307 19.9435H23.5384" stroke="white" stroke-width="1.4" stroke-linecap="round"/>
<path d="M14.2307 23.0855H20.1538" stroke="white" stroke-width="1.4" stroke-linecap="round"/>
<path d="M27.7692 23.6923H27.9999C30.2091 23.6923 31.9999 21.9015 31.9999 19.6923V15C31.9999 12.7909 30.2091 11 27.9999 11H18.2307C16.0216 11 14.2307 12.7909 14.2307 15V15.2308" stroke="white" stroke-width="1.5"/>
</svg>
