<svg width="200" height="215" viewBox="0 0 200 215" fill="none" xmlns="http://www.w3.org/2000/svg">
<path d="M119.5 183L46 181V214.5L119.5 183Z" fill="#40BAF3"/>
<rect width="200" height="200" rx="100" fill="#D9D9D9"/>
<rect width="200" height="200" rx="100" fill="url(#paint0_linear_125_83)"/>
<path d="M77.2105 76V121.48H68.6731L46.2705 93.8672V121.48H36V76H44.6016L66.94 103.613V76H77.2105ZM120.964 104.133C120.964 104.263 120.9 105.172 120.771 106.862H94.6458C95.1167 109.027 96.2292 110.738 97.9837 111.994C99.7384 113.25 101.921 113.879 104.531 113.879C106.328 113.879 107.912 113.619 109.281 113.099C110.693 112.536 111.999 111.669 113.197 110.5L118.525 116.347C115.273 120.116 110.522 122 104.274 122C100.38 122 96.9353 121.242 93.9397 119.726C90.9443 118.167 88.6334 116.023 87.007 113.294C85.381 110.565 84.5678 107.468 84.5678 104.003C84.5678 100.581 85.3597 97.5057 86.9429 94.7768C88.5692 92.0046 90.773 89.8606 93.5545 88.3446C96.3789 86.7853 99.5243 86.0057 102.991 86.0057C106.371 86.0057 109.431 86.7419 112.17 88.2147C114.909 89.6875 117.048 91.8097 118.589 94.5819C120.172 97.3107 120.964 100.494 120.964 104.133ZM103.055 93.6723C100.787 93.6723 98.8824 94.322 97.3418 95.6215C95.8012 96.9209 94.8599 98.6967 94.5174 100.949H111.528C111.186 98.7401 110.244 96.9859 108.704 95.6864C107.163 94.3436 105.28 93.6723 103.055 93.6723ZM144.064 122C140.426 122 137.152 121.242 134.242 119.726C131.375 118.167 129.129 116.023 127.502 113.294C125.876 110.565 125.063 107.468 125.063 104.003C125.063 100.538 125.876 97.4407 127.502 94.7119C129.129 91.9831 131.375 89.8606 134.242 88.3446C137.152 86.7853 140.426 86.0057 144.064 86.0057C147.701 86.0057 150.953 86.7853 153.821 88.3446C156.688 89.8606 158.935 91.9831 160.561 94.7119C162.187 97.4407 163 100.538 163 104.003C163 107.468 162.187 110.565 160.561 113.294C158.935 116.023 156.688 118.167 153.821 119.726C150.953 121.242 147.701 122 144.064 122ZM144.064 113.684C146.631 113.684 148.728 112.817 150.354 111.085C152.023 109.309 152.858 106.948 152.858 104.003C152.858 101.058 152.023 98.7185 150.354 96.9859C148.728 95.2101 146.631 94.322 144.064 94.322C141.496 94.322 139.378 95.2101 137.709 96.9859C136.04 98.7185 135.205 101.058 135.205 104.003C135.205 106.948 136.04 109.309 137.709 111.085C139.378 112.817 141.496 113.684 144.064 113.684Z" fill="white"/>
<defs>
<linearGradient id="paint0_linear_125_83" x1="100" y1="8.91232" x2="100" y2="211.627" gradientUnits="userSpaceOnUse">
<stop stop-color="#1C54DB"/>
<stop offset="1" stop-color="#44C5F5"/>
</linearGradient>
</defs>
</svg>
