<svg width="42" height="42" viewBox="0 0 42 42" fill="none" xmlns="http://www.w3.org/2000/svg">
<circle cx="21" cy="21" r="21" fill="#405D9A" fill-opacity="0.4"/>
<path d="M25 17V13C25 10.7909 23.2091 9 21 9H14C11.7909 9 10 10.7909 10 13V18C10 20.2091 11.7909 22 14 22H16" stroke="white" stroke-width="1.4" stroke-linecap="round"/>
<rect x="18" y="19" width="15" height="13" rx="4" stroke="white" stroke-width="1.4"/>
<path d="M23 23.5L28 23.5" stroke="white" stroke-width="1.4" stroke-linecap="round"/>
<path d="M26.9554 24C27.1752 25.1905 26.6917 27.8571 23 29" stroke="white" stroke-width="1.4" stroke-linecap="round"/>
<path d="M24.0446 25C23.8248 25.9524 24.3083 28.0857 28 29" stroke="white" stroke-width="1.4" stroke-linecap="round"/>
<path d="M25.5 23.5V22" stroke="white" stroke-width="1.4" stroke-linecap="round"/>
<path d="M15 18L17.5 13L20 18" stroke="white" stroke-width="1.4" stroke-linecap="round" stroke-linejoin="round"/>
<path d="M16.25 17H18.75" stroke="white" stroke-width="1.4" stroke-linecap="round" stroke-linejoin="round"/>
</svg>
