<svg width="42" height="42" viewBox="0 0 42 42" fill="none" xmlns="http://www.w3.org/2000/svg">
<circle cx="21" cy="21" r="21" fill="#405D9A" fill-opacity="0.4"/>
<path d="M12 23.5C12 22.1193 13.1193 21 14.5 21H14.75C15.9926 21 17 22.0074 17 23.25V23.25C17 24.4926 18.0074 25.5 19.25 25.5H22.75C23.9926 25.5 25 24.4926 25 23.25V23.25C25 22.0074 26.0074 21 27.25 21H27.5C28.8807 21 30 22.1193 30 23.5V27C30 28.6569 28.6569 30 27 30H15C13.3431 30 12 28.6569 12 27L12 23.5Z" stroke="white" stroke-width="1.4"/>
<path d="M27 19V17H24.2H23.8C22.8059 17 22 16.1941 22 15.2V15.2V12H18C16.3431 12 15 13.3431 15 15V19" stroke="white" stroke-width="1.4" stroke-linecap="round" stroke-linejoin="round"/>
<path d="M22 12L27 17" stroke="white" stroke-width="1.4" stroke-linecap="round" stroke-linejoin="round"/>
</svg>
