<svg width="196" height="36" viewBox="0 0 196 36" fill="none" xmlns="http://www.w3.org/2000/svg">
<path d="M17.573 22.2245C16.9657 22.1982 16.3533 22.2368 15.7458 22.2151C13.3785 22.1306 11.528 20.143 11.6124 17.7757C11.6969 15.4084 13.6845 13.5578 16.0518 13.6423C16.1943 13.6474 16.3348 13.6594 16.4732 13.6779C16.9942 13.7477 17.5319 13.751 18.0572 13.7698C21.3063 13.8857 24.0342 11.3459 24.1502 8.09678C24.2661 4.8477 21.7263 2.11978 18.4772 2.00382C15.2281 1.88785 12.5002 4.42774 12.3842 7.67682C12.3688 8.1089 12.4003 8.53176 12.4743 8.94048C12.7162 10.2776 12.3872 11.8505 11.1805 12.4752C10.3559 12.9021 9.36937 12.7357 8.54077 12.3166C7.80381 11.9439 6.97627 11.7211 6.09678 11.6897C2.8477 11.5738 0.119785 14.1137 0.00381824 17.3627C-0.112149 20.6118 2.42774 23.3397 5.67682 23.4557C6.51379 23.4856 7.31616 23.3392 8.04822 23.0499C8.912 22.7085 9.90634 22.6229 10.6986 23.1076C11.8667 23.8222 12.0946 25.4195 11.7795 26.7521C11.6918 27.123 11.639 27.5079 11.6249 27.9032C11.509 31.1523 14.0488 33.8802 17.2979 33.9962C20.547 34.1121 23.2749 31.5723 23.3909 28.3232C23.5069 25.0741 20.967 22.3462 17.7179 22.2302C17.6696 22.2285 17.6213 22.2266 17.573 22.2245Z" fill="white"/>
<path d="M25.9153 12.4345C28.989 11.6109 32.1484 13.4349 32.972 16.5086C33.7956 19.5823 31.9715 22.7416 28.8978 23.5652C25.8241 24.3888 22.6648 22.5648 21.8412 19.4911C21.0176 16.4174 22.8417 13.258 25.9153 12.4345Z" fill="white"/>
<path d="M60.5529 29L54.3953 7.18182H58.646L62.5771 23.2152H62.7795L66.9769 7.18182H70.8441L75.0522 23.2259H75.244L79.1751 7.18182H83.4258L77.2681 29H73.369L69.0011 13.6911H68.8306L64.4521 29H60.5529ZM90.8638 29.3196C89.2658 29.3196 87.8808 28.968 86.709 28.2649C85.5371 27.5618 84.628 26.5781 83.9817 25.3139C83.3425 24.0497 83.0229 22.5724 83.0229 20.8821C83.0229 19.1918 83.3425 17.7109 83.9817 16.4396C84.628 15.1683 85.5371 14.1811 86.709 13.478C87.8808 12.7749 89.2658 12.4233 90.8638 12.4233C92.4618 12.4233 93.8468 12.7749 95.0186 13.478C96.1905 14.1811 97.096 15.1683 97.7352 16.4396C98.3816 17.7109 98.7047 19.1918 98.7047 20.8821C98.7047 22.5724 98.3816 24.0497 97.7352 25.3139C97.096 26.5781 96.1905 27.5618 95.0186 28.2649C93.8468 28.968 92.4618 29.3196 90.8638 29.3196ZM90.8851 26.2301C91.7516 26.2301 92.476 25.9922 93.0584 25.5163C93.6408 25.0334 94.074 24.3871 94.3581 23.5774C94.6493 22.7678 94.7949 21.8658 94.7949 20.8714C94.7949 19.87 94.6493 18.9645 94.3581 18.1548C94.074 17.3381 93.6408 16.6882 93.0584 16.2053C92.476 15.7223 91.7516 15.4808 90.8851 15.4808C89.9973 15.4808 89.2587 15.7223 88.6692 16.2053C88.0868 16.6882 87.65 17.3381 87.3588 18.1548C87.0747 18.9645 86.9327 19.87 86.9327 20.8714C86.9327 21.8658 87.0747 22.7678 87.3588 23.5774C87.65 24.3871 88.0868 25.0334 88.6692 25.5163C89.2587 25.9922 89.9973 26.2301 90.8851 26.2301ZM101.378 29V12.6364H105.117V15.3636H105.288C105.586 14.419 106.097 13.6911 106.822 13.1797C107.553 12.6612 108.388 12.402 109.325 12.402C109.538 12.402 109.776 12.4126 110.039 12.4339C110.309 12.4482 110.533 12.473 110.71 12.5085V16.0561C110.547 15.9993 110.288 15.9496 109.933 15.907C109.585 15.8572 109.247 15.8324 108.921 15.8324C108.217 15.8324 107.585 15.9851 107.024 16.2905C106.47 16.5888 106.034 17.0043 105.714 17.5369C105.394 18.0696 105.235 18.6839 105.235 19.38V29H101.378ZM116.188 23.8651L116.177 19.2095H116.795L122.676 12.6364H127.182L119.949 20.6903H119.15L116.188 23.8651ZM112.673 29V7.18182H116.529V29H112.673ZM122.942 29L117.616 21.5533L120.215 18.8366L127.555 29H122.942ZM134.551 29.2876C133.266 29.2876 132.115 28.9574 131.099 28.2969C130.084 27.6364 129.281 26.6776 128.692 25.4205C128.102 24.1634 127.808 22.6364 127.808 20.8395C127.808 19.0213 128.106 17.4872 128.702 16.2372C129.306 14.9801 130.119 14.032 131.142 13.3928C132.165 12.7464 133.305 12.4233 134.562 12.4233C135.521 12.4233 136.309 12.5866 136.927 12.9134C137.545 13.233 138.035 13.62 138.397 14.0746C138.759 14.522 139.04 14.9446 139.239 15.3423H139.398V7.18182H143.266V29H139.473V26.4219H139.239C139.04 26.8196 138.752 27.2422 138.376 27.6896C137.999 28.13 137.502 28.5064 136.884 28.8189C136.266 29.1314 135.489 29.2876 134.551 29.2876ZM135.627 26.1236C136.444 26.1236 137.14 25.9034 137.715 25.4631C138.291 25.0156 138.727 24.3942 139.026 23.5987C139.324 22.8033 139.473 21.8764 139.473 20.8182C139.473 19.7599 139.324 18.8402 139.026 18.0589C138.734 17.2777 138.301 16.6705 137.726 16.2372C137.158 15.804 136.458 15.5874 135.627 15.5874C134.768 15.5874 134.05 15.8111 133.475 16.2585C132.9 16.706 132.467 17.3239 132.175 18.1122C131.884 18.9006 131.739 19.8026 131.739 20.8182C131.739 21.8409 131.884 22.7536 132.175 23.5561C132.474 24.3516 132.911 24.9801 133.486 25.4418C134.068 25.8963 134.782 26.1236 135.627 26.1236ZM154.02 29.3196C152.379 29.3196 150.962 28.9787 149.769 28.2969C148.583 27.608 147.67 26.6349 147.031 25.3778C146.392 24.1136 146.072 22.6257 146.072 20.9141C146.072 19.2308 146.392 17.7536 147.031 16.4822C147.677 15.2038 148.579 14.2095 149.737 13.4993C150.895 12.782 152.255 12.4233 153.817 12.4233C154.826 12.4233 155.777 12.5866 156.672 12.9134C157.574 13.233 158.37 13.7301 159.059 14.4048C159.755 15.0795 160.302 15.9389 160.699 16.983C161.097 18.0199 161.296 19.2557 161.296 20.6903V21.8729H147.883V19.2734H157.599C157.592 18.5348 157.432 17.8778 157.12 17.3026C156.807 16.7202 156.37 16.2621 155.809 15.9283C155.255 15.5945 154.609 15.4276 153.87 15.4276C153.082 15.4276 152.39 15.6193 151.793 16.0028C151.196 16.3793 150.731 16.8764 150.397 17.4943C150.071 18.1051 149.904 18.7763 149.897 19.5078V21.777C149.897 22.7287 150.071 23.5455 150.419 24.2273C150.767 24.902 151.253 25.4205 151.878 25.7827C152.503 26.1378 153.235 26.3153 154.073 26.3153C154.634 26.3153 155.142 26.2372 155.596 26.081C156.051 25.9176 156.445 25.6797 156.779 25.3672C157.113 25.0547 157.365 24.6676 157.535 24.206L161.136 24.6108C160.909 25.5625 160.476 26.3935 159.836 27.1037C159.204 27.8068 158.395 28.3537 157.407 28.7443C156.42 29.1278 155.291 29.3196 154.02 29.3196ZM176.892 16.9616L173.376 17.3452C173.277 16.9901 173.103 16.6562 172.854 16.3438C172.613 16.0312 172.286 15.7791 171.874 15.5874C171.462 15.3956 170.958 15.2997 170.361 15.2997C169.559 15.2997 168.884 15.4737 168.337 15.8217C167.797 16.1697 167.531 16.6207 167.538 17.1747C167.531 17.6506 167.705 18.0376 168.06 18.3359C168.422 18.6342 169.019 18.8793 169.85 19.071L172.641 19.6676C174.189 20.0014 175.34 20.5305 176.093 21.255C176.853 21.9794 177.236 22.9276 177.243 24.0994C177.236 25.1293 176.934 26.0384 176.338 26.8267C175.748 27.608 174.928 28.2187 173.877 28.6591C172.826 29.0994 171.618 29.3196 170.255 29.3196C168.252 29.3196 166.64 28.9006 165.418 28.0625C164.196 27.2173 163.468 26.0419 163.234 24.5362L166.995 24.174C167.165 24.9126 167.527 25.4702 168.081 25.8466C168.635 26.223 169.356 26.4112 170.244 26.4112C171.16 26.4112 171.895 26.223 172.449 25.8466C173.01 25.4702 173.291 25.005 173.291 24.451C173.291 23.9822 173.11 23.5952 172.748 23.2898C172.392 22.9844 171.838 22.75 171.086 22.5866L168.294 22.0007C166.725 21.674 165.564 21.1236 164.811 20.3494C164.058 19.5682 163.685 18.581 163.692 17.3878C163.685 16.3793 163.958 15.5057 164.512 14.767C165.073 14.0213 165.851 13.446 166.846 13.0412C167.847 12.6293 169.001 12.4233 170.308 12.4233C172.225 12.4233 173.735 12.8317 174.836 13.6484C175.944 14.4652 176.629 15.5696 176.892 16.9616ZM183.339 23.8651L183.328 19.2095H183.946L189.827 12.6364H194.333L187.1 20.6903H186.301L183.339 23.8651ZM179.823 29V7.18182H183.68V29H179.823ZM190.093 29L184.766 21.5533L187.366 18.8366L194.706 29H190.093Z" fill="white"/>
</svg>
