<svg width="201" height="45" viewBox="0 0 201 45" fill="none" xmlns="http://www.w3.org/2000/svg">
<path d="M1.85999 14.9122L8.35999 18.7664M27.86 14.9122L21.36 18.7664" stroke="white" stroke-width="2"/>
<path d="M12.9593 35.7935L3.6859 30.2949C2.554 29.6237 1.85999 28.4053 1.85999 27.0894V16.9432C1.85999 15.6273 2.554 14.4089 3.6859 13.7378L12.9593 8.23916C14.1312 7.54432 15.5888 7.54432 16.7606 8.23916L26.0341 13.7378C27.166 14.4089 27.86 15.6273 27.86 16.9432V27.0894C27.86 28.4053 27.166 29.6237 26.0341 30.2949L16.7606 35.7935C15.5888 36.4883 14.1312 36.4883 12.9593 35.7935Z" stroke="white" stroke-width="2"/>
<path d="M13.6315 28.5133L9.61587 26.2288C8.83949 25.7871 8.35999 24.9626 8.35999 24.0694V20.055C8.35999 19.1618 8.83949 18.3373 9.61587 17.8957L13.6315 15.6111C14.3932 15.1778 15.3268 15.1778 16.0885 15.6111L20.1041 17.8957C20.8805 18.3373 21.36 19.1618 21.36 20.055V24.0694C21.36 24.9626 20.8805 25.7871 20.1041 26.2288L16.0885 28.5133C15.3268 28.9467 14.3932 28.9467 13.6315 28.5133Z" stroke="white" stroke-width="2"/>
<path d="M14.86 27.9122L14.86 36.3622" stroke="white" stroke-width="2"/>
<path d="M45.7861 35.0164L38.627 8.83454H41.8486L47.3202 30.1584H47.5759L53.1498 8.83454H56.7293L62.3032 30.1584H62.5588L68.0304 8.83454H71.252L64.0929 35.0164H60.8202L55.0418 14.1527H54.8373L49.0588 35.0164H45.7861ZM80.2224 35.4254C78.4496 35.4254 76.8942 35.0036 75.5562 34.1598C74.2266 33.3161 73.1869 32.1357 72.4369 30.6186C71.6954 29.1016 71.3246 27.3289 71.3246 25.3004C71.3246 23.255 71.6954 21.4695 72.4369 19.9439C73.1869 18.4183 74.2266 17.2337 75.5562 16.3899C76.8942 15.5462 78.4496 15.1243 80.2224 15.1243C81.9951 15.1243 83.5462 15.5462 84.8758 16.3899C86.2139 17.2337 87.2536 18.4183 87.9951 19.9439C88.7451 21.4695 89.1201 23.255 89.1201 25.3004C89.1201 27.3289 88.7451 29.1016 87.9951 30.6186C87.2536 32.1357 86.2139 33.3161 84.8758 34.1598C83.5462 35.0036 81.9951 35.4254 80.2224 35.4254ZM80.2224 32.7152C81.569 32.7152 82.6769 32.3701 83.5462 31.6797C84.4156 30.9894 85.059 30.0817 85.4766 28.9567C85.8942 27.8317 86.1031 26.6129 86.1031 25.3004C86.1031 23.9879 85.8942 22.7649 85.4766 21.6314C85.059 20.4979 84.4156 19.5817 83.5462 18.8828C82.6769 18.184 81.569 17.8345 80.2224 17.8345C78.8758 17.8345 77.7678 18.184 76.8985 18.8828C76.0292 19.5817 75.3857 20.4979 74.9681 21.6314C74.5505 22.7649 74.3417 23.9879 74.3417 25.3004C74.3417 26.6129 74.5505 27.8317 74.9681 28.9567C75.3857 30.0817 76.0292 30.9894 76.8985 31.6797C77.7678 32.3701 78.8758 32.7152 80.2224 32.7152ZM93.0056 35.0164V15.38H95.9203V18.3459H96.1249C96.4828 17.3743 97.1306 16.586 98.0681 15.9808C99.0056 15.3757 100.062 15.0732 101.239 15.0732C101.46 15.0732 101.737 15.0774 102.069 15.086C102.402 15.0945 102.653 15.1073 102.824 15.1243V18.1925C102.721 18.1669 102.487 18.1286 102.121 18.0774C101.763 18.0178 101.383 17.9879 100.983 17.9879C100.028 17.9879 99.176 18.1882 98.426 18.5888C97.6845 18.9808 97.0965 19.5263 96.6618 20.2252C96.2357 20.9155 96.0226 21.7039 96.0226 22.5902V35.0164H93.0056ZM108.493 27.8573L108.441 24.1243H109.055L117.646 15.38H121.379L112.226 24.6357H111.97L108.493 27.8573ZM105.68 35.0164V8.83454H108.697V35.0164H105.68ZM118.157 35.0164L110.487 25.3004L112.635 23.2039L121.993 35.0164H118.157ZM131.148 35.4254C129.512 35.4254 128.067 35.0121 126.815 34.1854C125.562 33.3502 124.582 32.174 123.874 30.657C123.167 29.1314 122.813 27.3289 122.813 25.2493C122.813 23.1868 123.167 21.397 123.874 19.88C124.582 18.3629 125.566 17.1911 126.827 16.3644C128.089 15.5377 129.546 15.1243 131.199 15.1243C132.478 15.1243 133.488 15.3374 134.229 15.7635C134.979 16.1811 135.55 16.6584 135.942 17.1953C136.343 17.7237 136.654 18.1584 136.876 18.4993H137.131V8.83454H140.148V35.0164H137.234V31.9993H136.876C136.654 32.3573 136.339 32.809 135.93 33.3544C135.52 33.8914 134.937 34.3729 134.178 34.799C133.42 35.2166 132.41 35.4254 131.148 35.4254ZM131.557 32.7152C132.768 32.7152 133.79 32.3999 134.626 31.7692C135.461 31.13 136.096 30.2479 136.53 29.1229C136.965 27.9894 137.182 26.6811 137.182 25.1982C137.182 23.7323 136.969 22.4496 136.543 21.3502C136.117 20.2422 135.486 19.3814 134.651 18.7678C133.816 18.1456 132.785 17.8345 131.557 17.8345C130.279 17.8345 129.214 18.1627 128.361 18.8189C127.518 19.4666 126.883 20.3487 126.457 21.4652C126.039 22.5732 125.83 23.8175 125.83 25.1982C125.83 26.5959 126.043 27.8658 126.469 29.0078C126.904 30.1414 127.543 31.0448 128.387 31.7181C129.239 32.3828 130.296 32.7152 131.557 32.7152ZM153.606 35.4254C151.714 35.4254 150.082 35.0078 148.71 34.1726C147.346 33.3289 146.293 32.1527 145.552 30.6442C144.819 29.1272 144.452 27.3629 144.452 25.3516C144.452 23.3402 144.819 21.5675 145.552 20.0334C146.293 18.4908 147.325 17.2891 148.646 16.4283C149.975 15.559 151.526 15.1243 153.299 15.1243C154.322 15.1243 155.332 15.2948 156.329 15.6357C157.326 15.9766 158.234 16.5306 159.052 17.2976C159.87 18.0561 160.522 19.0618 161.008 20.3147C161.494 21.5675 161.737 23.1101 161.737 24.9425V26.2209H146.6V23.6129H158.668C158.668 22.505 158.447 21.5164 158.004 20.647C157.569 19.7777 156.947 19.0916 156.137 18.5888C155.336 18.086 154.39 17.8345 153.299 17.8345C152.097 17.8345 151.058 18.1328 150.18 18.7294C149.31 19.3175 148.641 20.0845 148.173 21.0306C147.704 21.9766 147.47 22.9908 147.47 24.0732V25.8118C147.47 27.2948 147.725 28.5519 148.237 29.5831C148.756 30.6058 149.477 31.3857 150.397 31.9226C151.318 32.451 152.387 32.7152 153.606 32.7152C154.398 32.7152 155.114 32.6044 155.754 32.3828C156.401 32.1527 156.96 31.8118 157.428 31.3601C157.897 30.8999 158.259 30.3289 158.515 29.647L161.43 30.4652C161.123 31.4539 160.607 32.3232 159.883 33.0732C159.158 33.8147 158.264 34.3942 157.198 34.8118C156.133 35.2209 154.935 35.4254 153.606 35.4254ZM179.515 19.7777L176.805 20.5448C176.634 20.0931 176.383 19.6541 176.051 19.228C175.727 18.7933 175.284 18.4354 174.721 18.1541C174.159 17.8729 173.438 17.7323 172.561 17.7323C171.359 17.7323 170.357 18.0093 169.556 18.5632C168.764 19.1087 168.367 19.8033 168.367 20.647C168.367 21.397 168.64 21.9894 169.186 22.424C169.731 22.8587 170.583 23.2209 171.742 23.5107L174.657 24.2266C176.413 24.6527 177.721 25.3047 178.582 26.1826C179.443 27.0519 179.873 28.1726 179.873 29.5448C179.873 30.6698 179.549 31.6754 178.901 32.5618C178.262 33.4482 177.367 34.147 176.217 34.6584C175.066 35.1698 173.728 35.4254 172.203 35.4254C170.2 35.4254 168.542 34.9908 167.23 34.1215C165.917 33.2522 165.086 31.9823 164.737 30.3118L167.6 29.5959C167.873 30.6527 168.389 31.4453 169.147 31.9737C169.914 32.5022 170.916 32.7664 172.151 32.7664C173.558 32.7664 174.674 32.4681 175.501 31.8715C176.336 31.2664 176.754 30.5419 176.754 29.6982C176.754 29.0164 176.515 28.4453 176.038 27.9851C175.561 27.5164 174.828 27.1669 173.839 26.9368L170.566 26.1698C168.768 25.7436 167.447 25.0831 166.603 24.1882C165.768 23.2848 165.35 22.1556 165.35 20.8004C165.35 19.6925 165.661 18.7124 166.284 17.8601C166.914 17.0078 167.771 16.3388 168.853 15.853C169.944 15.3672 171.18 15.1243 172.561 15.1243C174.504 15.1243 176.029 15.5504 177.137 16.4027C178.254 17.255 179.046 18.38 179.515 19.7777ZM186.507 27.8573L186.456 24.1243H187.07L195.661 15.38H199.394L190.24 24.6357H189.984L186.507 27.8573ZM183.695 35.0164V8.83454H186.712V35.0164H183.695ZM196.172 35.0164L188.501 25.3004L190.649 23.2039L200.007 35.0164H196.172Z" fill="white"/>
</svg>
