<?xml version="1.0" encoding="utf-8"?>
<!-- Generator: Adobe Illustrator 25.2.0, SVG Export Plug-In . SVG Version: 6.00 Build 0)  -->
<svg version="1.1" id="Layer_1" xmlns="http://www.w3.org/2000/svg" xmlns:xlink="http://www.w3.org/1999/xlink" x="0px" y="0px"
	 viewBox="0 0 36 30.5" style="enable-background:new 0 0 36 30.5;" xml:space="preserve">
<style type="text/css">
	.st0{fill:#FFFFFF;}
</style>
<g transform="translate(0.5 -3.5)">
	<g>
		<path class="st0" d="M17.5,6.5L17.5,6.5z M2.5,15.5L2.5,15.5z M11.5,20.3l-4.8,3.9c-0.6,0.5-1.2,0.3-1.2-0.6v-5.2h-3
			c-1.7,0-3-1.3-3-3v-9c0-1.7,1.3-3,3-3h15c1.7,0,3,1.3,3,3v3h-3c0-2,0-3,0-3h-15v9h6v3.4l3-2.4L11.5,20.3z"/>
	</g>
	<g>
		<path class="st0" d="M17.5,16L17.5,16z M32.5,25L32.5,25z M32.5,16h-15c0,0,0,3,0,9h4.8l4.2,3.4V25h6L32.5,16z M29.5,28v5.2
			c0,0.8-0.5,1.1-1.2,0.6L21.2,28h-3.7c-1.7,0-3-1.3-3-3v-9c0-1.7,1.3-3,3-3h15c1.7,0,3,1.3,3,3v9c0,1.7-1.3,3-3,3L29.5,28z"/>
	</g>
</g>
</svg>
