<svg xmlns="http://www.w3.org/2000/svg" width="31.209" height="32" viewBox="0 0 31.209 32"><defs><style>.a{fill:#fff;}</style></defs><g transform="translate(-306.127 -291.501)"><path class="a" d="M318.288,326.221a20.576,20.576,0,0,0-8.111-1.663,24.585,24.585,0,0,0-3.38.26,8.038,8.038,0,0,0,.364,1.2,18.894,18.894,0,0,1,2.964-.208,19.414,19.414,0,0,1,12.738,4.731,13.117,13.117,0,0,0,1.143-.676A21.451,21.451,0,0,0,318.288,326.221Z" transform="translate(-0.255 -12.547)"/><path class="a" d="M340.293,309.617a36.812,36.812,0,0,0-20.589-10.45,30.287,30.287,0,0,0-2.6,1.924,34.508,34.508,0,0,1,22.2,10.71,11.673,11.673,0,0,0,1.143-2.08Z" transform="translate(-4.167 -2.91)"/><path class="a" d="M309.06,330.766c.156.312.312.676.468.988.52-.051,1.04-.1,1.56-.1a16.309,16.309,0,0,1,9.567,3.12c.312-.156.624-.364.936-.52a16.793,16.793,0,0,0-10.5-3.587A8.864,8.864,0,0,0,309.06,330.766Z" transform="translate(-1.113 -14.856)"/><path class="a" d="M309.974,318.608a24.015,24.015,0,0,0-3.847.312,14.573,14.573,0,0,0,.052,1.508,22.905,22.905,0,0,1,3.8-.312,23.165,23.165,0,0,1,15.962,6.4l1.351-.78a23.64,23.64,0,0,0-7.746-5.2A24.389,24.389,0,0,0,309.974,318.608Z" transform="translate(0 -10.288)"/><path class="a" d="M317.035,342.44l.832-.468a10.007,10.007,0,0,0-1.768-.571A5.845,5.845,0,0,0,317.035,342.44Z" transform="translate(-3.785 -18.939)"/><path class="a" d="M311.993,336.121c.208.312.416.624.572.884a12.361,12.361,0,0,1,5.875,1.663l.884-.52a13.68,13.68,0,0,0-7.226-2.028Z" transform="translate(-2.226 -16.935)"/><path class="a" d="M348.781,298.129a10.711,10.711,0,0,0-2.912-4.887c-1.716-1.456-4.575-2.183-8.318-1.456A45.246,45.246,0,0,1,348.781,298.129Z" transform="translate(-11.927)"/><path class="a" d="M335.733,315.651c-.26-.26-.52-.52-.78-.832A33.017,33.017,0,0,0,324.5,307.8a31.949,31.949,0,0,0-11.854-2.6c-.571.52-1.091,1.04-1.663,1.611a3.816,3.816,0,0,0-.416.468h1.143a30.689,30.689,0,0,1,22.565,9.827Z" transform="translate(-1.686 -5.2)"/><path class="a" d="M329.618,293.721a28.742,28.742,0,0,0-3.38,1.611,38.634,38.634,0,0,1,18.457,9.93,11.438,11.438,0,0,0,.26-2.963,41.122,41.122,0,0,0-11.178-7.071A39.637,39.637,0,0,0,329.618,293.721Z" transform="translate(-7.633 -0.843)"/><path class="a" d="M330.443,320.327a28.21,28.21,0,0,0-20.277-8.423,25.349,25.349,0,0,0-2.808.156,11.079,11.079,0,0,0-.728,1.82,26.051,26.051,0,0,1,3.484-.208,26.782,26.782,0,0,1,19.444,8.319c.52-.312.988-.676,1.508-.988C330.806,320.743,330.65,320.535,330.443,320.327Z" transform="translate(-0.191 -7.744)"/></g></svg>