<svg width="24" height="24" viewBox="0 0 24 24" fill="none" xmlns="http://www.w3.org/2000/svg">
<circle cx="12" cy="12" r="12" fill="#A6A8BA" fill-opacity="0.5"/>
<g clip-path="url(#clip0)">
<path d="M6.22113 9.18262C5.94545 9.18262 5.71155 9.27875 5.51927 9.47103C5.327 9.6633 5.23083 9.89402 5.23083 10.1633V14.2979C5.23083 14.5739 5.32697 14.8076 5.51927 14.9999C5.71155 15.1922 5.94545 15.2884 6.22113 15.2884C6.49661 15.2884 6.72909 15.1922 6.91838 14.9999C7.1073 14.8077 7.20202 14.5739 7.20202 14.2979V10.1633C7.20202 9.89399 7.10588 9.6633 6.91358 9.47103C6.72128 9.27875 6.49041 9.18262 6.22113 9.18262Z" fill="white"/>
<path d="M14.1827 5.47103L14.8654 4.21162C14.9102 4.12824 14.8943 4.06431 14.8175 4.01935C14.7341 3.98058 14.67 4.00023 14.6252 4.07689L13.9329 5.34637C13.3238 5.07705 12.6796 4.94215 12.0002 4.94215C11.3207 4.94215 10.6763 5.07708 10.0674 5.34637L9.37516 4.07689C9.33017 4.00023 9.26609 3.98075 9.18289 4.01935C9.10588 4.06451 9.08994 4.12824 9.13492 4.21162L9.81765 5.47103C9.12537 5.82407 8.57402 6.31574 8.16378 6.94712C7.75354 7.57885 7.54834 8.26919 7.54834 9.01936H16.4424C16.4424 8.26937 16.2371 7.579 15.8269 6.94712C15.4166 6.31574 14.8685 5.82407 14.1827 5.47103ZM10.2356 7.30285C10.1618 7.37686 10.0736 7.41369 9.97113 7.41369C9.86843 7.41369 9.78204 7.37686 9.71157 7.30285C9.64109 7.2292 9.60585 7.14136 9.60585 7.03852C9.60585 6.93601 9.64109 6.84801 9.71157 6.77418C9.78204 6.70052 9.86863 6.66369 9.97113 6.66369C10.0736 6.66369 10.1618 6.70052 10.2356 6.77418C10.3093 6.84818 10.3463 6.93601 10.3463 7.03852C10.3461 7.14119 10.3091 7.2292 10.2356 7.30285ZM14.2884 7.30285C14.2178 7.37686 14.1312 7.41369 14.0289 7.41369C13.9261 7.41369 13.838 7.37686 13.7643 7.30285C13.6905 7.2292 13.6537 7.14136 13.6537 7.03852C13.6537 6.93601 13.6905 6.84801 13.7643 6.77418C13.838 6.70052 13.9261 6.66369 14.0289 6.66369C14.1314 6.66369 14.2178 6.70052 14.2884 6.77418C14.3589 6.84818 14.3941 6.93601 14.3941 7.03852C14.3941 7.14119 14.3589 7.2292 14.2884 7.30285Z" fill="white"/>
<path d="M7.58655 15.7691C7.58655 16.0643 7.68905 16.3141 7.89408 16.5192C8.09928 16.7242 8.34913 16.8267 8.64408 16.8267H9.35565L9.3654 19.0096C9.3654 19.2853 9.46154 19.5193 9.65381 19.7116C9.84608 19.9039 10.077 20.0001 10.3461 20.0001C10.6216 20.0001 10.8556 19.9039 11.0479 19.7116C11.2402 19.5193 11.3364 19.2853 11.3364 19.0096V16.8269H12.6633V19.0096C12.6633 19.2853 12.7594 19.5193 12.9517 19.7116C13.144 19.9039 13.3778 20.0001 13.6535 20.0001C13.929 20.0001 14.1631 19.9039 14.3554 19.7116C14.5477 19.5193 14.6438 19.2853 14.6438 19.0096V16.8269H15.365C15.6534 16.8269 15.9 16.7244 16.1054 16.5193C16.3104 16.3143 16.413 16.0645 16.413 15.7693V9.36523H7.58655V15.7691Z" fill="white"/>
<path d="M17.7789 9.18262C17.5096 9.18262 17.2789 9.27734 17.0866 9.46625C16.8944 9.65552 16.7982 9.888 16.7982 10.1633V14.2979C16.7982 14.5739 16.8943 14.8076 17.0866 14.9999C17.2789 15.1922 17.5098 15.2884 17.7789 15.2884C18.0544 15.2884 18.2885 15.1922 18.4808 14.9999C18.6731 14.8076 18.7692 14.5739 18.7692 14.2979V10.1633C18.7692 9.88798 18.6731 9.65552 18.4808 9.46625C18.2885 9.27734 18.0544 9.18262 17.7789 9.18262Z" fill="white"/>
</g>
<defs>
<clipPath id="clip0">
<rect width="16" height="16" fill="white" transform="translate(4 4)"/>
</clipPath>
</defs>
</svg>
