<svg width="22" height="22" viewBox="0 0 21 21" fill="none" xmlns="http://www.w3.org/2000/svg">
<path fill-rule="evenodd" clip-rule="evenodd" d="M0.183367 5.12133C-0.254884 4.0257 0.112315 2.77245 1.07254 2.08657L3.14852 0.603731C4.43773 -0.317138 6.20375 -0.170979 7.32403 0.949307L8.90835 2.53363C9.83708 3.46236 10.0146 4.90399 9.33881 6.03024C8.76784 6.98184 8.9178 8.19992 9.70251 8.98464L11.8608 11.1429C12.6455 11.9276 13.8636 12.0776 14.8152 11.5066C15.9414 10.8309 17.3831 11.0084 18.3118 11.9371L19.8961 13.5214C21.0164 14.6417 21.1626 16.4077 20.2417 17.6969L18.7589 19.7729C18.073 20.7331 16.8197 21.1003 15.7241 20.6621L14.6152 20.2185C11.4579 18.9556 8.58999 17.0645 6.18546 14.66C3.78093 12.2554 1.88986 9.38757 0.626944 6.23027L0.183367 5.12133ZM1.9444 3.30717C1.54665 3.59128 1.39455 4.11041 1.57608 4.56424L2.01966 5.67319C3.20713 8.64187 4.98523 11.3384 7.24612 13.5993C9.507 15.8602 12.2036 17.6383 15.1722 18.8258L16.2812 19.2694C16.735 19.4509 17.2542 19.2988 17.5383 18.901L19.0211 16.8251C19.5158 16.1325 19.4373 15.1839 18.8355 14.5821L17.2511 12.9977C16.8091 12.5557 16.123 12.4712 15.5869 12.7929C14.0451 13.718 12.0716 13.475 10.8001 12.2036L8.64185 10.0453C7.37043 8.77388 7.12747 6.80031 8.05257 5.25849C8.37419 4.72246 8.28972 4.03632 7.84769 3.59429L6.26337 2.00997C5.66158 1.40817 4.71291 1.32966 4.02037 1.82433L1.9444 3.30717Z" fill="#1C54DB"/>
</svg>
