<svg width="24" height="22" viewBox="0 0 24 22" fill="none" xmlns="http://www.w3.org/2000/svg">
<path d="M1 9.23077C1 7.02163 2.79086 5.23077 5 5.23077H14.7692C16.9784 5.23077 18.7692 7.02163 18.7692 9.23077V14.1175C18.7692 16.3267 16.9784 18.1175 14.7692 18.1175H12.1194C10.7306 18.1175 9.44114 18.8379 8.71309 20.0207L8.51505 20.3424C8.12454 20.9768 7.20238 20.9768 6.81187 20.3424L6.27702 19.4735C5.75828 18.6308 4.83955 18.1175 3.84999 18.1175V18.1175C2.27599 18.1175 1 16.8415 1 15.2675V9.23077Z" stroke="#1C54DB" stroke-width="1.4"/>
<path d="M5.23077 9.94354H14.5385" stroke="#1C54DB" stroke-width="1.4" stroke-linecap="round"/>
<path d="M5.23077 13.0855H11.1538" stroke="#1C54DB" stroke-width="1.4" stroke-linecap="round"/>
<path d="M18.7692 13.6923H19C21.2091 13.6923 23 11.9015 23 9.69231V5C23 2.79086 21.2091 1 19 1H9.23077C7.02163 1 5.23077 2.79086 5.23077 5V5.23077" stroke="#1C54DB" stroke-width="1.5"/>
</svg>