<svg width="24" height="24" viewBox="0 0 24 24" fill="none" xmlns="http://www.w3.org/2000/svg">
<path d="M18.5531 7.35484C18.478 7.35484 18.4025 7.33277 18.337 7.28903C18.2105 7.20387 18.1458 7.0529 18.1714 6.90232L18.4257 5.41935H17.3918C16.7515 5.41935 16.2305 4.89832 16.2305 4.25806V1.16129C16.2305 0.521032 16.7515 0 17.3918 0H22.8111C23.4514 0 23.9724 0.521032 23.9724 1.16129V4.25806C23.9724 4.89832 23.4514 5.41935 22.8111 5.41935H21.7609L18.7582 7.296C18.6955 7.3351 18.6243 7.35484 18.5531 7.35484Z" fill="#715DFF"/>
<path d="M3.87133 16.2854L4.87231 15.2845L2.54987 12.962L1.54889 13.963L3.87133 16.2854Z" fill="#64DFDF"/>
<path d="M10.0842 22.4989L11.1983 21.4781L8.87567 19.1555L7.75464 20.1693L10.0842 22.4989Z" fill="#64DFDF"/>
<path d="M18.5809 18.2144C18.2677 17.2757 17.4687 16.5828 16.4948 16.4055L13.9078 15.9348V15.7343C14.358 15.473 14.7498 15.1235 15.0618 14.7097H15.8433C16.4836 14.7097 17.0046 14.1886 17.0046 13.5484V8.9032C17.0046 6.12849 14.747 3.87094 11.9723 3.87094C9.19762 3.87094 6.94007 6.12849 6.94007 8.9032V11.6129C6.94007 12.3592 7.47079 12.9836 8.17453 13.1291C8.39169 14.2417 9.08691 15.1831 10.0368 15.7343V15.9348L7.44949 16.4055C6.47595 16.5828 5.67659 17.2757 5.36382 18.2144L5.20898 18.6793L3.89053 17.3609C3.73956 17.2099 3.73956 16.9641 3.89053 16.8131L5.41956 15.2845L2.54962 12.4146L0.821624 14.1426C0.309883 14.6543 0.0280762 15.3348 0.0280762 16.0587C0.0280762 16.7826 0.309883 17.4627 0.821624 17.9744L6.05324 23.206C6.56498 23.7178 7.24549 24 7.96937 24C8.69324 24 9.37337 23.7178 9.87311 23.2177L11.7587 21.49L11.1707 20.9032H19.477L18.5809 18.2144ZM11.9723 17.2591L10.811 16.0978V16.0796C11.178 16.1949 11.5678 16.258 11.9723 16.258C12.3768 16.258 12.7667 16.1949 13.1336 16.0796V16.0978L11.9723 17.2591ZM15.8433 13.9355H15.5178C15.63 13.6796 15.7152 13.4098 15.7701 13.1291C15.9358 13.0947 16.0883 13.0289 16.2304 12.946V13.5484C16.2304 13.762 16.0566 13.9355 15.8433 13.9355ZM15.8433 10.9463C16.0736 11.0806 16.2304 11.3276 16.2304 11.6129C16.2304 11.8982 16.0736 12.1451 15.8433 12.2795V10.9463ZM7.71427 11.6129C7.71427 11.3276 7.87104 11.0806 8.10137 10.9463V12.2795C7.87104 12.1451 7.71427 11.8982 7.71427 11.6129ZM8.10137 9.67739V10.1195C7.96356 10.1555 7.83427 10.2097 7.71427 10.2797V8.9032C7.71427 6.55546 9.62459 4.64513 11.9723 4.64513C14.3201 4.64513 16.2304 6.55546 16.2304 8.9032V10.2797C16.1104 10.2097 15.9811 10.1551 15.8433 10.1195V9.67739H15.4562C14.3116 9.67739 13.2354 9.23146 12.4256 8.42204L11.9723 7.96875L11.519 8.42204C10.7092 9.23146 9.63311 9.67739 8.48846 9.67739H8.10137ZM8.87556 12.3871V10.4369C10.038 10.3494 11.1219 9.86978 11.9723 9.06114C12.8228 9.86978 13.9067 10.3498 15.0691 10.4369V12.3871C15.0691 12.9515 14.915 13.4795 14.6503 13.9355H11.9723V14.7097H14.0139C13.4681 15.19 12.7547 15.4838 11.9723 15.4838C10.2648 15.4838 8.87556 14.0946 8.87556 12.3871ZM4.32446 15.2845L3.90408 15.7049L2.12885 13.9297L2.54924 13.5093L4.32446 15.2845ZM7.96859 23.2258C7.45182 23.2258 6.96562 23.0241 6.59982 22.6587L1.36821 17.4275C1.00279 17.062 0.801495 16.5758 0.801495 16.0591C0.801495 15.5419 1.00279 15.0557 1.36821 14.6903L1.58111 14.4774L3.35633 16.2526L3.3424 16.2666C2.88988 16.7195 2.88988 17.4561 3.3424 17.909L6.11827 20.6849C6.33775 20.904 6.62924 21.0251 6.93969 21.0251C7.25014 21.0251 7.54162 20.9044 7.74679 20.6984L7.77582 20.6725L9.55917 22.4558L9.33698 22.6595C8.97156 23.0241 8.48537 23.2258 7.96859 23.2258ZM10.1305 21.9317L8.35104 20.1522L8.8624 19.69L10.6388 21.4664L10.1305 21.9317ZM10.3965 20.129L8.88872 18.6213L7.21337 20.1367C7.06743 20.2835 6.81233 20.2835 6.66601 20.1367L5.82059 19.2913L6.09775 18.4591C6.32111 17.7886 6.89208 17.2935 7.58769 17.1666L10.2935 16.6749L11.9723 18.3538L13.6508 16.6753L16.3562 17.1669C17.0518 17.2939 17.6228 17.7886 17.8461 18.4595L18.4032 20.129H10.3965Z" fill="#292F58"/>
<path d="M22.4242 1.54843H17.7791V2.32262H22.4242V1.54843Z" fill="white"/>
<path d="M20.8758 3.09679H17.7791V3.87098H20.8758V3.09679Z" fill="white"/>
<path d="M22.4239 3.09679H21.6497V3.87098H22.4239V3.09679Z" fill="white"/>
</svg>
