<svg width="16" height="17" viewBox="0 0 16 17" fill="none" xmlns="http://www.w3.org/2000/svg">
<path d="M15.75 2.0625C15.75 1.60547 15.5742 1.21875 15.2578 0.867188C14.9062 0.550781 14.5195 0.375 14.0625 0.375H1.6875C1.19531 0.375 0.808594 0.550781 0.492188 0.867188C0.140625 1.21875 0 1.60547 0 2.0625V14.4375C0 14.9297 0.140625 15.3164 0.492188 15.6328C0.808594 15.9844 1.19531 16.125 1.6875 16.125H8.61328V9.90234H6.46875V7.51172H8.61328V5.75391C8.61328 4.76953 8.85938 4.03125 9.42188 3.46875C9.98438 2.90625 10.7227 2.625 11.6719 2.625C12.375 2.625 13.0078 2.66016 13.5 2.73047V4.83984H12.2344C11.7773 4.83984 11.4609 4.94531 11.2852 5.15625C11.1445 5.36719 11.0742 5.64844 11.0742 6V7.51172H13.5L13.1836 9.90234H11.0742V16.125H14.0625C14.5195 16.125 14.9062 15.9844 15.2578 15.6328C15.5742 15.3164 15.75 14.9297 15.75 14.4375V2.0625Z" fill="#162741" fill-opacity="0.7"/>
</svg>
