<svg width="24" height="24" viewBox="0 0 24 24" fill="none" xmlns="http://www.w3.org/2000/svg">
<g clip-path="url(#clip0)">
<path d="M21.5833 4.71C20.5151 3.29316 19.142 2.13452 17.5657 1.31974C15.9894 0.504947 14.2502 0.0548451 12.4765 0.00270131C9.69012 -0.0530987 7.76532 0.784201 6.67632 1.4574C8.13342 0.612301 10.2421 0.132901 12.0883 0.156601C16.8373 0.216601 21.9379 3.4509 22.6954 9.2805C23.5654 15.9723 18.9043 21.5574 12.3475 21.5745C5.13402 21.5928 0.74652 15.2058 1.89342 9.4689C1.91475 9.18761 1.95615 8.90819 2.01732 8.6328C2.15884 7.16248 2.58613 5.73394 3.27522 4.4274C2.44452 4.8573 1.38672 6.2169 0.86472 7.4763C0.104852 9.39781 -0.163055 11.4787 0.0853197 13.53C0.10332 13.6854 0.11952 13.8405 0.13992 13.9947C0.450991 15.7859 1.16436 17.4832 2.22632 18.9588C3.28829 20.4344 4.67117 21.6498 6.27085 22.5136C7.87054 23.3774 9.64534 23.867 11.4616 23.9456C13.2779 24.0242 15.0884 23.6897 16.7567 22.9674C18.4251 22.245 19.9078 21.1536 21.0933 19.7753C22.2787 18.3969 23.1361 16.7676 23.6007 15.01C24.0654 13.2524 24.1252 11.4122 23.7758 9.62814C23.4263 7.84404 22.6767 6.16246 21.5833 4.71Z" fill="url(#paint0_radial)"/>
<path opacity="0.67" d="M21.5833 4.71C20.5151 3.29316 19.142 2.13452 17.5657 1.31974C15.9894 0.504947 14.2502 0.0548451 12.4765 0.00270131C9.69012 -0.0530987 7.76532 0.784201 6.67632 1.4574C8.13342 0.612301 10.2421 0.132901 12.0883 0.156601C16.8373 0.216601 21.9379 3.4509 22.6954 9.2805C23.5654 15.9723 18.9043 21.5574 12.3475 21.5745C5.13402 21.5928 0.74652 15.2058 1.89342 9.4689C1.91475 9.18761 1.95615 8.90819 2.01732 8.6328C2.15884 7.16248 2.58613 5.73394 3.27522 4.4274C2.44452 4.8573 1.38672 6.2169 0.86472 7.4763C0.104852 9.39781 -0.163055 11.4787 0.0853197 13.53C0.10332 13.6854 0.11952 13.8405 0.13992 13.9947C0.450991 15.7859 1.16436 17.4832 2.22632 18.9588C3.28829 20.4344 4.67117 21.6498 6.27085 22.5136C7.87054 23.3774 9.64534 23.867 11.4616 23.9456C13.2779 24.0242 15.0884 23.6897 16.7567 22.9674C18.4251 22.245 19.9078 21.1536 21.0933 19.7753C22.2787 18.3969 23.1361 16.7676 23.6007 15.01C24.0654 13.2524 24.1252 11.4122 23.7758 9.62814C23.4263 7.84404 22.6767 6.16246 21.5833 4.71Z" fill="url(#paint1_radial)"/>
<path d="M21.5833 4.71C20.5151 3.29316 19.142 2.13452 17.5657 1.31974C15.9894 0.504947 14.2502 0.0548451 12.4765 0.00270131C9.69012 -0.0530987 7.76532 0.784201 6.67632 1.4574C8.13342 0.612301 10.2421 0.132901 12.0883 0.156601C16.8373 0.216601 21.9379 3.4509 22.6954 9.2805C23.5654 15.9723 18.9043 21.5574 12.3475 21.5745C5.13402 21.5928 0.74652 15.2058 1.89342 9.4689C1.91475 9.18761 1.95615 8.90819 2.01732 8.6328C2.15884 7.16248 2.58613 5.73394 3.27522 4.4274C2.44452 4.8573 1.38672 6.2169 0.86472 7.4763C0.104852 9.39781 -0.163055 11.4787 0.0853197 13.53C0.10332 13.6854 0.11952 13.8405 0.13992 13.9947C0.450991 15.7859 1.16436 17.4832 2.22632 18.9588C3.28829 20.4344 4.67117 21.6498 6.27085 22.5136C7.87054 23.3774 9.64534 23.867 11.4616 23.9456C13.2779 24.0242 15.0884 23.6897 16.7567 22.9674C18.4251 22.245 19.9078 21.1536 21.0933 19.7753C22.2787 18.3969 23.1361 16.7676 23.6007 15.01C24.0654 13.2524 24.1252 11.4122 23.7758 9.62814C23.4263 7.84404 22.6767 6.16246 21.5833 4.71Z" fill="url(#paint2_radial)"/>
<path d="M21.5833 4.71C20.5151 3.29316 19.142 2.13452 17.5657 1.31974C15.9894 0.504947 14.2502 0.0548451 12.4765 0.00270131C9.69012 -0.0530987 7.76532 0.784201 6.67632 1.4574C8.13342 0.612301 10.2421 0.132901 12.0883 0.156601C16.8373 0.216601 21.9379 3.4509 22.6954 9.2805C23.5654 15.9723 18.9043 21.5574 12.3475 21.5745C5.13402 21.5928 0.74652 15.2058 1.89342 9.4689C1.91475 9.18761 1.95615 8.90819 2.01732 8.6328C2.15884 7.16248 2.58613 5.73394 3.27522 4.4274C2.44452 4.8573 1.38672 6.2169 0.86472 7.4763C0.104852 9.39781 -0.163055 11.4787 0.0853197 13.53C0.10332 13.6854 0.11952 13.8405 0.13992 13.9947C0.450991 15.7859 1.16436 17.4832 2.22632 18.9588C3.28829 20.4344 4.67117 21.6498 6.27085 22.5136C7.87054 23.3774 9.64534 23.867 11.4616 23.9456C13.2779 24.0242 15.0884 23.6897 16.7567 22.9674C18.4251 22.245 19.9078 21.1536 21.0933 19.7753C22.2787 18.3969 23.1361 16.7676 23.6007 15.01C24.0654 13.2524 24.1252 11.4122 23.7758 9.62814C23.4263 7.84404 22.6767 6.16246 21.5833 4.71Z" fill="url(#paint3_radial)"/>
<path d="M21.5833 4.71C20.5151 3.29316 19.142 2.13452 17.5657 1.31974C15.9894 0.504947 14.2502 0.0548451 12.4765 0.00270131C9.69012 -0.0530987 7.76532 0.784201 6.67632 1.4574C8.13342 0.612301 10.2421 0.132901 12.0883 0.156601C16.8373 0.216601 21.9379 3.4509 22.6954 9.2805C23.5654 15.9723 18.9043 21.5574 12.3475 21.5745C5.13402 21.5928 0.74652 15.2058 1.89342 9.4689C1.91475 9.18761 1.95615 8.90819 2.01732 8.6328C2.15884 7.16248 2.58613 5.73394 3.27522 4.4274C2.44452 4.8573 1.38672 6.2169 0.86472 7.4763C0.104852 9.39781 -0.163055 11.4787 0.0853197 13.53C0.10332 13.6854 0.11952 13.8405 0.13992 13.9947C0.450991 15.7859 1.16436 17.4832 2.22632 18.9588C3.28829 20.4344 4.67117 21.6498 6.27085 22.5136C7.87054 23.3774 9.64534 23.867 11.4616 23.9456C13.2779 24.0242 15.0884 23.6897 16.7567 22.9674C18.4251 22.245 19.9078 21.1536 21.0933 19.7753C22.2787 18.3969 23.1361 16.7676 23.6007 15.01C24.0654 13.2524 24.1252 11.4122 23.7758 9.62814C23.4263 7.84404 22.6767 6.16246 21.5833 4.71Z" fill="url(#paint4_radial)"/>
<path d="M22.6954 9.2805C22.7895 10.0011 22.8196 10.7287 22.7854 11.4546C23.1834 11.3946 23.5821 11.3416 23.9815 11.2956C23.855 8.9107 23.02 6.61773 21.5833 4.71C20.515 3.29316 19.142 2.13452 17.5657 1.31974C15.9894 0.504947 14.2501 0.0548451 12.4765 0.00270131C9.69007 -0.0530987 7.76527 0.784201 6.67627 1.4574C8.13337 0.612301 10.2421 0.132901 12.0883 0.156601C16.8373 0.217201 21.9379 3.45 22.6954 9.2805Z" fill="url(#paint5_linear)"/>
<path d="M22.9875 8.9478C22.3122 2.8554 16.8789 0.117004 12.0882 0.156604C10.2417 0.171604 8.13331 0.612305 6.67621 1.4574C6.29064 1.68603 5.93234 1.95778 5.60821 2.2674C5.64691 2.2353 5.76241 2.1402 5.95381 2.0088L5.97271 1.9959L5.98951 1.9845C6.69659 1.50644 7.47565 1.14466 8.29711 0.912905C9.58396 0.557205 10.9178 0.401088 12.252 0.450005C14.7283 0.597877 17.0606 1.66301 18.7939 3.43758C20.5273 5.21216 21.5373 7.56887 21.627 10.0479C21.7371 14.01 18.4944 17.169 14.7564 17.352C12.0378 17.4852 9.47641 16.1697 8.22541 13.5381C7.93275 12.9388 7.73403 12.298 7.63621 11.6382C7.04341 7.6332 9.73291 4.2177 12.1992 3.372C10.8687 2.2098 7.53481 2.2887 5.05351 4.1142C3.26671 5.4288 2.10751 7.42891 1.72351 9.81421C1.44724 11.6444 1.69047 13.5155 2.42551 15.2142C3.18899 17.0157 4.43663 18.5704 6.03001 19.706C7.62338 20.8415 9.50019 21.5134 11.4522 21.6471C11.75 21.6699 12.0484 21.6812 12.3474 21.681C20.286 21.681 23.73 15.6549 22.9875 8.9478Z" fill="url(#paint6_radial)"/>
<path d="M22.9875 8.9478C22.3122 2.8554 16.8789 0.117004 12.0882 0.156604C10.2417 0.171604 8.13331 0.612305 6.67621 1.4574C6.29064 1.68603 5.93234 1.95778 5.60821 2.2674C5.64691 2.2353 5.76241 2.1402 5.95381 2.0088L5.97271 1.9959L5.98951 1.9845C6.69659 1.50644 7.47565 1.14466 8.29711 0.912905C9.58396 0.557205 10.9178 0.401088 12.252 0.450005C14.7283 0.597877 17.0606 1.66301 18.7939 3.43758C20.5273 5.21216 21.5373 7.56887 21.627 10.0479C21.7371 14.01 18.4944 17.169 14.7564 17.352C12.0378 17.4852 9.47641 16.1697 8.22541 13.5381C7.93275 12.9388 7.73403 12.298 7.63621 11.6382C7.04341 7.6332 9.73291 4.2177 12.1992 3.372C10.8687 2.2098 7.53481 2.2887 5.05351 4.1142C3.26671 5.4288 2.10751 7.42891 1.72351 9.81421C1.44724 11.6444 1.69047 13.5155 2.42551 15.2142C3.18899 17.0157 4.43663 18.5704 6.03001 19.706C7.62338 20.8415 9.50019 21.5134 11.4522 21.6471C11.75 21.6699 12.0484 21.6812 12.3474 21.681C20.286 21.681 23.73 15.6549 22.9875 8.9478Z" fill="url(#paint7_radial)"/>
<path style="mix-blend-mode:multiply" opacity="0.53" d="M22.9875 8.9478C22.3122 2.8554 16.8789 0.117004 12.0882 0.156604C10.2417 0.171604 8.13331 0.612305 6.67621 1.4574C6.29064 1.68603 5.93234 1.95778 5.60821 2.2674C5.64691 2.2353 5.76241 2.1402 5.95381 2.0088L5.97271 1.9959L5.98951 1.9845C6.69659 1.50644 7.47565 1.14466 8.29711 0.912905C9.58396 0.557205 10.9178 0.401088 12.252 0.450005C14.7283 0.597877 17.0606 1.66301 18.7939 3.43758C20.5273 5.21216 21.5373 7.56887 21.627 10.0479C21.7371 14.01 18.4944 17.169 14.7564 17.352C12.0378 17.4852 9.47641 16.1697 8.22541 13.5381C7.93275 12.9388 7.73403 12.298 7.63621 11.6382C7.04341 7.6332 9.73291 4.2177 12.1992 3.372C10.8687 2.2098 7.53481 2.2887 5.05351 4.1142C3.26671 5.4288 2.10751 7.42891 1.72351 9.81421C1.44724 11.6444 1.69047 13.5155 2.42551 15.2142C3.18899 17.0157 4.43663 18.5704 6.03001 19.706C7.62338 20.8415 9.50019 21.5134 11.4522 21.6471C11.75 21.6699 12.0484 21.6812 12.3474 21.681C20.286 21.681 23.73 15.6549 22.9875 8.9478Z" fill="url(#paint8_radial)"/>
<path style="mix-blend-mode:multiply" opacity="0.53" d="M22.9875 8.9478C22.3122 2.8554 16.8789 0.117004 12.0882 0.156604C10.2417 0.171604 8.13331 0.612305 6.67621 1.4574C6.29064 1.68603 5.93234 1.95778 5.60821 2.2674C5.64691 2.2353 5.76241 2.1402 5.95381 2.0088L5.97271 1.9959L5.98951 1.9845C6.69659 1.50644 7.47565 1.14466 8.29711 0.912905C9.58396 0.557205 10.9178 0.401088 12.252 0.450005C14.7283 0.597877 17.0606 1.66301 18.7939 3.43758C20.5273 5.21216 21.5373 7.56887 21.627 10.0479C21.7371 14.01 18.4944 17.169 14.7564 17.352C12.0378 17.4852 9.47641 16.1697 8.22541 13.5381C7.93275 12.9388 7.73403 12.298 7.63621 11.6382C7.04341 7.6332 9.73291 4.2177 12.1992 3.372C10.8687 2.2098 7.53481 2.2887 5.05351 4.1142C3.26671 5.4288 2.10751 7.42891 1.72351 9.81421C1.44724 11.6444 1.69047 13.5155 2.42551 15.2142C3.18899 17.0157 4.43663 18.5704 6.03001 19.706C7.62338 20.8415 9.50019 21.5134 11.4522 21.6471C11.75 21.6699 12.0484 21.6812 12.3474 21.681C20.286 21.681 23.73 15.6549 22.9875 8.9478Z" fill="url(#paint9_radial)"/>
<path d="M14.7564 17.352C19.8864 17.04 22.0824 12.792 22.2201 9.7785C22.4349 5.07 19.6416 -0.00599506 12.252 0.450005C10.9178 0.401381 9.58396 0.557802 8.29714 0.913805C7.47936 1.1554 6.70177 1.5165 5.98954 1.9854L5.97274 1.9968L5.95384 2.0097C5.83904 2.0897 5.72674 2.1739 5.61694 2.2623C7.52967 1.19275 9.7397 0.778077 11.91 1.0815C16.1526 1.6383 20.0316 4.9386 20.0316 9.2934C20.0316 12.6441 17.4423 15.2034 14.4102 15.0195C9.90574 14.7495 8.77024 10.1295 11.1135 8.1333C10.4817 7.9974 9.29434 8.2638 8.46754 9.4998C7.72564 10.6098 7.76764 12.3228 8.22544 13.5381C8.79607 14.7633 9.72724 15.7851 10.8944 16.4666C12.0615 17.1482 13.409 17.4571 14.7564 17.352Z" fill="url(#paint10_radial)"/>
<path d="M21.5832 4.71C21.2618 4.28917 20.9128 3.89009 20.5386 3.5154C20.2415 3.20124 19.923 2.90794 19.5855 2.6376C19.7798 2.80672 19.9649 2.98597 20.1402 3.1746C20.7969 3.87536 21.2963 4.70836 21.6048 5.6178C22.2315 7.5165 22.1907 9.8928 20.994 11.7591C20.3296 12.8049 19.4017 13.6575 18.3035 14.2312C17.2053 14.8049 15.9755 15.0796 14.7375 15.0276C14.6292 15.0276 14.52 15.0276 14.4102 15.0195C9.90574 14.7495 8.77024 10.1295 11.1138 8.1333C10.4817 7.9974 9.29434 8.2638 8.46754 9.4998C7.72564 10.6098 7.76764 12.3228 8.22544 13.5381C7.93288 12.9387 7.73426 12.298 7.63654 11.6382C7.04344 7.6332 9.73294 4.2177 12.1992 3.372C10.8687 2.2098 7.53484 2.2887 5.05354 4.1142C3.59415 5.20511 2.53146 6.74325 2.02744 8.4942C2.18807 7.07336 2.61114 5.69469 3.27514 4.4283C2.44444 4.8582 1.38664 6.2178 0.864636 7.4772C0.104918 9.39844 -0.162987 11.479 0.0852363 13.53C0.103236 13.6854 0.119436 13.8405 0.139836 13.9947C0.450907 15.7859 1.16428 17.4832 2.22624 18.9588C3.2882 20.4344 4.67108 21.6498 6.27077 22.5136C7.87045 23.3774 9.64526 23.867 11.4616 23.9456C13.2779 24.0242 15.0883 23.6897 16.7567 22.9674C18.425 22.245 19.9077 21.1536 21.0932 19.7753C22.2786 18.3969 23.136 16.7676 23.6006 15.01C24.0653 13.2524 24.1251 11.4122 23.7757 9.62815C23.4263 7.84404 22.6766 6.16246 21.5832 4.71Z" fill="url(#paint11_linear)"/>
<path d="M21.6047 5.6178C21.2963 4.70833 20.7969 3.87531 20.1402 3.1746C19.3597 2.36138 18.4345 1.70079 17.412 1.2267C16.5583 0.805893 15.6581 0.486807 14.73 0.276001C13.0939 -0.0821286 11.4008 -0.0923495 9.76045 0.246001C8.05555 0.606001 6.55645 1.3437 5.60815 2.2659C6.36429 1.83873 7.17474 1.5158 8.01745 1.3059C9.655 0.8944 11.3697 0.901279 13.0039 1.32591C14.6381 1.75053 16.1393 2.57928 17.3694 3.7359C17.8679 4.2087 18.3043 4.74298 18.6681 5.3259C20.1366 7.7136 19.9977 10.7154 18.8526 12.4857C18.0021 13.8009 16.1805 15.0357 14.481 15.0213C15.7601 15.1178 17.0414 14.8655 18.1884 14.2912C19.3354 13.7168 20.305 12.842 20.994 11.76C22.1907 9.8928 22.2314 7.5165 21.6047 5.6178Z" fill="url(#paint12_linear)"/>
<path d="M21.6047 5.6178C21.2963 4.70833 20.7969 3.87531 20.1402 3.1746C19.3597 2.36138 18.4345 1.70079 17.412 1.2267C16.5583 0.805893 15.6581 0.486807 14.73 0.276001C13.0939 -0.0821286 11.4008 -0.0923495 9.76045 0.246001C8.05555 0.606001 6.55645 1.3437 5.60815 2.2659C6.36429 1.83873 7.17474 1.5158 8.01745 1.3059C9.655 0.8944 11.3697 0.901279 13.0039 1.32591C14.6381 1.75053 16.1393 2.57928 17.3694 3.7359C17.8679 4.2087 18.3043 4.74298 18.6681 5.3259C20.1366 7.7136 19.9977 10.7154 18.8526 12.4857C18.0021 13.8009 16.1805 15.0357 14.481 15.0213C15.7601 15.1178 17.0414 14.8655 18.1884 14.2912C19.3354 13.7168 20.305 12.842 20.994 11.76C22.1907 9.8928 22.2314 7.5165 21.6047 5.6178Z" fill="url(#paint13_linear)"/>
</g>
<defs>
<radialGradient id="paint0_radial" cx="0" cy="0" r="1" gradientUnits="userSpaceOnUse" gradientTransform="translate(21.4594 4.9155) scale(27.234)">
<stop stop-color="#FFF36E"/>
<stop offset="0.5" stop-color="#FC4055"/>
<stop offset="1" stop-color="#E31587"/>
</radialGradient>
<radialGradient id="paint1_radial" cx="0" cy="0" r="1" gradientUnits="userSpaceOnUse" gradientTransform="translate(1.98882 6.042) scale(16.1178)">
<stop offset="0.001" stop-color="#C60084"/>
<stop offset="1" stop-color="#FC4055" stop-opacity="0"/>
</radialGradient>
<radialGradient id="paint2_radial" cx="0" cy="0" r="1" gradientUnits="userSpaceOnUse" gradientTransform="translate(23.7874 3.3657) scale(31.9797)">
<stop stop-color="#FFDE67" stop-opacity="0.6"/>
<stop offset="0.093" stop-color="#FFD966" stop-opacity="0.581"/>
<stop offset="0.203" stop-color="#FFCA65" stop-opacity="0.525"/>
<stop offset="0.321" stop-color="#FEB262" stop-opacity="0.432"/>
<stop offset="0.446" stop-color="#FE8F5E" stop-opacity="0.302"/>
<stop offset="0.573" stop-color="#FD6459" stop-opacity="0.137"/>
<stop offset="0.664" stop-color="#FC4055" stop-opacity="0"/>
</radialGradient>
<radialGradient id="paint3_radial" cx="0" cy="0" r="1" gradientUnits="userSpaceOnUse" gradientTransform="translate(12.6856 13.3212) scale(41.2563)">
<stop offset="0.153" stop-color="#810220"/>
<stop offset="0.167" stop-color="#920B27" stop-opacity="0.861"/>
<stop offset="0.216" stop-color="#CB2740" stop-opacity="0.398"/>
<stop offset="0.253" stop-color="#EF394F" stop-opacity="0.11"/>
<stop offset="0.272" stop-color="#FC4055" stop-opacity="0"/>
</radialGradient>
<radialGradient id="paint4_radial" cx="0" cy="0" r="1" gradientUnits="userSpaceOnUse" gradientTransform="translate(9.56352 12.8025) scale(41.2563)">
<stop offset="0.113" stop-color="#810220"/>
<stop offset="0.133" stop-color="#920B27" stop-opacity="0.861"/>
<stop offset="0.204" stop-color="#CB2740" stop-opacity="0.398"/>
<stop offset="0.257" stop-color="#EF394F" stop-opacity="0.11"/>
<stop offset="0.284" stop-color="#FC4055" stop-opacity="0"/>
</radialGradient>
<linearGradient id="paint5_linear" x1="13.7494" y1="2.3361" x2="20.8168" y2="14.5773" gradientUnits="userSpaceOnUse">
<stop stop-color="#FFBD4F"/>
<stop offset="0.508" stop-color="#FF9640" stop-opacity="0"/>
</linearGradient>
<radialGradient id="paint6_radial" cx="0" cy="0" r="1" gradientUnits="userSpaceOnUse" gradientTransform="translate(20.8369 3.62743) scale(25.5659 25.6192)">
<stop stop-color="#FF9640"/>
<stop offset="0.8" stop-color="#FC4055"/>
</radialGradient>
<radialGradient id="paint7_radial" cx="0" cy="0" r="1" gradientUnits="userSpaceOnUse" gradientTransform="translate(20.8369 3.62743) scale(25.5659 25.6192)">
<stop offset="0.084" stop-color="#FFDE67"/>
<stop offset="0.147" stop-color="#FFDC66" stop-opacity="0.968"/>
<stop offset="0.246" stop-color="#FFD562" stop-opacity="0.879"/>
<stop offset="0.369" stop-color="#FFCB5D" stop-opacity="0.734"/>
<stop offset="0.511" stop-color="#FFBC55" stop-opacity="0.533"/>
<stop offset="0.667" stop-color="#FFAA4B" stop-opacity="0.28"/>
<stop offset="0.822" stop-color="#FF9640" stop-opacity="0"/>
</radialGradient>
<radialGradient id="paint8_radial" cx="0" cy="0" r="1" gradientUnits="userSpaceOnUse" gradientTransform="translate(14.9812 11.5959) rotate(75.728) scale(12.5611 13.0842)">
<stop offset="0.363" stop-color="#FC4055"/>
<stop offset="0.443" stop-color="#FD604D" stop-opacity="0.633"/>
<stop offset="0.545" stop-color="#FE8644" stop-opacity="0.181"/>
<stop offset="0.59" stop-color="#FF9640" stop-opacity="0"/>
</radialGradient>
<radialGradient id="paint9_radial" cx="0" cy="0" r="1" gradientUnits="userSpaceOnUse" gradientTransform="translate(12.8211 12.6294) scale(12.537)">
<stop offset="0.216" stop-color="#FC4055" stop-opacity="0.8"/>
<stop offset="0.267" stop-color="#FD5251" stop-opacity="0.633"/>
<stop offset="0.41" stop-color="#FE8345" stop-opacity="0.181"/>
<stop offset="0.474" stop-color="#FF9640" stop-opacity="0"/>
</radialGradient>
<radialGradient id="paint10_radial" cx="0" cy="0" r="1" gradientUnits="userSpaceOnUse" gradientTransform="translate(25.9393 0.73347) scale(43.2111 43.3012)">
<stop offset="0.054" stop-color="#FFF36E"/>
<stop offset="0.457" stop-color="#FF9640"/>
<stop offset="0.639" stop-color="#FF9640"/>
</radialGradient>
<linearGradient id="paint11_linear" x1="17.7156" y1="2.1249" x2="5.44654" y2="23.376" gradientUnits="userSpaceOnUse">
<stop stop-color="#FFF36E" stop-opacity="0.8"/>
<stop offset="0.094" stop-color="#FFF36E" stop-opacity="0.699"/>
<stop offset="0.752" stop-color="#FFF36E" stop-opacity="0"/>
</linearGradient>
<linearGradient id="paint12_linear" x1="12.1755" y1="-0.200999" x2="18.69" y2="18.6609" gradientUnits="userSpaceOnUse">
<stop stop-color="#B833E1"/>
<stop offset="0.371" stop-color="#9059FF"/>
<stop offset="0.614" stop-color="#5B6DF8"/>
<stop offset="1" stop-color="#0090ED"/>
</linearGradient>
<linearGradient id="paint13_linear" x1="8.31295" y1="0.0972011" x2="20.4213" y2="12.2055" gradientUnits="userSpaceOnUse">
<stop offset="0.805" stop-color="#722291" stop-opacity="0"/>
<stop offset="1" stop-color="#592ACB" stop-opacity="0.5"/>
</linearGradient>
<clipPath id="clip0">
<rect width="24" height="24" fill="white"/>
</clipPath>
</defs>
</svg>
