<svg width="24" height="24" viewBox="0 0 24 24" fill="none" xmlns="http://www.w3.org/2000/svg">
<circle cx="12" cy="12" r="12" fill="#A6A8BA" fill-opacity="0.5"/>
<path d="M15.3655 4H8.6332C7.98936 4 7.46924 4.52214 7.46924 5.16598V18.8355C7.46924 19.4774 7.98936 20 8.6332 20H15.3655C16.0083 20 16.5304 19.4779 16.5304 18.8355V5.16598C16.5299 4.52214 16.0083 4 15.3655 4ZM15.6573 16.9636H8.34233V5.96686H15.6573V16.9636ZM13.5602 5.18315H10.439V4.8428H13.5607L13.5602 5.18315ZM14.8958 5.02762C14.8958 5.19224 14.7615 5.32555 14.5974 5.32555C14.4328 5.32555 14.299 5.19173 14.299 5.02762C14.299 4.8635 14.4328 4.72968 14.5974 4.72968C14.762 4.72918 14.8958 4.863 14.8958 5.02762ZM13.4203 18.7578H10.5778V17.8832H13.4203V18.7578Z" fill="white"/>
</svg>
