<svg width="24" height="24" viewBox="0 0 24 24" fill="none" xmlns="http://www.w3.org/2000/svg">
<circle cx="12" cy="12" r="12" fill="#A6A8BA" fill-opacity="0.5"/>
<path d="M6.19995 14.6C6.19995 14.8122 6.28424 15.0157 6.43427 15.1657C6.58429 15.3157 6.78778 15.4 6.99995 15.4H17C17.2121 15.4 17.4156 15.3157 17.5656 15.1657C17.7157 15.0157 17.8 14.8122 17.8 14.6V13.4H6.19995V14.6ZM12 14C12.0791 14 12.1564 14.0235 12.2222 14.0674C12.288 14.1114 12.3392 14.1738 12.3695 14.2469C12.3998 14.32 12.4077 14.4004 12.3923 14.478C12.3768 14.5556 12.3387 14.6269 12.2828 14.6828C12.2269 14.7388 12.1556 14.7769 12.078 14.7923C12.0004 14.8077 11.92 14.7998 11.8469 14.7695C11.7738 14.7393 11.7113 14.688 11.6674 14.6222C11.6234 14.5564 11.6 14.4791 11.6 14.4C11.6 14.2939 11.6421 14.1922 11.7171 14.1172C11.7921 14.0421 11.8939 14 12 14Z" fill="white"/>
<path d="M10 17H14L13.4 15.4H10.6L10 17Z" fill="white"/>
<path d="M9.4 17C9.29391 17 9.19217 17.0422 9.11716 17.1172C9.04214 17.1922 9 17.2939 9 17.4V17.8H15V17.4C15 17.2939 14.9579 17.1922 14.8828 17.1172C14.8078 17.0422 14.7061 17 14.6 17H9.4Z" fill="white"/>
<path d="M17.0001 5.9H17L7 5.9L6.99988 5.9C6.70828 5.90035 6.42873 6.01634 6.22253 6.22253C6.01634 6.42873 5.90035 6.70828 5.9 6.99988V7L5.9 14.6L5.9 14.6001C5.90035 14.8917 6.01634 15.1713 6.22253 15.3775C6.42873 15.5837 6.70828 15.6997 6.99988 15.7H7H10.1671L9.7921 16.7H9.4C9.21435 16.7 9.0363 16.7738 8.90503 16.905C8.77375 17.0363 8.7 17.2143 8.7 17.4V17.8C8.7 17.8796 8.73161 17.9559 8.78787 18.0121C8.84413 18.0684 8.92043 18.1 9 18.1H15C15.0796 18.1 15.1559 18.0684 15.2121 18.0121C15.2684 17.9559 15.3 17.8796 15.3 17.8V17.4C15.3 17.2143 15.2262 17.0363 15.095 16.905C14.9637 16.7738 14.7857 16.7 14.6 16.7H14.2079L13.8329 15.7H17H17.0001C17.2917 15.6997 17.5713 15.5837 17.7775 15.3775C17.9837 15.1713 18.0997 14.8917 18.1 14.6001V14.6V7V6.99988C18.0997 6.70828 17.9837 6.42873 17.7775 6.22253C17.5713 6.01634 17.2917 5.90035 17.0001 5.9ZM7 6.5H17C17.1326 6.5 17.2598 6.55268 17.3536 6.64645C17.4473 6.74022 17.5 6.86739 17.5 7V13.1H6.5V7C6.5 6.86739 6.55268 6.74021 6.64645 6.64645C6.74021 6.55268 6.86739 6.5 7 6.5ZM14.7 17.4V17.5H9.3V17.4C9.3 17.3735 9.31054 17.348 9.32929 17.3293C9.34804 17.3105 9.37348 17.3 9.4 17.3H14.6C14.6265 17.3 14.652 17.3105 14.6707 17.3293C14.6895 17.348 14.7 17.3735 14.7 17.4ZM13.1921 15.7L13.5671 16.7H10.4329L10.8079 15.7H13.1921ZM17 15.1H7C6.86739 15.1 6.74021 15.0473 6.64645 14.9536C6.55268 14.8598 6.5 14.7326 6.5 14.6V13.7H17.5V14.6C17.5 14.7326 17.4473 14.8598 17.3536 14.9536C17.2598 15.0473 17.1326 15.1 17 15.1Z" fill="white" stroke="white" stroke-width="0.2"/>
<path d="M11.9999 13.8C11.8812 13.8 11.7652 13.8352 11.6666 13.9011C11.5679 13.967 11.491 14.0607 11.4456 14.1704C11.4002 14.28 11.3883 14.4007 11.4114 14.517C11.4346 14.6334 11.4917 14.7403 11.5756 14.8243C11.6596 14.9082 11.7665 14.9653 11.8828 14.9885C11.9992 15.0116 12.1199 14.9997 12.2295 14.9543C12.3391 14.9089 12.4329 14.832 12.4988 14.7333C12.5647 14.6347 12.5999 14.5187 12.5999 14.4C12.5999 14.2409 12.5367 14.0882 12.4242 13.9757C12.3116 13.8632 12.159 13.8 11.9999 13.8ZM11.9999 14.6C11.9603 14.6 11.9217 14.5883 11.8888 14.5663C11.8559 14.5443 11.8303 14.5131 11.8151 14.4765C11.8 14.44 11.796 14.3998 11.8037 14.361C11.8115 14.3222 11.8305 14.2865 11.8585 14.2586C11.8865 14.2306 11.9221 14.2115 11.9609 14.2038C11.9997 14.1961 12.0399 14.2001 12.0764 14.2152C12.113 14.2303 12.1442 14.256 12.1662 14.2889C12.1882 14.3218 12.1999 14.3604 12.1999 14.4C12.1999 14.453 12.1788 14.5039 12.1413 14.5414C12.1038 14.5789 12.0529 14.6 11.9999 14.6Z" fill="white"/>
</svg>
