<svg width="27" height="24" viewBox="0 0 27 24" fill="none" xmlns="http://www.w3.org/2000/svg">
<path d="M13.8782 2.08696V0.52174C13.8782 0.23356 13.6446 0 13.3565 0C13.0683 0 12.8347 0.23356 12.8347 0.52174V2.08696C12.8347 2.37514 13.0683 2.6087 13.3565 2.6087C13.6446 2.6087 13.8782 2.37514 13.8782 2.08696Z" fill="#64DFDF"/>
<path d="M13.8782 23.4783V21.9131C13.8782 21.6249 13.6446 21.3913 13.3565 21.3913C13.0683 21.3913 12.8347 21.6249 12.8347 21.9131V23.4783C12.8347 23.7665 13.0683 24 13.3565 24C13.6446 24 13.8782 23.7665 13.8782 23.4783Z" fill="#64DFDF"/>
<path d="M7.3564 1.60738C7.10694 1.75147 7.02135 2.07063 7.16544 2.32009L7.94805 3.67621C8.09275 3.92709 8.41231 4.01065 8.66075 3.86717C8.91021 3.72329 8.99581 3.40413 8.85172 3.15447L8.06911 1.79855C7.92522 1.54889 7.60606 1.4635 7.3564 1.60738Z" fill="#64DFDF"/>
<path d="M19.3565 22.3926C19.6062 22.2485 19.6916 21.9295 19.5477 21.6799L18.7651 20.324C18.621 20.0743 18.3019 19.9887 18.0524 20.1328C17.8027 20.2769 17.7171 20.5958 17.8612 20.8455L18.6438 22.2014C18.7885 22.4523 19.1081 22.5359 19.3565 22.3926Z" fill="#64DFDF"/>
<path d="M18.6438 1.79855L17.8612 3.15447C17.7171 3.40413 17.8027 3.72329 18.0524 3.86717C18.3035 4.01228 18.6218 3.92424 18.7651 3.67621L19.5477 2.32009C19.6916 2.07063 19.6062 1.75147 19.3565 1.60738C19.1069 1.4635 18.7879 1.54889 18.6438 1.79855Z" fill="#64DFDF"/>
<path d="M8.06911 22.2014L8.85172 20.8455C8.99581 20.5958 8.91021 20.2769 8.66075 20.1328C8.41109 19.9887 8.09214 20.0743 7.94805 20.324L7.16544 21.6799C7.02135 21.9295 7.10694 22.2485 7.3564 22.3926C7.60749 22.5375 7.92603 22.4495 8.06911 22.2014Z" fill="#64DFDF"/>
<path d="M15.4435 9.39133C15.4435 8.24065 14.5074 7.30437 13.3565 7.30437C12.2058 7.30437 11.2695 8.24065 11.2695 9.39133C11.2695 10.5422 12.2058 11.4783 13.3565 11.4783C14.5074 11.4783 15.4435 10.5422 15.4435 9.39133ZM13.3565 10.4348C12.7812 10.4348 12.313 9.96667 12.313 9.39133C12.313 8.81599 12.7812 8.34785 13.3565 8.34785C13.9318 8.34785 14.4 8.81599 14.4 9.39133C14.4 9.96667 13.9318 10.4348 13.3565 10.4348Z" fill="#715DFF"/>
<path d="M10.2261 14.6087V15.1305C10.2261 15.4187 10.4596 15.6522 10.7478 15.6522H15.9652C16.2534 15.6522 16.487 15.4187 16.487 15.1305V14.6087C16.487 12.8827 15.0827 11.4783 13.3565 11.4783C11.6305 11.4783 10.2261 12.8827 10.2261 14.6087ZM13.3565 12.5218C14.5074 12.5218 15.4435 13.4581 15.4435 14.6087H11.2696C11.2696 13.4581 12.2058 12.5218 13.3565 12.5218Z" fill="#715DFF"/>
<path d="M13.8782 5.73915C13.8782 6.02733 13.6446 6.26089 13.3565 6.26089C13.0683 6.26089 12.8347 6.02733 12.8347 5.73915C12.8347 5.45097 13.0683 5.21741 13.3565 5.21741C13.6446 5.21741 13.8782 5.45097 13.8782 5.73915Z" fill="#715DFF"/>
<path d="M15.7917 5.45583C15.6517 5.42872 15.5066 5.46031 15.3904 5.54326C15.142 5.72037 15.1766 5.99163 15.1469 6.10393C15.1126 6.34279 15.2467 6.5739 15.4709 6.66276C17.6728 7.53586 19.0956 9.63097 19.0956 12C19.0956 15.1647 16.5211 17.7391 13.3565 17.7391C10.192 17.7391 7.61734 15.1647 7.61734 12C7.61734 9.63097 9.04009 7.53586 11.2422 6.66276C11.4664 6.5739 11.6005 6.34279 11.5662 6.10393C11.5357 5.98898 11.572 5.72098 11.3227 5.54326C11.2065 5.46052 11.0614 5.42893 10.9212 5.45583C6.71734 6.26412 2.3545 9.30243 0.142612 11.6415C-0.0475373 11.8426 -0.0475373 12.1573 0.142612 12.3585C3.13527 15.5232 8.49288 18.7826 13.3565 18.7826C18.2414 18.7826 23.6072 15.4918 26.5705 12.3585C26.7607 12.1573 26.7607 11.8426 26.5705 11.6415C24.667 9.62852 20.3408 6.33056 15.7917 5.45583ZM1.26313 12.0006C2.22284 11.0841 4.99764 8.62988 8.51693 7.24646C7.30083 8.48681 6.57386 10.167 6.57386 12C6.57386 13.8495 7.31774 15.5282 8.52223 16.7529C5.874 15.7168 3.25837 13.9117 1.26313 12.0006ZM18.1893 16.7545C19.3946 15.5295 20.1391 13.8501 20.1391 12C20.1391 10.1686 19.4131 8.48783 18.196 7.24646C21.7149 8.62967 24.4897 11.0835 25.4494 12.0002C24.4899 12.9171 21.7157 15.3707 18.1893 16.7545Z" fill="#292F58"/>
</svg>
