<svg width="24" height="24" viewBox="0 0 24 24" fill="none" xmlns="http://www.w3.org/2000/svg">
<circle cx="12" cy="12" r="12" fill="#A6A8BA" fill-opacity="0.5"/>
<path d="M14.3382 5.43168C14.9402 4.78716 15.3475 3.89232 15.236 3C14.3687 3.03095 13.3175 3.50913 12.6949 4.15361C12.1368 4.72415 11.6482 5.63601 11.7786 6.51082C12.7464 6.57629 13.7352 6.07517 14.3382 5.43168ZM16.1853 11.594C16.1668 9.59356 17.7692 8.63275 17.8401 8.58632C16.9393 7.22784 15.5364 7.04196 15.0367 7.02099C13.8421 6.89559 12.7075 7.74444 12.101 7.74444C11.4969 7.74444 10.5626 7.03746 9.57186 7.05645C8.26936 7.0779 7.06922 7.83636 6.40027 9.03843C5.04722 11.4567 6.05347 15.0389 7.37194 17.0005C8.01647 17.9607 8.78388 19.0379 9.79161 18.999C10.7644 18.96 11.1311 18.352 12.3047 18.352C13.4789 18.352 13.8076 18.999 14.8348 18.9795C15.88 18.96 16.5415 18.0007 17.1806 17.0374C17.92 15.9238 18.2248 14.8456 18.2422 14.7911C18.2198 14.7781 16.2068 13.9863 16.1853 11.594Z" fill="white"/>
</svg>
