<?xml version="1.0"?>
<svg xmlns="http://www.w3.org/2000/svg" xmlns:xlink="http://www.w3.org/1999/xlink" xmlns:svgjs="http://svgjs.com/svgjs" version="1.1" width="512" height="512" x="0" y="0" viewBox="0 0 512.083 512.083" style="enable-background:new 0 0 512 512" xml:space="preserve" class=""><g><g xmlns="http://www.w3.org/2000/svg"><path d="m67.762 512.083h173.279v-40.113c-19.641-6.344-33.886-24.801-33.886-46.521 0-.003 0-.006 0-.009s0-.006 0-.009c0-21.72 14.245-40.177 33.886-46.521v-40.107h-67.76v-15c0-10.414-8.467-18.886-18.874-18.886-10.414 0-18.886 8.472-18.886 18.886v15h-67.76v173.28z" fill="#a6a8ba" data-original="#000000" style="" class=""/><path d="m271.042 175.632c19.641 6.345 33.886 24.801 33.886 46.521 0 21.725-14.245 40.186-33.886 46.532v40.113h67.76v15c0 .651.033 1.294.098 1.928.969 9.509 9.022 16.954 18.782 16.957 9.76-.003 17.813-7.448 18.782-16.957.065-.634.098-1.277.098-1.928v-15h67.76v-173.279h-173.28z" fill="#a6a8ba" data-original="#000000" style="" class=""/><path d="m357.687 372.684c-.002 0-.004 0-.006 0s-.004 0-.006 0c-21.721 0-40.177-14.245-46.521-33.886h-40.112v67.76.006h-15c-10.411 0-18.881 8.467-18.885 18.877.005 10.41 8.474 18.877 18.885 18.877h15v.005 67.754h173.279v-173.279h-40.112c-6.345 19.641-24.801 33.886-46.522 33.886z" fill="#a6a8ba" data-original="#000000" style="" class=""/><path d="m274.927 86.645c0-10.414-8.472-18.885-18.886-18.885h-15v-67.76h-173.279v173.279h40.112c6.345-19.641 24.801-33.885 46.521-33.885 21.726 0 40.187 14.245 46.532 33.885h40.113v-67.76h15c10.416 0 18.887-8.467 18.887-18.874zm-120.523 32.009-47.154-38.3 18.914-23.286 13.24 10.754v-41.186h30v41.186l13.236-10.751 18.914 23.287z" fill="#a6a8ba" data-original="#000000" style="" class=""/></g></g></svg>
