<svg width="60" height="60" viewBox="0 0 60 60" fill="none" xmlns="http://www.w3.org/2000/svg">
<g clip-path="url(#clip0)">
<path d="M32.8066 0.864723C31.1132 -0.28817 28.8869 -0.28817 27.1936 0.864723L2.67021 17.5615C1.51427 18.3485 0.82251 19.6565 0.82251 21.0548V57.0585C0.822393 58.6831 2.13935 60 3.76392 60H56.2363C57.8608 60 59.1777 58.6831 59.1777 57.0586V21.0549C59.1777 19.6564 58.4859 18.3485 57.33 17.5616L32.8066 0.864723Z" fill="#96C8EF"/>
<path d="M56.2361 60C57.8607 60 59.1776 58.683 59.1776 57.0586V21.0549C59.1776 19.6565 58.4858 18.3486 57.3299 17.5615L52.4003 14.2053L31.544 26.8283C31.0782 27.1095 30.5441 27.2585 29.9999 27.2585C29.4607 27.2585 28.9319 27.1126 28.469 26.8362L7.71209 14.1287L2.67021 17.5615C1.51427 18.3486 0.82251 19.6565 0.82251 21.0549V57.0586C0.822393 58.683 2.13935 60 3.76392 60H56.2361Z" fill="#78B9EB"/>
<path d="M51.7479 50.4914H8.25183V11.9512C8.25183 9.21424 10.4707 6.99541 13.2076 6.99541H46.7922C49.5291 6.99541 51.7479 9.21424 51.7479 11.9512V50.4914Z" fill="#FFF5CC"/>
<path d="M31.5439 26.8284C31.0781 27.1096 30.5441 27.2586 29.9999 27.2586C29.4607 27.2586 28.9318 27.1127 28.4689 26.8363L8.25183 14.4592V50.4914H51.7478V14.6002L31.5439 26.8284Z" fill="#FFEB99"/>
<path d="M24.7116 33.0289L1.47419 18.8029C1.05524 19.4679 0.82251 20.2459 0.82251 21.0549V57.0586C0.822393 58.6831 2.13935 60 3.76392 60H56.2363C57.8608 60 59.1777 58.6831 59.1777 57.0586V21.0549C59.1777 20.2934 58.9712 19.5596 58.5977 18.9212L35.2885 33.0289C32.0363 34.9928 27.9638 34.9928 24.7116 33.0289Z" fill="#B9D8F4"/>
<path d="M24.9963 33.2069L2.09863 59.4984C2.56785 59.8151 3.1334 60 3.74196 60H56.2143C56.8422 60 57.4235 59.8027 57.9013 59.4675L35.0443 33.1579C31.9328 34.9323 28.1204 34.9492 24.9963 33.2069Z" fill="#D1E7F8"/>
<path d="M43.3142 14.0864H16.6858C16.1857 14.0864 15.7804 13.6812 15.7804 13.181C15.7804 12.6809 16.1857 12.2757 16.6858 12.2757H43.3141C43.8142 12.2757 44.2195 12.6809 44.2195 13.181C44.2195 13.6812 43.8143 14.0864 43.3142 14.0864Z" fill="#57565C"/>
<path d="M43.3142 18.7857H16.6858C16.1857 18.7857 15.7804 18.3804 15.7804 17.8803C15.7804 17.3801 16.1857 16.9749 16.6858 16.9749H43.3141C43.8142 16.9749 44.2195 17.3801 44.2195 17.8803C44.2195 18.3804 43.8143 18.7857 43.3142 18.7857Z" fill="#57565C"/>
<path d="M29.18 23.4847H16.6858C16.1857 23.4847 15.7804 23.0794 15.7804 22.5793C15.7804 22.0791 16.1857 21.6739 16.6858 21.6739H29.1801C29.6802 21.6739 30.0855 22.0791 30.0855 22.5793C30.0855 23.0793 29.68 23.4847 29.18 23.4847Z" fill="#57565C"/>
<path d="M16.6858 23.4847H22.9945L20.0364 21.6738H16.6857C16.1856 21.6738 15.7803 22.079 15.7803 22.5791C15.7803 23.0793 16.1857 23.4847 16.6858 23.4847Z" fill="#3E3D42"/>
</g>
<defs>
<clipPath id="clip0">
<rect width="60" height="60" fill="white"/>
</clipPath>
</defs>
</svg>
