<svg width="12" height="12" viewBox="0 0 12 12" fill="none" xmlns="http://www.w3.org/2000/svg">
<path d="M10.8387 0.580688H1.16129C0.522581 0.580688 0 1.10327 0 1.74198C0 2.38069 0.522581 2.90327 1.16129 2.90327H10.8387C11.4774 2.90327 12 2.38069 12 1.74198C12 1.10327 11.4774 0.580688 10.8387 0.580688Z" fill="#292F58"/>
<path d="M10.8387 4.83875H1.16129C0.522581 4.83875 0 5.36133 0 6.00004C0 6.63875 0.522581 7.16133 1.16129 7.16133H10.8387C11.4774 7.16133 12 6.63875 12 6.00004C12 5.36133 11.4774 4.83875 10.8387 4.83875Z" fill="#292F58"/>
<path d="M10.8387 9.0968H1.16129C0.522581 9.0968 0 9.61938 0 10.2581C0 10.8968 0.522581 11.4194 1.16129 11.4194H10.8387C11.4774 11.4194 12 10.8968 12 10.2581C12 9.61938 11.4774 9.0968 10.8387 9.0968Z" fill="#292F58"/>
</svg>
