<svg width="25" height="25" viewBox="0 0 25 25" fill="none" xmlns="http://www.w3.org/2000/svg">
<path d="M16 9V5C16 2.79086 14.2091 1 12 1H5C2.79086 1 1 2.79086 1 5V10C1 12.2091 2.79086 14 5 14H7" stroke="#1C54DB" stroke-width="1.4" stroke-linecap="round"/>
<rect x="9" y="11" width="15" height="13" rx="4" stroke="#1C54DB" stroke-width="1.4"/>
<path d="M14 15.5L19 15.5" stroke="#1C54DB" stroke-width="1.4" stroke-linecap="round"/>
<path d="M17.9554 16C18.1752 17.1905 17.6917 19.8571 14 21" stroke="#1C54DB" stroke-width="1.4" stroke-linecap="round"/>
<path d="M15.0446 17C14.8248 17.9524 15.3083 20.0857 19 21" stroke="#1C54DB" stroke-width="1.4" stroke-linecap="round"/>
<path d="M16.5 15.5V14" stroke="#1C54DB" stroke-width="1.4" stroke-linecap="round"/>
<path d="M6 10L8.5 5L11 10" stroke="#1C54DB" stroke-width="1.4" stroke-linecap="round" stroke-linejoin="round"/>
<path d="M7.25 9H9.75" stroke="#1C54DB" stroke-width="1.4" stroke-linecap="round" stroke-linejoin="round"/>
</svg>
