<svg width="24" height="24" viewBox="0 0 24 24" fill="none" xmlns="http://www.w3.org/2000/svg">
<g clip-path="url(#clip0)">
<path d="M13.3066 5.09074H2.5974C1.16356 5.09236 0.00162338 6.25429 0 7.68814V16.3089C0.00162338 17.7427 1.16356 18.9047 2.5974 18.9063H13.3066C14.7405 18.9047 15.9024 17.7427 15.904 16.3089V7.68814C15.9024 6.25429 14.7405 5.09236 13.3066 5.09074V5.09074ZM14.8651 16.3089C14.8642 17.1691 14.167 17.8663 13.3066 17.8673H2.5974C1.73701 17.8663 1.03998 17.1691 1.03896 16.3089V7.68814C1.03998 6.82795 1.73701 6.13071 2.5974 6.1297H13.3066C14.167 6.13071 14.8642 6.82795 14.8651 7.68814V16.3089Z" fill="#292F58"/>
<path d="M23.7373 6.44335C23.5754 6.35081 23.3763 6.35244 23.2156 6.4472L17.4721 9.83843C17.3138 9.93198 17.2168 10.102 17.2168 10.2859V13.4186C17.2168 13.5791 17.2909 13.7307 17.4177 13.8291L23.1612 18.2881C23.3178 18.4097 23.5301 18.4316 23.7083 18.3443C23.8864 18.2571 23.9993 18.0761 23.9993 17.8778V6.89444C23.9993 6.70796 23.8992 6.53588 23.7373 6.44335ZM22.9603 16.8167L18.2558 13.1643V10.5825L22.9603 7.80455V16.8167Z" fill="#292F58"/>
</g>
<defs>
<clipPath id="clip0">
<rect width="24" height="24" fill="white"/>
</clipPath>
</defs>
</svg>
