<svg width="31" height="31" viewBox="0 0 31 31" fill="none" xmlns="http://www.w3.org/2000/svg">
<path d="M21.6693 9.23209C21.9427 8.95872 21.9427 8.51551 21.6693 8.24214C21.396 7.96877 20.9528 7.96877 20.6794 8.24213L7.29487 21.6264C7.0215 21.8998 7.0215 22.343 7.29486 22.6164C7.56823 22.8897 8.01145 22.8897 8.28481 22.6164L9.68973 21.2115C9.68947 21.2113 9.68998 21.2117 9.68973 21.2115L10.6964 20.2062C10.6967 20.2063 10.6962 20.206 10.6964 20.2062L19.2572 11.6442C19.2574 11.6445 19.2576 11.6448 19.2578 11.6451L20.2638 10.6392C20.2635 10.6389 20.2633 10.6386 20.2631 10.6383L21.6693 9.23209Z" fill="white"/>
<path d="M18.3799 9.12944C17.7995 8.87293 17.1574 8.73047 16.482 8.73047H12.482C9.88624 8.73047 7.78198 10.8347 7.78198 13.4305V17.4305C7.78198 18.1057 7.92439 18.7478 8.18081 19.3281L9.27939 18.2296C9.21576 17.9737 9.18198 17.706 9.18198 17.4305V13.4305C9.18198 11.6079 10.6594 10.1305 12.482 10.1305H16.482C16.7576 10.1305 17.0254 10.1643 17.2814 10.228L18.3799 9.12944Z" fill="white"/>
<path fill-rule="evenodd" clip-rule="evenodd" d="M12.482 20.7305C12.2067 20.7305 11.9392 20.6968 11.6836 20.6332L10.5849 21.7319C11.1651 21.9881 11.8069 22.1305 12.482 22.1305H16.482C18.6359 22.1305 20.4514 20.6816 21.0071 18.7052C21.0927 18.7611 21.182 18.8124 21.2747 18.8588L23.222 19.8324C24.3523 20.3975 25.6822 19.5756 25.6822 18.3118V12.5479C25.6822 11.2841 24.3523 10.4622 23.222 11.0274L21.2747 12.001C21.1819 12.0474 21.0925 12.0988 21.0068 12.1547C20.9467 11.9411 20.8719 11.7337 20.7835 11.5337L19.6848 12.6323C19.7483 12.8879 19.782 13.1553 19.782 13.4305V17.4305C19.782 19.253 18.3045 20.7305 16.482 20.7305H12.482ZM24.2822 12.5479C24.2822 12.3249 24.0475 12.1798 23.8481 12.2796L21.9008 13.2532C21.4604 13.4734 21.1822 13.9235 21.1822 14.4159V16.4438C21.1822 16.9362 21.4604 17.3863 21.9008 17.6066L23.8481 18.5802C24.0475 18.6799 24.2822 18.5348 24.2822 18.3118V12.5479Z" fill="white"/>
</svg>