<svg width="24" height="11" viewBox="0 0 24 11" fill="none" xmlns="http://www.w3.org/2000/svg">
<path fill-rule="evenodd" clip-rule="evenodd" d="M22.3726 9.61899C21.6134 10.358 20.5183 10.3305 19.1328 10.2956C18.7908 10.2876 18.4193 10.2769 18.0162 10.2775C16.0587 10.2769 15.5383 9.19986 15.1219 8.33409C14.6665 7.39053 14.2742 6.57573 11.7446 6.57573C9.21507 6.57573 8.82343 7.38986 8.37076 8.33476C7.95296 9.20053 7.43659 10.2775 5.47705 10.2789C5.0787 10.2789 4.71254 10.2883 4.37254 10.297C2.98101 10.3312 1.88187 10.3587 1.12129 9.61709C0.474244 8.98459 0.210022 7.94245 0.210022 6.02181L0.923559 5.885L0.212704 5.89439C0.207339 5.46385 0.191915 4.31777 1.2924 3.20387L1.31252 3.18375C2.98369 1.51258 6.49303 0.664246 11.7446 0.663575C17.0177 0.662904 20.5358 1.51593 22.2003 3.20046C23.3007 4.31307 23.2873 5.45983 23.2819 5.89036L23.2836 5.92928L23.2839 6.01979C23.2839 7.94446 23.0184 9.00135 22.3726 9.61899ZM21.3794 8.60033L21.3848 8.59496C21.6859 8.29381 21.8415 7.53469 21.8597 6.27726L21.862 6.02339L21.8609 6.02516C21.8609 6.02516 21.8593 6.00166 21.8589 5.96398L21.8589 5.87427C21.8636 5.55438 21.8716 4.89047 21.189 4.20104C20.2346 3.23606 17.8218 2.08528 11.7453 2.08595C5.69835 2.08663 3.28078 3.22734 2.31844 4.18968L2.30436 4.20376C1.62234 4.89383 1.63106 5.55707 1.63508 5.87628C1.63642 5.97285 1.63441 6.04863 1.62905 6.09826C1.63307 7.43949 1.79067 8.28111 2.11522 8.59901C2.44653 8.92222 3.23987 8.90143 4.33834 8.87461C4.68706 8.86522 5.0673 8.8565 5.47772 8.8565C6.54065 8.85449 6.71232 8.50175 7.08854 7.7178C7.60894 6.63542 8.3218 5.15269 11.7446 5.15403C15.1668 5.15336 15.881 6.63475 16.4034 7.71645C16.7803 8.49839 16.9513 8.85449 18.0156 8.85516C18.4314 8.85516 18.8156 8.86522 19.169 8.87394C20.2608 8.90076 21.0494 8.92088 21.3794 8.60033Z" fill="white"/>
</svg>
