
<svg width="148" height="192" viewBox="0 0 148 192" fill="none" xmlns="http://www.w3.org/2000/svg">
            <path
                d="M73.6657 147.332C114.35 147.332 147.331 114.35 147.331 73.6658C147.331 32.9813 114.35 0 73.6657 0C32.9813 0 0 32.9813 0 73.6658C0 114.35 32.9813 147.332 73.6657 147.332Z"
                fill="#D6FFFF" fill-opacity="0.85" />
            <path
                d="M73.6657 136.076C108.134 136.076 136.077 108.134 136.077 73.6651C136.077 39.1963 108.134 11.2539 73.6657 11.2539C39.197 11.2539 11.2544 39.1963 11.2544 73.6651C11.2544 108.134 39.197 136.076 73.6657 136.076Z"
                fill="url(#paint0_radial_3231_14841)" />
            <path
                d="M73.6659 82.3073C78.4376 82.3073 82.3059 78.4391 82.3059 73.6673C82.3059 68.8956 78.4376 65.0273 73.6659 65.0273C68.8941 65.0273 65.0259 68.8956 65.0259 73.6673C65.0259 78.4391 68.8941 82.3073 73.6659 82.3073Z"
                fill="url(#paint1_radial_3231_14841)" />
            <path
                d="M73.6654 122.264C100.506 122.264 122.264 100.506 122.264 73.6652C122.264 46.8249 100.506 25.0664 73.6654 25.0664C46.8247 25.0664 25.0664 46.8249 25.0664 73.6652C25.0664 100.506 46.8247 122.264 73.6654 122.264Z"
                fill="url(#paint2_radial_3231_14841)" />
            <path fill-rule="evenodd" clip-rule="evenodd"
                d="M96.6864 76.1241C96.7887 76.0218 97.1469 75.4589 97.2492 75.3055C97.556 74.845 98.5794 73.0034 98.6814 72.5432L98.6304 72.4919C98.6304 72.4919 98.6304 72.4919 98.5794 72.4919C98.2212 72.1337 97.9141 71.7756 97.556 71.4175C97.4536 71.3665 97.4026 71.2641 97.3002 71.1617C97.1979 71.1107 97.1469 71.0084 97.0959 70.9574L94.6403 68.7062C94.589 68.6552 94.4866 68.5528 94.3846 68.5018L93.617 67.888C91.9801 66.5578 90.2918 65.2787 88.5525 64.1023L84.5111 61.5954C84.3064 61.4934 84.153 61.391 83.8972 61.2376L82.6695 60.5724C82.209 60.3676 81.8508 60.1633 81.4417 59.9585C79.6001 59.0379 77.6051 58.2192 75.661 57.4006L73.6146 56.6843C73.3589 56.6333 73.1545 56.531 72.8988 56.4286L70.75 55.7637C70.2895 55.6613 69.778 55.4566 69.3175 55.3546C68.2945 55.0988 67.3225 54.8427 66.2994 54.6383C65.7879 54.536 65.2761 54.4336 64.7646 54.3312C64.2531 54.2288 63.6906 54.1268 63.1787 54.0754C62.8719 54.0244 62.8205 54.1268 62.5648 54.3312C62.3604 54.4336 62.2067 54.587 62.0023 54.6893L59.8535 56.2752C59.7001 56.3776 58.5234 57.2982 58.4724 57.4006C58.4214 57.452 58.4214 57.452 58.5748 57.452L60.263 57.6054C60.8255 57.6564 61.337 57.7587 61.8999 57.8101C63.7416 58.0145 67.8853 58.9355 69.5222 59.447C70.2385 59.7027 70.9547 59.8561 71.671 60.1119C73.8194 60.8281 76.582 61.8515 78.6281 62.9255L81.3907 64.307C82.3627 64.8185 83.9996 65.7906 84.9202 66.3531C85.125 66.5064 85.2784 66.6088 85.4831 66.7112C87.069 67.6832 89.5755 69.5758 90.8547 70.6502L91.8777 71.5199C91.9801 71.6222 92.0311 71.6222 92.1334 71.7246L92.6449 72.1851C92.7473 72.2875 92.7987 72.3385 92.9007 72.3895L93.8727 73.3105L93.9241 73.3615C94.3846 73.771 95.9191 75.2545 96.1748 75.6126C96.3796 75.817 96.533 76.0218 96.6864 76.1241ZM59.0353 101.447C59.1373 101.396 60.4164 100.679 60.4674 100.577L57.8075 99.7074C57.7051 99.6564 57.5004 99.605 57.398 99.605C57.6027 99.9631 58.7281 101.242 59.0353 101.447ZM54.1242 95.5126L54.8401 95.5636C55.0962 95.6149 55.352 95.615 55.6077 95.615C56.2216 95.666 57.0399 95.8193 57.7051 95.9731C59.4954 96.3308 61.4908 96.9961 63.1277 97.8657C64.5602 98.582 63.9463 98.582 64.9693 98.0191L65.5832 97.661C65.6856 97.61 65.6856 97.61 65.7366 97.5076L64.2531 96.689C63.9973 96.5356 63.7416 96.4332 63.4858 96.2798L62.6672 95.9217C61.4394 95.4102 60.4674 95.0521 59.1886 94.7453L57.7561 94.4382C57.6027 94.3872 57.398 94.3872 57.2446 94.3358C56.5797 94.2334 55.8635 94.1314 55.1472 94.0801C54.9425 94.0801 54.7891 94.0291 54.5843 94.0291L53.459 93.9777C52.9475 93.9777 53.0498 93.9267 53.6637 94.8473C53.8171 95.0521 53.9705 95.2568 54.1242 95.5126ZM49.9804 88.197C49.9804 88.3504 50.1852 88.6575 50.2872 88.8623L50.7991 89.9363C51.2082 89.9363 51.6173 89.8343 52.0268 89.8343C53.6123 89.7829 55.3006 89.7829 56.7841 89.9876C58.319 90.192 59.1373 90.3458 60.7745 90.7549C62.2067 91.164 63.4344 91.5735 64.7646 92.1874C65.5322 92.4942 66.2481 92.9547 67.0157 93.3128C67.1691 93.4152 67.3225 93.4662 67.4758 93.5686L69.1641 94.6429C70.3919 95.4612 69.5222 95.4102 71.5686 94.3358C71.4662 94.1824 71.3129 94.0801 71.1591 93.9777C71.0057 93.8753 70.9034 93.7733 70.75 93.6709L69.0107 92.4942C66.4528 90.9083 64.7646 90.141 61.9509 89.2714C61.5928 89.169 61.235 89.0666 60.8255 88.9643C59.9049 88.7085 58.0119 88.3504 57.0912 88.2484C55.1472 88.0436 53.2032 87.9413 51.2082 88.0946L49.9804 88.197ZM80.3673 46.3508V46.4021C80.5721 46.4021 83.2834 47.5785 83.6925 47.7833C84.5111 48.1414 86.148 48.9087 86.9156 49.3178C87.12 49.4202 87.3248 49.5225 87.5295 49.6249C87.6829 49.6759 87.7339 49.7273 87.8363 49.7783C88.4502 50.0854 89.3198 50.5969 89.985 50.955C90.1894 51.0574 90.3942 51.1594 90.5989 51.3132L96.1238 54.7917C97.0959 55.4566 98.1699 56.2752 99.1419 56.9915C99.2956 57.1449 99.5 57.2982 99.6534 57.4006C99.6534 56.7867 98.6814 54.587 98.3236 53.9221C97.8117 52.9501 97.1469 51.7733 96.482 50.955L95.9701 50.2898C94.4356 48.6529 94.6403 48.7039 92.6963 47.5275L92.4916 47.4251C90.8033 46.6065 89.5755 46.2998 87.7853 46.044C87.5805 45.9926 87.3248 45.9926 87.069 45.9926C86.7109 45.9416 86.148 45.8906 85.5855 45.8906H84.5625C84.153 45.8906 83.7949 45.9416 83.4881 45.9416C82.8742 45.9926 81.4931 46.1464 80.8278 46.2484C80.7255 46.2998 80.5721 46.3508 80.3673 46.3508ZM47.6273 82.0582C47.6273 82.2116 47.7297 82.4677 47.7807 82.6211C47.8317 82.7745 47.883 82.9792 47.934 83.1326L48.2412 84.207L50.2872 83.9512C51.0034 83.8998 51.7197 83.7975 52.436 83.7975C53.459 83.7975 54.3286 83.7975 55.352 83.8488C56.1192 83.8998 57.0912 84.0022 57.8075 84.1046C58.37 84.1556 58.8305 84.258 59.3934 84.3603C59.8025 84.4113 61.1837 84.7185 61.5928 84.8209L62.9743 85.23C64.3044 85.6905 66.0437 86.253 67.2715 86.8669C67.3738 86.9182 67.4248 86.9692 67.5782 87.0206L68.806 87.6345C70.9547 88.7085 72.694 89.9876 74.5357 91.4712L75.3029 92.085C75.3029 92.085 75.3029 92.0337 75.3029 92.085C75.3543 92.0337 75.3543 92.0337 75.3543 92.0337C75.4053 91.9827 75.4053 91.9827 75.4563 91.9317L77.2469 90.9597L74.9962 89.0666C74.5357 88.7085 74.2285 88.5041 73.8194 88.197L70.2895 85.9972C69.0617 85.3324 68.4992 85.0766 67.1177 84.4627C66.1461 84.0022 64.4064 83.3883 63.3324 83.0816L61.6952 82.6211C61.4394 82.5697 61.1327 82.4677 60.8255 82.4163L55.8635 81.7001C55.7101 81.7001 55.5054 81.7001 55.352 81.7001C55.0448 81.6491 54.6357 81.7001 54.3286 81.6491C53.6123 81.5467 50.1338 81.7001 49.5199 81.8025C49.2642 81.8538 49.0594 81.8538 48.8037 81.9048C48.7013 81.8538 47.8317 82.0582 47.6273 82.0582ZM46.8086 76.8914C46.8596 77.2495 46.8596 77.8634 46.911 78.1705C47.2692 78.1705 49.7757 77.761 50.5943 77.761C51.4129 77.761 52.0778 77.6587 52.9475 77.6587H54.6867C55.403 77.71 57.1936 77.8124 57.9095 77.9144C59.4954 78.1192 60.8769 78.3749 62.4628 78.7331C62.6162 78.784 62.7695 78.8354 62.9229 78.8354C63.1277 78.8864 63.23 78.8864 63.3834 78.9378C63.8439 79.0402 64.7646 79.3469 65.1741 79.4493C65.2761 79.4493 65.3274 79.5003 65.3784 79.5003L68.1921 80.5237C70.3919 81.3933 72.0287 82.314 74.0751 83.4907C74.9448 84.0022 76.0702 84.8209 76.8888 85.4347C77.0422 85.5371 77.0936 85.5881 77.2469 85.6905C77.3493 85.7929 77.4517 85.8439 77.5537 85.9462L80.265 88.2994C80.8278 88.8109 80.5721 88.9133 81.3393 88.4528L82.5161 87.7879C82.7208 87.6345 82.9252 87.5831 83.13 87.4298C83.0786 87.2764 82.9766 87.174 82.8742 87.0716L79.8048 84.3603C79.5491 84.1556 79.3443 84.0022 79.0886 83.7975C78.9352 83.6955 78.8328 83.6441 78.7304 83.5417C77.8094 82.8255 77.0422 82.3653 76.0702 81.7001C75.8144 81.5467 75.5587 81.3419 75.3029 81.1886C75.0472 81.0352 74.7914 80.8818 74.4843 80.7281C74.2285 80.5747 73.9218 80.4213 73.666 80.2679C73.1545 80.0118 72.6426 79.7051 71.9778 79.3983L71.0567 78.9888C70.4942 78.733 69.8804 78.4263 69.2665 78.2215L65.5322 76.8404C63.0767 76.0728 60.7745 75.6126 58.1656 75.3055C56.2216 75.0498 52.7427 74.9474 50.7991 75.1011C50.5429 75.1521 50.3386 75.1521 50.0828 75.1521C49.8271 75.1521 49.5713 75.2031 49.3665 75.2031C48.906 75.2545 47.1158 75.4589 46.6553 75.5613V76.8914H46.8086ZM47.4225 71.3155C47.883 71.3155 49.6223 71.0597 50.2872 71.0597L53.6123 70.9574C54.1242 70.9574 54.5333 71.0083 55.0448 71.0083C55.8635 71.0083 58.2676 71.2131 59.1373 71.3665C60.0073 71.4689 60.8769 71.5712 61.6952 71.7246C63.9973 72.1851 66.5038 72.799 68.7036 73.6173L72.4383 75.1011C72.5406 75.1521 72.5916 75.2031 72.694 75.2545C72.7964 75.3055 72.8474 75.3055 72.9498 75.3569L74.8938 76.3285C75.8658 76.8404 76.7864 77.4029 77.7074 77.9658C79.0886 78.784 80.3673 79.7561 81.6465 80.7281L83.2834 82.0582C83.3857 82.1606 83.3857 82.1606 83.4881 82.263L83.8972 82.5697C83.9996 82.6211 83.9996 82.6721 84.102 82.7745C84.2044 82.8255 84.2044 82.8768 84.3064 82.9278L84.4601 83.0816C84.4601 83.0816 84.4601 83.0816 84.5111 83.1326L85.2784 83.8488C85.5855 84.1556 86.5061 85.179 86.7619 85.3324C87.6829 84.8719 88.8083 83.9512 89.3198 83.6441C89.1664 83.3883 88.7573 83.0816 88.5525 82.8255L84.8692 79.3469C84.7159 79.2445 84.6135 79.0912 84.4601 78.9888L82.6695 77.6077C82.5161 77.5053 82.3627 77.3519 82.209 77.2495C82.0556 77.1472 81.9022 77.0448 81.7488 76.9424C80.6745 76.1751 79.5491 75.4589 78.4237 74.743L77.4003 74.1801C76.7864 73.822 76.1215 73.4639 75.4563 73.1571C75.4053 73.1057 75.4053 73.1057 75.3029 73.1057L75.0472 72.9524C74.9448 72.9014 74.8424 72.85 74.7914 72.799C74.638 72.6966 74.4333 72.6452 74.2799 72.5432L70.3409 70.906C70.1361 70.8036 69.9827 70.7526 69.778 70.7016C69.6756 70.6502 69.6246 70.6502 69.4712 70.5992L67.9873 70.0877C66.5552 69.6782 65.0717 69.2181 63.5882 68.962C63.3834 68.911 63.1787 68.86 62.9229 68.8086C62.4628 68.7062 62.0023 68.6552 61.5928 68.5528C60.7231 68.3995 58.319 68.0413 57.398 67.9903C56.375 67.939 55.403 67.8366 54.3286 67.8366L49.6223 68.0413C49.4689 68.0413 48.7013 68.0923 48.6503 68.1437C48.5993 68.1947 48.5479 68.2971 48.4969 68.3995C48.4455 68.4505 48.4969 68.4505 48.4455 68.5018C48.1898 68.962 47.4225 70.8036 47.4225 71.3155ZM68.2945 51.0574L70.699 51.6713C71.3639 51.8757 72.4383 52.1314 73.1031 52.3362C73.4613 52.4896 73.8704 52.5919 74.2285 52.6943C75.3029 53.0524 76.582 53.4616 77.6051 53.9221L80.8278 55.2522C81.186 55.4056 81.5441 55.6103 81.8508 55.7637C82.5671 56.0705 83.2324 56.4286 83.9486 56.7357L85.1764 57.4006C85.2784 57.452 85.3297 57.503 85.4321 57.5544C85.9946 57.8611 87.3248 58.6284 87.8877 58.9355C88.1944 59.1399 88.5015 59.2936 88.8083 59.498C88.9617 59.6004 89.1154 59.7027 89.2688 59.8051C89.4222 59.9075 89.5755 60.0099 89.7293 60.1119C91.0591 60.9815 92.0824 61.6468 93.3612 62.6188C93.6683 62.8745 93.9241 63.0279 94.2308 63.2837C95.0495 63.9489 96.3796 64.9719 97.1979 65.7392L97.8117 66.2507C97.9141 66.3021 97.9141 66.3531 98.0165 66.4044C98.1189 66.4554 98.1189 66.5064 98.2212 66.5578L100.012 68.2461C100.165 67.9903 100.421 65.7906 100.421 65.4324C100.472 64.9719 100.472 64.5114 100.472 64.1023V63.1813V63.1303C100.472 63.0279 100.267 62.8745 100.165 62.7722L95.51 59.0379L94.0265 57.9635C93.7707 57.7587 93.5146 57.6054 93.2588 57.4006C93.0031 57.2472 92.7473 57.0425 92.4916 56.8891L90.9057 55.8661C90.6499 55.7127 90.3942 55.559 90.0874 55.3546C88.8597 54.587 87.2224 53.7173 85.9436 53.0524C85.8923 53.0011 85.8413 53.0011 85.7389 52.9501C85.125 52.5919 83.5905 51.8757 82.9252 51.5689C82.7719 51.5176 82.6185 51.4156 82.4647 51.3642L76.9912 49.1134L74.5867 48.2948C74.4843 48.2438 74.1775 48.1414 74.0751 48.1414C73.9218 48.1414 71.5686 49.2158 71.0567 49.4715C70.9034 49.5225 70.8524 49.5739 70.699 49.6249L69.6246 50.1878C69.5222 50.3412 68.3968 50.9037 68.2945 51.0574ZM92.3892 81.2399C92.6963 81.0352 94.7423 78.9378 94.8447 78.7844C94.7937 78.682 94.6913 78.6307 94.6403 78.5283C94.0265 77.8634 93.3612 77.1985 92.6963 76.5333L91.7753 75.6636C91.6729 75.5613 91.6219 75.5103 91.5196 75.4079C91.2128 75.1008 90.8547 74.845 90.4965 74.4873C89.985 73.9754 87.7339 72.2361 87.3248 71.878C86.1994 71.0597 85.074 70.2921 83.9486 69.5248C83.8462 69.4738 83.7439 69.4225 83.6415 69.3201C82.9766 68.86 82.2603 68.4505 81.5441 68.0413C81.3393 67.888 81.135 67.7856 80.9302 67.6832L79.7025 67.0183C79.6001 66.9669 79.4977 66.9159 79.3953 66.8646L78.4237 66.3531C78.2189 66.2507 77.9632 66.1487 77.7584 66.0463C76.684 65.4834 75.5587 65.0229 74.4333 64.5628C74.1775 64.4604 73.9728 64.409 73.7684 64.307L72.3869 63.7952C72.1825 63.6932 71.9268 63.6418 71.671 63.5394C71.2105 63.386 70.699 63.2327 70.2385 63.0793C69.9827 63.0279 69.778 62.9255 69.5222 62.8745L66.0947 61.9535L63.3324 61.391C63.0253 61.3396 62.8205 61.2886 62.5138 61.2376C61.337 61.0329 60.263 60.9305 59.0863 60.7771C58.2166 60.6748 57.2956 60.6238 56.426 60.5724C56.2726 60.5724 56.1192 60.5724 55.9659 60.5724C55.352 60.5214 55.3006 60.419 54.8915 60.8281L53.8685 61.8001C53.5103 62.1073 53.2032 62.4654 52.8451 62.7722L52.7941 62.8232C52.7427 62.8745 52.7427 62.8232 52.7427 62.8745L51.7197 63.9489C51.5663 64.1023 51.6687 64.1023 51.8731 64.1023C52.9985 64.1023 54.0728 64.0509 55.1982 64.1023C55.352 64.1023 55.454 64.1533 55.6587 64.1533C56.8865 64.1533 58.0633 64.307 59.2396 64.409C60.0583 64.4604 61.7975 64.7162 62.6162 64.8695L63.3834 65.0229C64.2021 65.1767 64.9693 65.3811 65.7879 65.5348C66.2995 65.6368 66.811 65.7906 67.3225 65.8926C69.2665 66.4044 71.2105 67.0693 73.1031 67.8366L74.5867 68.4505C74.638 68.5018 74.689 68.5018 74.7404 68.5018L75.712 68.962C77.0935 69.6272 78.5257 70.2921 79.8558 71.1107L82.2603 72.5942C82.9252 73.0547 83.6415 73.4639 84.2554 73.9754C84.4601 74.1291 84.6135 74.2311 84.8182 74.3849C85.8923 75.1521 87.1714 76.1751 88.1434 77.0448L90.4965 79.2446C90.9571 79.7051 91.4686 80.2166 91.9287 80.7281C92.0311 80.9328 92.1848 81.1376 92.3892 81.2399Z"
                fill="#FEFEFE" />
            <path
                d="M24.9531 178.38C24.9531 182.646 26.7573 185.748 30.7603 185.748C33.6921 185.748 35.44 184.972 36.8494 183.2L36.6803 184.363C36.1729 188.296 34.4251 189.515 31.5496 189.515C29.971 189.515 28.336 189.127 26.9264 188.462L26.0808 190.512C27.7157 191.287 29.5199 191.675 31.3242 191.731C35.891 191.731 38.8227 189.736 39.4994 184.474L41.5291 168.076C39.2175 167.135 36.7367 166.691 34.1996 166.747C27.603 166.802 24.9531 171.123 24.9531 178.38ZM38.5409 169.849L37.3005 179.82C35.891 182.036 34.3124 183.476 31.7188 183.476C28.7306 183.476 27.7157 181.482 27.7157 178.491C27.7157 170.292 30.8731 169.018 34.1996 169.018C35.6654 169.018 37.1878 169.24 38.5409 169.849Z"
                fill="#293059" />
            <path
                d="M91.9897 166.747C85.9569 166.747 82.9688 170.791 82.9688 178.879C82.9688 183.809 85.1112 186.634 88.8323 186.634C91.3695 186.8 93.8503 185.693 95.3726 183.643V183.809C95.3726 184.529 95.4289 185.249 95.4853 185.969L95.5417 186.302L97.515 186.08V185.748C97.515 185.083 97.4587 184.419 97.4587 183.754C97.4587 182.867 97.515 181.981 97.6278 181.15L99.2064 168.243L98.9809 168.132C96.7257 167.079 94.3577 166.636 91.9897 166.747ZM95.5417 180.208C93.9066 182.867 92.2716 184.64 89.2834 184.64C86.4644 184.64 85.1112 182.812 85.1112 178.879C85.1112 174.669 85.9569 171.677 87.5921 170.126C88.8323 169.074 90.4675 168.575 92.1024 168.686C93.7376 168.63 95.3162 168.907 96.8385 169.461L95.5417 180.208Z"
                fill="#293059" />
            <path
                d="M115.106 168.354C112.964 167.412 110.653 166.969 108.341 167.024C101.293 167.024 99.6577 172.675 99.6577 178.823C99.6577 182.978 101.293 186.247 105.239 186.247C108.115 186.413 110.821 184.973 112.174 182.48C112.174 182.923 112.174 183.311 112.174 183.754C112.118 184.474 112.118 185.194 112.174 185.859L113.471 185.693C113.471 185.028 113.414 184.308 113.414 183.643C113.414 182.757 113.471 181.87 113.584 180.984L115.106 168.354ZM112.174 180.319C110.483 183.144 108.735 184.973 105.578 184.973C102.138 184.973 101.067 182.424 101.067 178.879C101.067 168.908 105.578 168.354 108.397 168.354C110.145 168.243 111.893 168.575 113.471 169.295L112.174 180.319Z"
                fill="#293059" />
            <path
                d="M65.8291 178.711C65.8291 183.087 67.6334 186.245 71.6364 186.245C74.7938 186.245 76.7671 185.248 78.2329 183.143C78.2893 184.084 78.4021 185.026 78.5712 185.968L80.8829 185.58C80.8265 184.86 80.7701 184.029 80.7701 183.309C80.8265 181.204 80.9955 179.043 81.2775 176.938L82.4051 168.186C80.0934 167.244 77.6128 166.801 75.0756 166.856C68.5355 166.801 65.8291 171.232 65.8291 178.711ZM79.4733 169.847L78.1765 180.262C76.7107 182.589 75.1883 184.029 72.5385 184.029C69.5503 184.029 68.5919 181.979 68.5919 178.877C68.5919 170.457 71.6928 169.072 75.132 169.072C76.5979 169.017 78.0637 169.294 79.4733 169.847Z"
                fill="#293059" />
            <path
                d="M48.4072 178.379C48.4072 182.645 50.2114 185.747 54.2144 185.747C57.1463 185.747 58.8941 184.971 60.3035 183.199L60.1345 184.362C59.627 188.295 57.8792 189.514 55.0038 189.514C53.3687 189.514 51.7901 189.126 50.3805 188.462L49.5349 190.567C51.1698 191.287 52.9178 191.73 54.6655 191.73C59.2324 191.73 62.1642 189.736 62.8407 184.473L64.9268 168.131C62.6152 167.189 60.1345 166.746 57.5973 166.802C51.0572 166.802 48.4072 171.122 48.4072 178.379ZM61.9951 169.848L60.7546 179.82C59.3451 182.036 57.7665 183.476 55.1729 183.476C52.1847 183.476 51.1698 181.482 51.1698 178.49C51.1698 170.347 54.3272 169.073 57.6537 169.073C59.1197 169.017 60.5855 169.294 61.9951 169.848Z"
                fill="#293059" />
            <path
                d="M43.4463 175.608L42.9952 179.264C42.8826 180.15 42.8262 181.037 42.8262 181.923C42.8262 183.252 42.9389 184.582 43.2207 185.856H45.8143C45.5888 184.748 45.476 183.585 45.5324 182.477C45.5324 181.48 45.5888 180.538 45.7016 179.541L46.7164 171.508L47.2802 167.188C46.1525 167.52 45.1377 168.074 44.3484 168.849L43.4463 175.608Z"
                fill="#293059" />
            <path
                d="M120.576 168.574C120.576 168.851 120.35 169.073 120.012 169.073H119.448V168.076H119.956C120.294 168.02 120.576 168.242 120.576 168.574C120.576 168.519 120.576 168.574 120.576 168.574ZM120.97 170.458L120.294 169.294C120.632 169.239 120.914 168.906 120.914 168.574C120.857 168.131 120.518 167.799 120.068 167.799H119.222V170.458H119.504V169.35H119.956L120.632 170.458H120.97ZM122.097 169.128C122.097 170.291 121.139 171.233 119.956 171.178C118.77 171.178 117.812 170.236 117.868 169.073C117.868 167.909 118.828 167.023 120.012 167.023C121.139 167.023 122.097 167.965 122.097 169.128ZM122.379 169.128C122.379 167.799 121.252 166.746 119.898 166.746C118.546 166.746 117.474 167.854 117.474 169.184C117.474 170.513 118.602 171.566 119.898 171.566C121.308 171.566 122.379 170.458 122.379 169.128Z"
                fill="#293059" />
            <defs>
                <radialGradient id="paint0_radial_3231_14841" cx="0" cy="0" r="1" gradientUnits="userSpaceOnUse"
                    gradientTransform="translate(73.6657 73.665) scale(62.4111)">
                    <stop offset="0.359375" stop-color="#29355D" stop-opacity="0.18" />
                    <stop offset="1" stop-color="#1AFDFC" stop-opacity="0.54" />
                </radialGradient>
                <radialGradient id="paint1_radial_3231_14841" cx="0" cy="0" r="1" gradientUnits="userSpaceOnUse"
                    gradientTransform="translate(73.6659 73.6673) rotate(90) scale(8.64)">
                    <stop offset="0.375" stop-color="#D6FFFF" stop-opacity="0" />
                    <stop offset="0.890625" stop-color="#D6FFFF" />
                </radialGradient>
                <radialGradient id="paint2_radial_3231_14841" cx="0" cy="0" r="1" gradientUnits="userSpaceOnUse"
                    gradientTransform="translate(73.6654 73.6652) scale(48.5989)">
                    <stop offset="0.5372" stop-color="#29355D" />
                    <stop offset="1" stop-color="#1AFDFC" />
                </radialGradient>
            </defs>
        </svg>