<svg   width="20" height="16" viewBox="0 0 20 16"
          fill="none" xmlns="http://www.w3.org/2000/svg">
          <path
            d="M17.5 13.8594V2.14062H2.5V13.8594H17.5ZM17.5 0.5C17.9427 0.5 18.3333 0.669271 18.6719 1.00781C19.0104 1.34635 19.1797 1.73698 19.1797 2.17969V13.8203C19.1797 14.263 19.0104 14.6536 18.6719 14.9922C18.3333 15.3307 17.9427 15.5 17.5 15.5H2.5C2.05729 15.5 1.66667 15.3307 1.32812 14.9922C0.989583 14.6536 0.820312 14.263 0.820312 13.8203V2.17969C0.820312 1.73698 0.989583 1.34635 1.32812 1.00781C1.66667 0.669271 2.05729 0.5 2.5 0.5H17.5ZM5.82031 5.5V8H4.17969V3.82031H8.32031V5.5H5.82031ZM15.8203 8V12.1797H11.6797V10.5H14.1797V8H15.8203Z"
            fill="white" />
        </svg>