<svg width="18" height="15" viewBox="0 0 18 15" fill="none" xmlns="http://www.w3.org/2000/svg">
<path d="M12.4078 7.7376C12.4078 5.67122 10.7327 3.99609 8.66628 3.99609C7.71737 3.99609 6.85097 4.34934 6.19141 4.9315" stroke="white" stroke-width="1.4" stroke-linecap="round"/>
<path d="M12.2186 7.99807L12.5958 7.99807L12.4072 8.28103L12.2186 7.99807Z" fill="white" stroke="white" stroke-width="1.4" stroke-linecap="round"/>
<path d="M4.92474 7.73701C4.92474 9.80339 6.59987 11.4785 8.66624 11.4785C9.61514 11.4785 10.4815 11.1253 11.1411 10.5431" stroke="white" stroke-width="1.4" stroke-linecap="round"/>
<path d="M5.11395 7.71873L4.73667 7.71873L4.92531 7.43577L5.11395 7.71873Z" fill="white" stroke="white" stroke-width="1.4" stroke-linecap="round"/>
<path d="M0.7 5.42857C0.7 4.23721 1.66579 3.27143 2.85714 3.27143H3.34286C3.7768 3.27143 4.12857 2.91965 4.12857 2.48571C4.12857 1.49949 4.92806 0.7 5.91429 0.7L11.2286 0.7C12.2148 0.7 13.0143 1.49949 13.0143 2.48571C13.0143 2.91965 13.3661 3.27143 13.8 3.27143H14.2857C15.4771 3.27143 16.4429 4.23721 16.4429 5.42857L16.4429 11.1429C16.4429 12.6498 15.2212 13.8714 13.7143 13.8714L3.42857 13.8714C1.92162 13.8714 0.7 12.6498 0.7 11.1429L0.7 5.42857Z" stroke="white" stroke-width="1.4"/>
</svg>