<svg width="41" height="41" viewBox="0 0 41 41" fill="none" xmlns="http://www.w3.org/2000/svg">
<path fill-rule="evenodd" clip-rule="evenodd" d="M3.34771 5.2771C2.15271 5.72478 1.41837 6.93112 1.56949 8.19825L1.80531 10.1755C2.45266 15.6032 4.19574 20.8429 6.92884 25.5767C9.66193 30.3106 13.3281 34.44 17.7049 37.7145L19.2994 38.9073C20.3212 39.6717 21.7331 39.6389 22.7183 38.8279L26.002 36.1246C27.4751 34.9119 27.8556 32.8118 26.9015 31.1594L25.0338 27.9244C24.2831 26.6241 22.7438 26.0016 21.3002 26.4145C18.8597 27.1127 16.2571 26.0602 14.9879 23.8618L12.4435 19.4549C11.1743 17.2565 11.5641 14.4764 13.389 12.7118C14.4684 11.6682 14.6989 10.0238 13.9482 8.72354L12.0805 5.48853C11.1264 3.83605 9.11752 3.11553 7.33068 3.78494L3.34771 5.2771ZM2.82147 3.87243C0.979175 4.56262 -0.15294 6.4224 0.0800486 8.37589L0.315869 10.3531C0.987278 15.9826 2.79513 21.4169 5.6298 26.3267C8.46446 31.2365 12.2669 35.5194 16.8064 38.9155L18.4008 40.1084C19.9761 41.2869 22.1528 41.2363 23.6716 39.986L26.9554 37.2827C28.9946 35.6039 29.5213 32.6969 28.2006 30.4094L26.3329 27.1744C25.238 25.278 22.993 24.3701 20.8877 24.9724C19.1089 25.4812 17.212 24.7141 16.2869 23.1118L13.7425 18.7049C12.8174 17.1025 13.1016 15.0763 14.4317 13.7902C16.0059 12.2681 16.3421 9.86991 15.2473 7.97354L13.3795 4.73853C12.0588 2.45103 9.27794 1.45362 6.80444 2.38028L2.82147 3.87243Z" fill="#808997"/>
<path fill-rule="evenodd" clip-rule="evenodd" d="M31.501 17.5C35.9193 17.5 39.501 13.9183 39.501 9.5C39.501 5.08172 35.9193 1.5 31.501 1.5C27.0827 1.5 23.501 5.08172 23.501 9.5C23.501 13.9183 27.0827 17.5 31.501 17.5ZM31.501 19C36.7477 19 41.001 14.7467 41.001 9.5C41.001 4.25329 36.7477 0 31.501 0C26.2543 0 22.001 4.25329 22.001 9.5C22.001 14.7467 26.2543 19 31.501 19Z" fill="#808997"/>
<path fill-rule="evenodd" clip-rule="evenodd" d="M31.501 4.25C31.9152 4.25 32.251 4.58579 32.251 5V8.75H37.001C37.4152 8.75 37.751 9.08579 37.751 9.5C37.751 9.91421 37.4152 10.25 37.001 10.25H30.751V5C30.751 4.58579 31.0868 4.25 31.501 4.25Z" fill="#808997"/>
</svg>
