<svg width="50" height="50" viewBox="0 0 50 50" fill="none" xmlns="http://www.w3.org/2000/svg">
<mask id="mask0_533_109726" style="mask-type:alpha" maskUnits="userSpaceOnUse" x="0" y="0" width="50" height="50">
<circle cx="25" cy="25" r="25" fill="#C4C4C4"/>
</mask>
<g mask="url(#mask0_533_109726)">
<path d="M50 -0.200195H0V49.7998H50V-0.200195Z" fill="#B22234"/>
<path d="M50 3.67163H0V7.52151H50V3.67163Z" fill="white"/>
<path d="M50 11.3633H0V15.2132H50V11.3633Z" fill="white"/>
<path d="M50 19.0552H0V22.9051H50V19.0552Z" fill="white"/>
<path d="M50 26.7468H0V30.5967H50V26.7468Z" fill="white"/>
<path d="M50 34.4385H0V38.2884H50V34.4385Z" fill="white"/>
<path d="M50 42.1299H0V45.9798H50V42.1299Z" fill="white"/>
<mask id="mask1_533_109726" style="mask-type:alpha" maskUnits="userSpaceOnUse" x="0" y="-1" width="50" height="51">
<path d="M50 -0.200195H0V49.7998H50V-0.200195Z" fill="#B22234"/>
</mask>
<g mask="url(#mask1_533_109726)">
<path d="M24.9984 -0.170166H-13V26.7548H24.9984V-0.170166Z" fill="#3C3B6E"/>
<path d="M-0.33602 3.67188L-0.683073 4.73725H-1.79688L-0.89292 5.391L-1.23997 6.45638L-0.33602 5.79455L0.567935 6.45638L0.220881 5.391L1.12484 4.73725H0.011034L-0.33602 3.67188Z" fill="white"/>
<path d="M-0.33602 9.05518L-0.683073 10.1206H-1.79688L-0.89292 10.7743L-1.23997 11.8397L-0.33602 11.1859L0.567935 11.8397L0.220881 10.7743L1.12484 10.1206H0.011034L-0.33602 9.05518Z" fill="white"/>
<path d="M-0.33602 14.4385L-0.683073 15.5039H-1.79688L-0.89292 16.1576L-1.23997 17.223L-0.33602 16.5692L0.567935 17.223L0.220881 16.1576L1.12484 15.5039H0.011034L-0.33602 14.4385Z" fill="white"/>
<path d="M0.011034 20.8874L-0.33602 19.8301L-0.683073 20.8874H-1.79688L-0.89292 21.5492L-1.23997 22.6065L-0.33602 21.9528L0.567935 22.6065L0.220881 21.5492L1.12484 20.8874H0.011034Z" fill="white"/>
<path d="M2.83514 0.976074L2.48808 2.04145H1.36621L2.27017 2.70327L1.93118 3.76058L2.83514 3.10682L3.73909 3.76058L3.39204 2.70327L4.29599 2.04145H3.17412L2.83514 0.976074Z" fill="white"/>
<path d="M2.83514 6.36743L2.48808 7.42474H1.36621L2.27017 8.08656L1.93118 9.14386L2.83514 8.49011L3.73909 9.14386L3.39204 8.08656L4.29599 7.42474H3.17412L2.83514 6.36743Z" fill="white"/>
<path d="M2.83514 11.751L2.48808 12.8083H1.36621L2.27017 13.4701L1.93118 14.5355L2.83514 13.8737L3.73909 14.5355L3.39204 13.4701L4.29599 12.8083H3.17412L2.83514 11.751Z" fill="white"/>
<path d="M2.83514 17.1343L2.48808 18.1997H1.36621L2.27017 18.8534L1.93118 19.9188L2.83514 19.257L3.73909 19.9188L3.39204 18.8534L4.29599 18.1997H3.17412L2.83514 17.1343Z" fill="white"/>
<path d="M3.17412 23.583L2.83514 22.5176L2.48808 23.583H1.36621L2.27017 24.2367L1.93118 25.3021L2.83514 24.6483L3.73909 25.3021L3.39204 24.2367L4.29599 23.583H3.17412Z" fill="white"/>
<path d="M5.99992 3.67188L5.65286 4.73725H4.53906L5.44302 5.391L5.09596 6.45638L5.99992 5.79455L6.90387 6.45638L6.55682 5.391L7.46077 4.73725H6.34697L5.99992 3.67188Z" fill="white"/>
<path d="M5.99992 9.05518L5.65286 10.1206H4.53906L5.44302 10.7743L5.09596 11.8397L5.99992 11.1859L6.90387 11.8397L6.55682 10.7743L7.46077 10.1206H6.34697L5.99992 9.05518Z" fill="white"/>
<path d="M5.99992 14.4385L5.65286 15.5039H4.53906L5.44302 16.1576L5.09596 17.223L5.99992 16.5692L6.90387 17.223L6.55682 16.1576L7.46077 15.5039H6.34697L5.99992 14.4385Z" fill="white"/>
<path d="M6.34697 20.8874L5.99992 19.8301L5.65286 20.8874H4.53906L5.44302 21.5492L5.09596 22.6065L5.99992 21.9528L6.90387 22.6065L6.55682 21.5492L7.46077 20.8874H6.34697Z" fill="white"/>
<path d="M9.163 0.976074L8.81595 2.04145H7.70215L8.6061 2.70327L8.25905 3.76058L9.163 3.10682L10.067 3.76058L9.7199 2.70327L10.6319 2.04145H9.51006L9.163 0.976074Z" fill="white"/>
<path d="M9.163 6.36743L8.81595 7.42474H7.70215L8.6061 8.08656L8.25905 9.14386L9.163 8.49011L10.067 9.14386L9.7199 8.08656L10.6319 7.42474H9.51006L9.163 6.36743Z" fill="white"/>
<path d="M9.163 11.751L8.81595 12.8083H7.70215L8.6061 13.4701L8.25905 14.5355L9.163 13.8737L10.067 14.5355L9.7199 13.4701L10.6319 12.8083H9.51006L9.163 11.751Z" fill="white"/>
<path d="M9.163 17.1343L8.81595 18.1997H7.70215L8.6061 18.8534L8.25905 19.9188L9.163 19.257L10.067 19.9188L9.7199 18.8534L10.6319 18.1997H9.51006L9.163 17.1343Z" fill="white"/>
<path d="M9.51006 23.583L9.163 22.5176L8.81595 23.583H7.70215L8.6061 24.2367L8.25905 25.3021L9.163 24.6483L10.067 25.3021L9.7199 24.2367L10.6319 23.583H9.51006Z" fill="white"/>
<path d="M12.3351 3.67188L11.9881 4.73725H10.8662L11.7702 5.391L11.4312 6.45638L12.3351 5.79455L13.2391 6.45638L12.892 5.391L13.796 4.73725H12.6741L12.3351 3.67188Z" fill="white"/>
<path d="M12.3351 9.05518L11.9881 10.1206H10.8662L11.7702 10.7743L11.4312 11.8397L12.3351 11.1859L13.2391 11.8397L12.892 10.7743L13.796 10.1206H12.6741L12.3351 9.05518Z" fill="white"/>
<path d="M12.3351 14.4385L11.9881 15.5039H10.8662L11.7702 16.1576L11.4312 17.223L12.3351 16.5692L13.2391 17.223L12.892 16.1576L13.796 15.5039H12.6741L12.3351 14.4385Z" fill="white"/>
<path d="M12.6741 20.8874L12.3351 19.8301L11.9881 20.8874H10.8662L11.7702 21.5492L11.4312 22.6065L12.3351 21.9528L13.2391 22.6065L12.892 21.5492L13.796 20.8874H12.6741Z" fill="white"/>
<path d="M15.4989 0.976074L15.1519 2.04145H14.0381L14.942 2.70327L14.595 3.76058L15.4989 3.10682L16.4029 3.76058L16.0558 2.70327L16.9598 2.04145H15.846L15.4989 0.976074Z" fill="white"/>
<path d="M15.4989 6.36743L15.1519 7.42474H14.0381L14.942 8.08656L14.595 9.14386L15.4989 8.49011L16.4029 9.14386L16.0558 8.08656L16.9598 7.42474H15.846L15.4989 6.36743Z" fill="white"/>
<path d="M15.4989 11.751L15.1519 12.8083H14.0381L14.942 13.4701L14.595 14.5355L15.4989 13.8737L16.4029 14.5355L16.0558 13.4701L16.9598 12.8083H15.846L15.4989 11.751Z" fill="white"/>
<path d="M15.4989 17.1343L15.1519 18.1997H14.0381L14.942 18.8534L14.595 19.9188L15.4989 19.257L16.4029 19.9188L16.0558 18.8534L16.9598 18.1997H15.846L15.4989 17.1343Z" fill="white"/>
<path d="M15.846 23.583L15.4989 22.5176L15.1519 23.583H14.0381L14.942 24.2367L14.595 25.3021L15.4989 24.6483L16.4029 25.3021L16.0558 24.2367L16.9598 23.583H15.846Z" fill="white"/>
<path d="M18.663 3.67188L18.3159 4.73725H17.2021L18.1061 5.391L17.759 6.45638L18.663 5.79455L19.567 6.45638L19.228 5.391L20.1319 4.73725H19.0101L18.663 3.67188Z" fill="white"/>
<path d="M18.663 9.05518L18.3159 10.1206H17.2021L18.1061 10.7743L17.759 11.8397L18.663 11.1859L19.567 11.8397L19.228 10.7743L20.1319 10.1206H19.0101L18.663 9.05518Z" fill="white"/>
<path d="M18.663 14.4385L18.3159 15.5039H17.2021L18.1061 16.1576L17.759 17.223L18.663 16.5692L19.567 17.223L19.228 16.1576L20.1319 15.5039H19.0101L18.663 14.4385Z" fill="white"/>
<path d="M19.0101 20.8874L18.663 19.8301L18.3159 20.8874H17.2021L18.1061 21.5492L17.759 22.6065L18.663 21.9528L19.567 22.6065L19.228 21.5492L20.1319 20.8874H19.0101Z" fill="white"/>
<path d="M21.2692 2.70327L20.9302 3.76058L21.8342 3.10682L22.7381 3.76058L22.3911 2.70327L23.295 2.04145H22.1731L21.8342 0.976074L21.4871 2.04145H20.3652L21.2692 2.70327Z" fill="white"/>
<path d="M21.8342 6.36743L21.4871 7.42474H20.3652L21.2692 8.08656L20.9302 9.14386L21.8342 8.49011L22.7381 9.14386L22.3911 8.08656L23.295 7.42474H22.1731L21.8342 6.36743Z" fill="white"/>
<path d="M21.8342 11.751L21.4871 12.8083H20.3652L21.2692 13.4701L20.9302 14.5355L21.8342 13.8737L22.7381 14.5355L22.3911 13.4701L23.295 12.8083H22.1731L21.8342 11.751Z" fill="white"/>
<path d="M21.8342 17.1343L21.4871 18.1997H20.3652L21.2692 18.8534L20.9302 19.9188L21.8342 19.257L22.7381 19.9188L22.3911 18.8534L23.295 18.1997H22.1731L21.8342 17.1343Z" fill="white"/>
<path d="M22.1731 23.583L21.8342 22.5176L21.4871 23.583H20.3652L21.2692 24.2367L20.9302 25.3021L21.8342 24.6483L22.7381 25.3021L22.3911 24.2367L23.295 23.583H22.1731Z" fill="white"/>
</g>
</g>
</svg>
